<svg width="111" height="117" fill="none" xmlns="http://www.w3.org/2000/svg"><path fill-rule="evenodd" clip-rule="evenodd" d="M38.734 92.049C18.573 74.024 10.324 50.53 22 28.589c13.994-26.302 18.785 13.137 40.274 6.154 21.488-6.984 50.119 10.374 35.475 41.303-13.709 28.953-38.852 34.028-59.014 16.003Z" fill="#F9DE80"/><path d="M83.753 42.857H39.871c-1.164 0-2.28-.502-3.103-1.394-.823-.893-1.285-2.105-1.285-3.368v-9.523c0-.877.655-1.588 1.463-1.588h49.733c.388 0 .76.167 1.034.465.275.298.429.702.429 1.122v9.524c0 1.263-.463 2.475-1.285 3.368-.823.892-1.94 1.394-3.103 1.394ZM38.408 30.16v7.936c0 .421.154.825.429 1.123.274.297.646.464 1.034.464h43.882c.388 0 .76-.167 1.035-.464.274-.298.428-.702.428-1.123V30.16H38.408Z" fill="#424B25"/><path d="M83.753 100H39.871c-.522-.001-1.003-.303-1.264-.794-.425-.793-10.438-19.563-10.438-32.54-.01-3.796.94-7.523 2.745-10.775 1.805-3.252 4.397-5.905 7.494-7.67V41.27h2.926v7.936c0 .635-.349 1.21-.886 1.46-2.794 1.434-5.155 3.7-6.81 6.532-1.656 2.832-2.537 6.115-2.543 9.469 0 10.706 7.744 26.476 9.629 30.159h42.177c1.885-3.683 9.63-19.464 9.63-30.16-.007-3.355-.89-6.64-2.547-9.471-1.657-2.833-4.02-5.098-6.815-6.532-.534-.252-.878-.825-.878-1.457V41.27h2.926v6.952c3.097 1.765 5.689 4.418 7.494 7.67 1.805 3.252 2.755 6.979 2.745 10.775 0 12.977-10.013 31.746-10.438 32.54-.26.49-.742.793-1.264.794Z" fill="#424B25"/><path d="M79.365 92.064H44.26c-.615 0-1.164-.418-1.375-1.045-.234-.724-5.938-17.818-5.938-25.94.015-2.625.869-5.165 2.416-7.185 1.547-2.02 3.691-3.396 6.067-3.893.096-.022.194-.033.293-.032h32.18c.099-.001.197.01.293.032 2.376.497 4.52 1.872 6.068 3.893 1.547 2.02 2.4 4.56 2.416 7.186 0 8.122-5.705 25.215-5.939 25.939-.21.627-.76 1.044-1.375 1.044Zm-34.07-3.175H78.33c1.24-3.85 5.423-17.33 5.423-23.81-.014-1.869-.618-3.677-1.712-5.121-1.094-1.445-2.61-2.438-4.298-2.815H45.885c-1.683.388-3.194 1.384-4.288 2.826-1.092 1.442-1.701 3.244-1.727 5.11 0 6.48 4.183 19.96 5.423 23.81h.001Z" fill="#424B25"/><path d="M70.589 92.064H53.036c-.808 0-1.463-.711-1.463-1.588v-9.524c0-.876.655-1.587 1.463-1.587h17.553c.388 0 .76.167 1.034.465.274.298.428.701.428 1.122v9.524c0 .421-.154.825-.428 1.123a1.407 1.407 0 0 1-1.034.465Zm-16.09-3.175h14.627v-6.35H54.498v6.35ZM61.812 76.19c-1.551 0-3.04-.668-4.137-1.859-1.097-1.191-1.714-2.806-1.714-4.49 0-3.08 3.967-8.035 4.763-8.996a1.455 1.455 0 0 1 1.088-.504c.41 0 .804.182 1.089.504.795.961 4.762 5.915 4.762 8.996 0 1.684-.616 3.299-1.713 4.49-1.098 1.19-2.586 1.86-4.138 1.86Zm0-11.826c-1.552 2.104-2.925 4.466-2.925 5.477 0 1.135.557 2.183 1.462 2.75.906.567 2.02.567 2.926 0 .905-.567 1.463-1.615 1.463-2.75 0-.984-1.372-3.363-2.926-5.477Z" fill="#424B25"/><path d="M60.35 74.603h2.925v6.35h-2.926v-6.35ZM54.498 19.048h-2.925c0-.892-.317-1.27-1.034-2.052-1.197-1.05-1.891-2.629-1.891-4.298 0-1.668.694-3.248 1.89-4.297.718-.782 1.035-1.16 1.035-2.052 0-.892-.317-1.27-1.034-2.052-1.182-1.06-1.875-2.632-1.891-4.297h2.925c0 .892.317 1.27 1.034 2.052 1.182 1.06 1.875 2.633 1.892 4.297-.018 1.665-.71 3.236-1.892 4.297-.717.783-1.034 1.16-1.034 2.052 0 .893.317 1.27 1.034 2.053 1.182 1.06 1.875 2.632 1.892 4.297ZM64.738 19.048h-2.926c0-.892-.317-1.27-1.034-2.052-1.197-1.05-1.891-2.629-1.891-4.298 0-1.668.695-3.248 1.89-4.297.718-.782 1.035-1.16 1.035-2.052 0-.892-.317-1.27-1.034-2.052-1.182-1.06-1.874-2.632-1.891-4.297h2.925c0 .892.318 1.27 1.035 2.052 1.182 1.06 1.874 2.633 1.89 4.297-.016 1.665-.709 3.236-1.89 4.297-.717.783-1.035 1.16-1.035 2.052 0 .893.318 1.27 1.035 2.053 1.182 1.06 1.874 2.632 1.89 4.297ZM74.977 19.048H72.05c0-.892-.317-1.27-1.034-2.052-1.196-1.05-1.891-2.629-1.891-4.298 0-1.668.695-3.248 1.891-4.297.717-.782 1.034-1.16 1.034-2.052 0-.892-.317-1.27-1.034-2.052-1.182-1.06-1.874-2.632-1.891-4.297h2.925c0 .892.318 1.27 1.035 2.052 1.182 1.06 1.874 2.633 1.89 4.297-.016 1.665-.708 3.236-1.89 4.297-.717.783-1.034 1.16-1.034 2.052 0 .893.317 1.27 1.034 2.053 1.182 1.06 1.874 2.632 1.89 4.297ZM36.946 33.333H82.29v3.175H36.946v-3.175Z" fill="#424B25"/></svg>