<svg width="431" height="614" fill="none" xmlns="http://www.w3.org/2000/svg"><g clip-path="url(#a)" fill="#BFD3B6" fill-opacity=".6"><path fill-rule="evenodd" clip-rule="evenodd" d="M419.766 244.441c-1.909 2.274 2.35.22 0 0ZM423.07 262.336c-.22-.807.514-1.1 0-2.053-1.028.366-1.982.513-2.643.22.073 2.126 1.542 1.613 2.643 1.833ZM417.93 265.416c1.322 3.374 8.077.147 4.7-2.273 0 1.54-3.378 1.393-4.7 2.273ZM393.994 187.75c-.587 1.1.587 3.007 0 4.107 2.717-.147 2.056-4.621 0-4.107ZM338.339 216.499c1.468-1.687-.074-2.42-.808-4.474-2.129.073-1.542 5.501.808 4.474Z"/><path fill-rule="evenodd" clip-rule="evenodd" d="M333.199 213.492c-.073 4.18 1.689 9.314 3.451 14.448 1.836-1.247 3.745-2.567 3.084-5.134-4.626 1.76-2.57-9.828-6.535-9.314ZM307.5 179.242c.368 2.64 2.644 1.467 2.864 4.474 2.423-1.76 3.304 1.98 6.535 1.247-2.276-3.741-5.874-4.694-9.399-5.721ZM289.071 109.936c-1.909.587-1.175 2.42-.587 4.254 1.909-.587 1.174-2.42.587-4.254ZM326.517 232.047c-.881 1.98-5.36 2.053-4.478 4.914 2.863-.954 5.8-1.834 4.478-4.914ZM325.049 229.773c-1.909.074-1.322 1.394-2.864 1.614-1.248-2.2-1.688-2.934-1.028-5.061-3.671.514-3.524-6.527-5.286-9.754-1.836.954-2.35-1.54-3.231.44 3.892 3.74 4.846 10.781 8.371 16.942 3.01-.587 4.405-1.981 4.038-4.181ZM349.352 308.687c.661-1.247-.22-2.934-2.056-2.054.514 1.1 1.102 1.907 2.056 2.054ZM344.286 309.714c-.074-2.714 2.276-8.655-1.248-9.755-.294 2.494-1.175 9.094 1.248 9.755ZM352.069 322.768c-.294-.807-.514-1.613-.808-2.42-2.57.22-1.395 3.667.808 2.42ZM300.525 197.137c1.248 2.2 2.35 4.84 5.287 3.667-1.175-2.347-2.79-3.887-5.287-3.667ZM289.511 174.328c2.864-.586 3.965 2.347 6.315 2.641.808-2.494-5.654-6.014-6.315-2.641ZM270.274 108.689c.221.587.441 1.247.588 1.834.587-.22 1.248-.44 1.835-.587-.293-1.393-1.101-1.76-2.423-1.247ZM346.709 341.47c1.689-.367 1.762-1.54 1.028-3.081-1.615.367-1.689 1.541-1.028 3.081ZM295.826 193.323c.367 1.687 1.542 1.761 3.084 1.027-.367-1.687-1.542-1.76-3.084-1.027ZM310.804 244.074c-2.129-2.273-6.755-4.767-9.178-3.08 3.451.147 5.581 3.08 9.178 3.08ZM318.514 267.323c-1.909 1.247-3.744 2.567-5.507 3.887 2.644.294 6.095-1.173 5.507-3.887ZM312.42 261.163c0-5.354-10.133-7.408-15.713-8.361 5.066 3.153 10.133 6.234 15.713 8.361ZM325.269 299.739c-1.028 1.027-1.836 4.694.808 4.474-.221-1.613 1.909-4.694-.808-4.474ZM230.625 14.521c-.661-1.1-1.101-2.567-2.643-1.833.367 1.687 1.101 2.567 2.643 1.833ZM332.832 322.328c-2.423.953-1.909 3.447-1.395 5.94 1.982-1.1 2.423-4.913 1.395-5.94ZM236.206 43.27c-2.13.807-2.791 6.014 0 6.088-.588-2.2 1.835-4.767 0-6.088ZM333.86 349.83c2.937-1.246 2.717-4.033 3.23-6.527-1.248.367-1.321-1.393-2.863-.44-.441 2.2-2.056 3.814-.367 6.967ZM225.779 14.155c-.807.293-1.468.146-2.055 0-.221 1.686 2.055 5.72 4.478 5.28-.44-2.493-2.129-2.64-2.423-5.28ZM291.788 238.134c2.129-.953 4.846 3.3 5.286-.44-1.689.073-5.14-2.714-5.286.44ZM326.737 342.716c.808-.293 1.469-.146 2.056 0-.073-1.54 1.469-2.346 1.395-3.887-2.129-.146-3.671 1.541-3.451 3.887ZM312.42 316.241c.147.44.294.807.44 1.247.441-.147.808-.294 1.249-.44-.147-.44-.294-.807-.441-1.247-.44.146-.808.293-1.248.44ZM220.052 43.93c.294.807.514 1.614.808 2.42 2.57-.366 1.175-3.226-.808-2.42ZM289.952 250.968a17.458 17.458 0 0 1-.587-1.833c-2.056.073-3.525-1.1-5.728-.807 1.396 2.347 3.378 3.447 6.315 2.64ZM305.885 304.8c.588-.22 1.248-.44 1.836-.587-.441-1.1-1.102-1.907-2.056-2.053.147.88-.441 1.466.22 2.64ZM282.61 233.074c-1.836.953-1.983-1.394-4.112 0 .367 1.466 5.066 2.42 4.112 0ZM208.011 18.041c-5.874 1.907-3.451 7.408-3.892 10.781 2.203-3.153 2.864-7.04 3.892-10.78ZM300.819 303.773c.294 1.467.881 2.274 2.056 2.054-.294-1.467-.955-2.274-2.056-2.054ZM217.556 57.058s0-.073.073-.146c-.073.073-.073.146-.073.146ZM217.555 57.058c-.072.073-.072.073 0 0ZM316.532 354.964c-1.909.734-3.525 1.614-2.864 3.667 1.248.44 4.039-1.393 2.864-3.667ZM202.871 19.068c-3.451 1.54-3.525 4.694-2.643 8.361.587-2.787 4.258-6.234 2.643-8.36ZM231.139 113.603c1.542.734 3.818-1.1 3.084-3.08-2.35.44-3.01 1.613-3.084 3.08ZM300.378 308.687c.294-.734-.954-1.614-1.248-1.614-2.57-.073.588 3.154 1.248 1.614ZM204.707 32.71c-1.175-.587-2.644-.074-1.395 1.833 1.028-.367 1.395-1.027 1.395-1.834ZM211.241 58.378c1.836-.293 1.395-5.94-1.028-5.06-1.174.88.955 3.447 1.028 5.06ZM224.751 108.909c1.102 1.907 2.13 2.274-.587 2.274 1.542 1.32 1.836 5.134 4.699 3.887-2.716-1.54 1.322-7.774-4.112-6.161ZM294.651 309.934c-1.395.366-1.762 1.173-1.248 2.42 1.395-.294 1.836-1.174 1.248-2.42ZM199.861 36.377c1.688 5.5-.294 21.415 7.342 26.108-3.598-7.26-2.57-19.215-7.342-26.108ZM289.144 315.801c-.367-.22-.146-.734-.807-.44-2.643 1.32 4.699 2.42.807.44ZM295.312 336.189c-.22-.807.514-1.1 0-2.053-10.426 5.207-14.318 6.454-25.698 10.634 3.597 2.273 20.191-5.941 25.698-8.581ZM265.281 256.542c-1.174-3.813-4.332-3.593-7.782-2.86 2.276 1.54 4.919 2.42 7.782 2.86ZM281.802 306.047c-3.524.733-10.426 3.887-12.629 6.967 4.993-1.98 11.454-3.154 12.629-6.967ZM282.096 392.294c8.957-.147 14.391-4.84 23.495-9.167-1.395-1.761 1.836-1.1.441-2.861-6.241 1.54-11.674 5.794-16.961 8.361-2.496 1.174-6.755.367-6.975 3.667ZM285.326 320.494c-4.112 3.741-16.227 3.447-17.548 8.581 5.8-.44 15.859-4.767 17.768-5.94-.44-1.027-.513-1.907-.22-2.641ZM204.78 85.734c.147-.367-.294.514 0 0ZM293.256 379.02c3.524-1.101 7.122-2.201 6.315-5.501-3.231 1.247-6.095 2.714-6.315 5.501ZM223.797 185.403c1.028-.367 2.056-.66 3.084-1.027a17.558 17.558 0 0 1-.588-1.834c-1.835.441-3.451 1.027-2.496 2.861ZM235.838 233.734c.294.806.147 1.466 0 2.053 1.983.514 4.332.147 6.315.587-.147-1.247 1.395-1.687.22-3.447-2.57.953-3.818-.513-6.535.807ZM225.853 187.456c-1.028.367-1.983.514-2.644.22.294.807.514 1.614.808 2.421 1.615-.367 2.57-1.101 1.836-2.641ZM226.073 192.15c-.587.22-1.248.44-1.836.587.221.586.441 1.247.588 1.833 1.395-.366 1.762-1.173 1.248-2.42ZM223.356 204.544c1.175.807 4.186.734 5.067-1.026-.074-2.861-5.581-.807-5.067 1.026ZM280.627 388.04c2.497.44 3.818-1.026 4.479-2.86-1.689-.733-4.405 1.173-4.479 2.86ZM243.621 279.351c.588.22 4.553-.734 3.892-2.64-2.13-.22-3.965.513-3.892 2.64ZM257.939 346.603c-.367-1.686-1.542-1.76-3.084-1.026.367 1.686 1.542 1.76 3.084 1.026ZM212.122 238.281c0-.074.074-.074.074-.147v.073l-.074.074ZM152.061 80.82c-.293-4.84-3.083-11.294-5.139-17.308-1.836-5.574-2.57-13.568-7.783-15.108 2.496 10.781 8.59 21.049 12.922 32.416ZM206.909 254.929c1.616-.587 1.542.587 2.423-.807-.293-2.567-3.744-1.393-2.423.807ZM141.488 75.54c-.293-.44-.44-1.174-1.028-1.027.294.44.441 1.173 1.028 1.027ZM223.283 332.376c1.395-.367 1.762-1.174 1.248-2.421-1.395.294-1.836 1.1-1.248 2.421ZM157.862 161.127c-.147-4.693-4.993-8.287-8.15-10.194.808 3.374 5.14 7.847 8.15 10.194ZM133.338 91.821c.294-2.347-1.028-5.5-4.111-4.107 1.248 1.76 1.615 5.06 4.111 4.107ZM232.901 393.761c-.514-1.1.221-1.614-.22-2.64-1.175.22-4.552-.22-4.919 1.613.734-.147.954.733 1.248 1.614 1.689-1.027 2.129.44 3.891-.587ZM139.506 138.759c-.808-3.081-2.423-4.694-4.479-5.281-.514 2.2 1.909 5.867 4.479 5.281ZM128.859 127.318c.881-2.861-2.349-6.161-4.699-5.941 1.248 2.714 2.056 6.161 4.699 5.941ZM121.737 118.15c-1.028-3.08-2.423-5.354-4.699-5.94 1.175 2.787 1.836 6.6 4.699 5.94ZM132.751 155.26c-1.248-2.567-2.937-4.327-5.507-4.254 1.689 1.687 2.57 4.987 5.507 4.254ZM116.377 110.45c-4.552-6.528-8.444-14.448-13.877-19.142 2.57 6.38 7.783 16.355 13.877 19.142ZM100.297 127.318c-1.909-3.667-4.92-5.134-8.15-6.088 2.203 2.934 4.259 6.308 8.15 6.088ZM83.336 115.29c-4.625-3.52-9.03-13.935-16.153-15.695.808 6.014 7.342 9.021 11.454 11.808-.66 1.027 3.892 5.794 4.7 3.887ZM109.696 230.873c1.174-.953 3.23-1.466 3.083-3.08-2.055-.953-2.716 1.687-3.083 3.08ZM128.345 286.538c1.395-.367 1.762-1.173 1.248-2.42-1.395.293-1.835 1.173-1.248 2.42ZM126.51 281.038c.147.44.293.806.44 1.246 1.836.441 1.102-2.713 0-2.053 0 .367.074.733-.44.807ZM122.985 286.978c1.542.734.955-.733 3.084-1.026-.734-2.934-3.377-.734-3.084 1.026ZM101.179 243.928c2.423.807 3.23-2.567 5.727-3.3a17.558 17.558 0 0 1-.588-1.834c-2.643 1.32-5.433 2.494-5.139 5.134ZM91.56 217.232c-1.689.367-1.762 1.54-1.028 3.08 1.689-.366 1.689-1.54 1.028-3.08ZM77.683 185.843c-1.102-3.154-.808-6.601-4.259-6.748 1.175 2.641 1.248 7.554 4.259 6.748ZM64.54 158.927c.293 2.2 1.762 1.907 3.23 1.614-.22-.587-.44-1.247-.587-1.834-1.101.587-1.542-.22-2.643.22ZM71.956 187.09c.147-2.641-2.056-.587-2.276-2.641-2.13.44-.074 3.007-3.084 3.081.293 1.1.807 1.833 1.395 2.273 1.982-.66 1.175-2.567 3.965-2.713ZM71.295 189.363c-.22 1.907-1.762 5.06 1.248 5.721-1.101-1.981 1.542-4.621-1.248-5.721ZM72.176 195.89c-.66 1.394.734 3.741 2.864 2.42-.368-2.053-1.616-2.273-2.864-2.42ZM58.225 164.501c-.807.22-1.101-.513-2.056 0 .147.44.294.807.441 1.247.808-.22 1.101.513 2.056 0-.147-.44-.294-.88-.44-1.247ZM70.34 212.758c.147-.293-.294.587 0 0ZM93.102 427.424c-2.13 1.173-2.497 7.334-.22 7.554 1.615-1.76.146-4.987.22-7.554ZM81.868 491.669c.808-.293 1.615-.513 2.423-.806-.367-1.027-.66-2.054-1.028-3.081-2.35.367-1.91 2.054-1.395 3.887ZM55.142 462.553c.146-.366-.294.514 0 0ZM43.687 485.362c.367-3.227-.587-6.967-2.643-9.974 1.248 2.934-1.248 9.021 2.643 9.974ZM115.349 547.114c3.598-2.713 11.822-4.62 16.961-6.307 2.13-.733 4.112-1.394 6.021-2.127.514-1.32 1.101-2.713 1.762-3.96-6.535 1.613-12.702 2.42-17.989 1.98-1.468.293-.073 1.98-1.248 2.42-2.423 1.1 0-1.687-2.056-2.053-5.727 2.346-6.241 10.121-11.013 9.827.073 1.907 1.395 1.32 1.615 2.86-1.101 1.174-1.983 2.421-4.479 2.861-.661.66.881 1.54.441 3.227-5.8 5.94-8.297 16.941-12.262 24.495-.881 1.687-2.423 3.887-5.948 4.694.955 2.127 2.203.953 1.836 3.447-3.45 1.687-.44 6.6-5.727 7.334 3.671 4.033-2.35 6.747-3.451 9.974 3.304 0-.881 2.713-2.056 4.107.734.66 1.028 1.54 1.028 2.493.147.074.22.074.367.147 1.102.44 2.203.954 3.304 1.394.147-1.247.367-2.567.734-3.814 1.763-5.28 28.783-60.359 32.16-62.999Z"/><path d="M67.403 607.546c1.69.807 3.451 1.54 5.213 2.274-1.541-10.048 4.773-19.729 7.93-28.676-1.689-1.76-1.321 2.567-3.084 1.026-.587-2.273.074-2.64-1.395-4.253 1.322-2.347 2.644 1.54 4.92.44-.808-1.834-2.276-2.274-3.23-3.667-8.738-32.343-14.319-69.893-12.483-98.495 3.671 31.316 3.451 60.358 15.346 92.774 1.762.514 3.524-.513 2.863 2.421 4.259-1.101 1.983-4.474 5.948-4.694-1.542-2.42 3.597-4.694 3.45-7.921-1.982-1.173-1.1 2.2-3.083 1.027-1.69-2.2.66-2.347 0-4.107 2.129 1.247 4.111 2.64 6.534 3.227.882-2.2-3.524-2.347-3.891-5.501 1.762 1.32 4.772 0 6.535 1.247-.074-1.833-3.525-4.62-.22-6.747-1.102-1.614-1.836 1.027-3.084 1.027.073-3.814 3.818-2.127 5.727-1.247 1.395-2.054-3.965-2.86-2.423-5.281 2.79-1.466 3.524 1.174 4.919 2.421 2.276-1.687-1.982-2.934-2.423-5.281.734-.66 1.175-1.467 1.248-2.42 1.689 0 2.644 1.467 4.112 2.053.808-1.1-2.423-2.566-2.863-4.473.587-.88 2.055-1.32 1.835-2.641 1.983.367 1.175 3.081 4.259 2.641 1.175-1.027-.367-5.207 3.23-4.474-.367-1.76.221-4.18 1.249-6.527.734.22 1.101 1.173 2.276.586.734-1.173-2.423-1.98-.588-3.887 1.763-1.173 1.542 1.761 3.084 1.027-1.028-2.713-1.762-2.787-1.028-5.06 1.909-2.2 2.79.293 4.92.44-1.028-2.714-3.745-2.054-4.479-5.281 2.056-.146.587-2.053 2.643-2.273 1.101 1.173 2.276 2.2 3.671 2.86 1.469-2.053-2.202-2.273-2.276-4.694.734-.146 1.028-.513 1.028-1.026 1.909-1.174 1.762 1.906 3.304 1.613 0-1.613-2.349-5.427 1.248-6.527.881.587 1.322 2.053 2.277 2.64 1.248-2.42-3.305-4.914-1.028-7.114 2.129-1.247 2.129 1.907 3.891 1.394 1.322-1.687-2.423-1.981-2.276-4.694 1.762-1.834 2.203-.22 4.112 0-.881-2.64-1.836-2.494-.808-4.474 1.762-.44 2.35 1.467 3.892 1.394-.441-1.834-1.175-3.081-2.423-3.227.587-1.981 2.643-3.667 4.699-2.274-.514-1.907-2.57-3.007-1.616-4.914-.807-2.127-1.615 1.98-2.056 0-.514-4.62 3.819-.073 5.948-.586 1.101-3.007-6.241-3.741-3.671-6.894 2.423-.074 3.891 1.687 6.094 2.053-.734-1.76-2.57-5.867 2.276-5.5-2.35-1.32-2.643-6.087.808-5.721-1.616-1.613-1.542-3.3-1.028-5.06-1.909-1.027-.808 1.32-2.864 1.613-.881-3.007 2.937-2.053 3.671-3.3-.22-3.007-3.671.513-3.671-2.86 2.276-.44 3.524.586 5.14-1.027-.147-3.52-4.259.953-4.699-1.834-.074-2.2 3.377-.586 3.671-3.3-1.248-1.833-1.248.074-3.231.44-.514-3.08.367-2.273 2.864-3.667 1.762 1.174-.294 5.867 2.863 6.527 3.084-1.906 2.644-2.053 6.095-2.053 1.248-1.32-1.836-2.42-2.056-4.107 1.615-1.173 1.688-1.174 3.671-1.247 1.321-.513-.588-2.713-.588-3.887 1.102-.44 1.542.294 2.644-.22-.808-1.98-.294-4.034.587-6.307 1.028 0 1.836.367 2.864.44 1.101-1.834-2.35-1.834-1.249-3.667l3.084-1.027c-.293-1.1-1.175-1.027-1.395-2.273 1.469-1.687 1.762-1.54 3.231-2.421-2.35-2.713.294-2.86.22-5.5 1.028-.073 1.175 1.76 2.864.44 1.688-1.613-1.762-1.1-1.616-2.86.735-2.274 2.79-2.714 4.259-3.447-1.689-2.42-1.101-2.64-1.028-5.061 1.762-1.1 1.762 1.32 3.451.22-.073-1.833-3.157-4.473-.22-6.747.734.22 1.101 1.174 2.276.587 1.542-1.54-1.395-2.494-1.395-4.254.954-1.98 1.468.514 3.23-.44 1.396-.367-.44-2.273-.44-3.227 5.286-1.32 2.203-7.04 7.93-6.747-.294-1.467-.881-2.274-2.056-2.054.661-1.906 1.689-3.887 4.258-3.447-.807-1.906-1.027-3.08 0-6.087.735.294 1.616.22 2.644-.22-1.395-1.54-1.689-2.86-.808-4.473 1.836-.954 1.983 1.393 4.112 0-.441-1.541-1.836-1.027-2.643-1.834-.368-1.247 1.395-1.32.44-2.86 2.056-1.394 2.276.953 4.112 0 0-2.714-2.423-.587-2.423-3.227.954-1.907 2.349.44 4.479-.807-.147-2.493-2.644-.22-2.864-2.42 1.028-2.787 2.276-.807 4.92-1.614.22-2.273-4.039-.586-2.277-2.64-.807-3.08 1.763 0 3.084-1.027 1.322-2.2-3.598-1.393-2.056-4.107 6.682.514 6.315-6.16 9.178-9.167-.22 3.667-5.36 7.481-2.423 11.001-5.139 14.228-14.538 26.402-17.328 41.804-.954.513-1.248-.22-2.056 0 6.021 8.287 19.311-2.127 28.342 1.393-6.167 1.1-12.849.88-15.713 3.887-1.321.22-1.028-2.64-2.643-1.834-1.395.807-2.129 1.981-3.084 3.081-1.615.44-1.762-1.98-2.863-2.42-.734.806-1.616 1.54-1.028 3.08-.881.073-1.028-1.394-1.395-2.274-8.444 10.414-15.493 21.489-19.972 33.883-6.681 6.821-6.02 17.382-12.261 24.496-4.773 16.501-12.409 31.536-20.559 46.277-2.056 5.941-4.92 13.641-10.206 16.281 3.084 4.181-4.626 7.994.22 12.835 5.287.147 10.426-.367 15.786-1.54 1.469-2.714 3.158-5.354 4.846-7.921.147-.293.221-.513.367-.807-4.919 1.027-9.838 1.1-14.905.074 14.098-25.523 24.451-59.405 38.768-87.715 3.818-7.627 9.913-23.542 16.521-27.942 9.985-6.674 21.586-3.08 33.041-6.967 7.342 6.527 22.981 10.047 31.866 1.613 3.524-3.373 5.8-9.094 3.23-14.668-5.874-12.834-31.939-9.461-37.519 3.667-8.371 1.027-19.605 2.64-26.139 3.3 7.048-15.988 12.629-32.782 21.439-47.89 27.902 18.115 78.858 6.38 104.116-18.409-2.937 9.241-3.671 17.529-7.71 25.669-7.783 15.622-44.642 29.336-45.89 45.911 26.506 1.613 58.886-6.014 74.306-26.109 15.125-19.802 26.726-47.231 14.831-75.613 8.591 4.253 28.048 14.008 32.674 24.422.808 1.833-.661 4.84.808 6.527 5.139 6.014 16.961-2.86 10.793-10.414-2.276-2.787-3.451.733-4.259-.587-11.013-14.008-27.093-23.395-40.823-28.529 11.747 1.32 21.807 6.087 32.086 10.414 7.122 7.628 17.622 13.348 23.275 22.809 1.395 2.347.514 6.6 4.92 6.527 5.14-1.467 7.342-8.361 4.919-11.808-1.468-2.126-3.084-.806-5.507-2.273-3.964-2.347-6.02-7.261-8.59-9.388 3.671-1.32 4.185-6.6 6.535-6.967 3.304 1.76 5.727 3.961 7.636 6.967 1.395 2.201.147 7.628 3.597 8.288 13.878 2.86 12.923-25.082-.587-14.081-.881-2.934-3.745-1.981-4.919-4.474 5.066-2.787 4.992-8.067 3.451-14.081 19.163-3.814 12.261-34.47-.221-45.471 1.175.66 3.598.953 4.479-.807 3.084-6.16.734-17.895-5.507-22.662-6.094-12.027-9.031-12.467-14.464-10.781-2.57 3.081-.074 5.794.587 9.975-8.223 7.92-20.559 16.574-34.876 19.801 16.594-7.7 24.009-19.948 29.002-33.443 1.542 1.614 5.287 1.174 6.535-.806 3.892-6.088-6.241-17.602-12.629-13.421-4.038 2.64.808 9.827 0 14.301-1.028 6.014-8.223 14.814-14.905 20.608-8.077 7.041-15.199 11.368-26.506 14.301 11.895-9.094 23.128-19.801 27.754-31.022 2.497 0 4.699.733 5.507-1.834 2.203-7.04-8.884-17.968-14.318-12.247-2.496 2.64.367 6.673 2.423 9.387-3.965 12.248-13.216 21.929-25.331 30.216.147-3.814 1.615-7.994.22-11.588-3.965-10.414-6.975-17.455-12.482-25.082-2.643-3.667-8.37-9.387-12.042-11.588-4.405-2.713-15.859-8.507-20.411-10.194-15.787-5.72-37.447 8.141-49.415 17.162-8.297 6.307-12.996 8.947-10.426 19.801 11.454 8.288 38.474-8.067 50.002-7.187 13.29 4.401 19.163 28.603 24.523 42.831-23.789-15.768-52.938-27.796-86.787-17.309-1.248-3.74 3.157-32.416 4.332-35.936 1.395-4.107 5.213-9.388 12.188-18.555 4.479-5.941 9.472-10.928 13.437-16.721 11.821 1.54 21.513-9.388 25.699-18.775-.221-2.714-4.186-.734-3.084-3.081 12.335-8.434 24.597-19.215 19.751-34.47-4.332-2.566-7.93-6.527-12.482-8.727-8.664-.367-15.713 2.567-21.22 9.828-2.056 7.847-3.891 15.694-5.874 23.542.074-1.614-1.615-2.86-2.863-2.934-5.727 7.628-15.787 17.528-6.535 29.336-7.563 9.608-14.832 19.142-23.276 26.109-.367-13.861-3.304-31.463-4.478-44.004 2.055-1.1 3.01-1.173 5.947-2.64 9.472-8.654 8.737-23.762 13.657-34.47 1.175-2.493 4.626-4.327 3.671-7.334-7.489 1.394-13.216 10.708-16.3 14.302.073-14.448 5.8-29.85 9.545-48.698 2.937-14.668 2.496-38.65-11.454-46.497-2.056-1.174-4.773-.587-7.93-1.394-2.717-.66-4.993-2.713-7.563-2.273-4.699.88-5.947 3.887-11.013 5.72-33.555 12.028 4.552 74.293 2.863 83.974-3.818-2.86-6.534-8.067-12.041-7.554 5.653 15.401-3.672 31.463 8.811 42.61 3.157 2.861 7.489 4.034 11.013 6.528 4.846 29.922 4.699 57.425 1.248 83.167-12.041-5.501-20.338-18.482-28.782-31.169 3.231-11.295 2.79-24.423-1.689-39.531-2.643.807-2.496 3.007-4.111 2.054-4.993-16.868-17.916-45.837-23.129-67.032-1.689-6.821-.147-14.302-1.836-19.802-2.496-8.14-10.94-17.748-17.768-16.502-4.259.807-4.846 6.674-8.958 9.755-1.028-1.247-2.717-3.374-4.919-4.474-12.629-6.454-22.028-.44-23.276 13.861-8.59-1.027-8.81 9.68-10.426 7.554-3.525-4.694-10.94-.733-16.3 0-3.965 4.474-2.644 13.715-1.028 19.362-4.259.88-11.895 3.96-12.556 4.18.294.807.294 24.495 42.733 45.177 9.839 4.841 18.87 17.528 31.132 28.016 6.021 19.142 25.992 22.809 41.631 22.809 11.748 15.988 25.332 28.309 38.768 40.777-6.461 5.133-14.317 5.573-17.988 11.441-3.378 5.353-1.102 10.854-3.084 17.308 5.433 6.16 13.657 6.747 22.027 6.894-.808 17.235-4.332 33.149-7.342 49.357-8.518-7.7-17.622-26.402-22.248-38.136 4.405-8.654 4.626-21.196-3.891-27.943-5.14-4.033-9.619-9.167-16.741-7.334-17.549 4.474-5.066 36.89 8.811 38.504 6.828 15.768 18.87 30.876 28.782 47.524-.954 4.473-3.598 8.067-3.084 13.274-8.444 14.595-12.555 33.296-20.559 48.331-1.468 2.714-5.506 5.134-7.342 8.581-3.965 7.26-6.388 15.841-9.765 23.689-3.305 7.48-6.315 15.181-11.234 21.415-4.993-30.363-8.077-61.679-11.895-92.555-2.496-20.315-8.738-40.117-4.552-58.305 13.363-7.407 16.373-28.236 7.342-45.251-5.8 3.081-8.444 10.415-11.234 13.275-13.95-23.542-14.464-57.205-24.744-78.107-1.909-3.814-7.489-12.834-7.563-12.981-13.29-21.929-31.058-18.188-38.4-14.741-6.094 2.933-11.601 9.094-13.217 11.294-8.003 12.908 13.95 52.585 14.098 52.511 13.583 20.609 36.565 29.043 46.991 55.005-4.846-3.227-8.59-8.727-15.125-8.581-.294 2.787 1.468 5.354 2.423 7.334 2.937 6.014 6.021 11.881 10.646 15.475 3.965 3.08 11.748 4.18 14.098 7.554 1.468 2.053.734 7.261 1.248 11.808.441 3.96 1.689 8.287 2.276 12.834 1.542 11.881 3.525 18.628 5.507 32.856 2.056 14.962 12.409 87.054 10.279 101.942-.367 2.347-4.625 20.169-5.506 22.222-5.728 13.641-14.318 27.136-22.835 41.584-9.325 15.768-20.192 30.656-27.094 40.997-.147-6.601 1.175-20.022 3.23-28.969 2.864-12.395 9.987-20.609 6.536-37.55-1.028-4.987-3.892-10.268-4.112-16.282-.22-6.454 3.671-13.201 6.094-20.388 8.224-24.496 11.307-57.132 2.203-89.108-3.525-12.321-10.794-25.302-16.961-36.45-7.71-14.008-18.65-27.502-28.415-40.117-3.084-4.033-17.916-30.802-27.388-33.002C18.87 300.179-3.158 340.296.367 386.28c2.423 31.17 16.3 61.239 30.25 90.501 7.71 16.135 6.976 33.883 13.731 49.138 7.563 17.088 21.367 30.803 29.443 47.304-4.258 6.894-9.545 24.202-11.013 26.109-.44-.733-.955-1.467-1.469-2.274a22.826 22.826 0 0 1-1.542 5.281c0 .073-.073.147-.073.22-.074.22-.074.367-.147.587.954-.294 1.982-.807 2.423-.22.22.733-.147 1.1-.66 1.466 1.1.587 2.128 1.174 3.23 1.761-.22-.367-.367-.734-.588-1.174 1.322.073 2.864 1.247 3.451 2.567Zm19.017-41.29c-1.175.733-1.468-.514-1.835-1.394.514-.073.807.44 1.395.22l.44 1.174Zm2.056-6.087c.808 1.906.22 3.153-1.395 3.887-1.028-1.981-1.028-3.521 1.395-3.887Zm143.618-158.708c0-1.54 3.377-1.466 3.451.221-1.249.146-1.983-.807-3.451-.221Zm4.625-.146c-1.468-.587 2.791-.294 3.451-1.834-.367-1.687-1.541-1.76-3.083-1.026 2.129-2.347 3.597-.587 7.342-2.421 1.542.514-4.479 1.467-1.248 4.474-2.35.733-4.626 1.174-6.462.807Zm-8.957-14.741c7.489-6.821 18.429-2.934 24.083.806 1.689 6.454-.441 12.541-7.93 12.835.147-1.76 4.846-1.32 5.066-3.081-3.01-2.786 0-1.833.441-4.913-7.049.806-19.09 4.767-25.478 1.026 3.377-3.813 11.527-4.62 17.328-5.133l.807 2.42c3.378.147 2.717-1.614 3.451-3.887-4.699-2.42-11.454-.807-17.768-.073Zm167.113-59.772c.661-3.374-1.835-3.814-4.112-2.054-1.541-3.3 1.909-4.107 4.259-5.5 1.469 3.373 2.79 5.5-.147 7.554Zm-.22-133.112c-2.937-1.98-1.395-3.887-2.423-7.334 5.947-2.42 8.003 3.08 11.014 6.527-2.277 1.467-4.332-.66-8.591.807ZM227.395 6.82c-.588.147-.735-.586-1.028-1.026.587-.22.734.587 1.028 1.027Zm-18.797 2.86c-.147-.733.514-.513.587-.22 2.57-3.74 8.518-8.213 12.85-4.253-1.322 3.3-4.699 2.42-7.122 5.134-1.175-3.74-4.186 1.76-6.315-.66Zm.073 73.34c1.396-.366 1.102 2.494 1.836 3.448-1.395.44-1.175-2.494-1.836-3.448Zm-2.496-15.474c-2.276 3.3 3.818 10.707 2.864 14.668-9.105-20.389-21.734-53.171-4.92-69.746 3.965-.074 4.406 2.2 7.93 1.393.587 4.034-1.689 6.6-3.671 9.388-.808 8.947-1.983 20.388.22 29.189 2.423-5.72-1.395-14.595 3.892-18.995-.735-3.227-2.203.733-2.644-1.834-.147-1.76 2.937-1.98 3.671-3.3-.514-1.027-1.541-1.027-2.863-.44-.074-2.787 3.671-.513 6.094-2.053-.881-1.907-3.524-.514-5.507-.22.221-4.328 3.672-4.108 7.93-4.694-.367-2.274-2.423-1.247-4.258-.587.954-3.814 3.23-1.173 6.314-1.393 8.444 17.748 3.671 33.002 4.699 48.697 2.423-1.687 1.689-4.914.588-8.36 2.716-12.468 4.405-33.003-6.168-44.885 2.203-2.786 3.891-5.867 8.37-7.553 3.231 1.613 5.36 3.447 6.976 6.527 13.289 25.009-1.983 47.89-4.259 66.666-.22.586-1.101.806-1.395 1.32 0 .366.073.806.147 1.1-.367-.514-.294-.88-.147-1.1-.22-3.594 2.717-8.581 3.01-12.761-4.919 4.327-4.846 11.147-5.727 17.528-4.185-3.3-4.846-6.16-5.286-11.808-3.672 1.1.954 6.234-2.277 7.554.221-7.187-.22-14.741-1.468-22.662-2.643 7.994 1.322 13.861-2.203 21.782 3.671 2.42 1.689 5.72.808 8.58-3.965-4.84-.881-13.347-4.699-18.114-1.102 4.18 1.762 10.487 1.615 17.088-2.643-5.354-2.57-16.281-7.636-20.975Zm5.287 22.002c-.808.806 1.174 2.933-1.028 3.08.881-.807-1.102-2.934 1.028-3.08Zm-11.014 5.72c.587-.147.734.587 1.028 1.027-.588.22-.734-.587-1.028-1.027Zm2.717 16.135c.587-.147.734.587 1.028 1.027-.661.146-.735-.587-1.028-1.027Zm17.107 12.614c-1.101-.513-1.982.22-2.276 1.394-2.056 0 .147-1.834-.22-2.64-3.157 1.76-.514-3.227-4.112-2.054-.22-1.98-.22-3.814 1.836-4.694-.294-1.026-.955-1.466-1.836-1.393-2.496 1.32-1.542 4.327-4.258 5.5.587-2.567 2.349-4.62 2.276-7.554-1.175-.88-2.717 2.347-2.864 3.667-3.451-2.933.588-6.454 1.028-9.167-2.129-1.32-2.716 2.347-3.671 3.3-3.671-1.54 2.496-5.94 2.423-8.947-.294-.44-.808-.44-1.028-1.027-2.496 2.127-3.965 4.84-4.919 7.774-1.322-2.347 2.57-6.527 3.671-9.388-2.129-1.833-2.203-2.786-1.028-5.06 7.416 5.354 3.084 18.115 11.454 19.948-2.423-5.647 1.615-10.34-.44-13.421.954-1.613 1.688-3.227 3.23-4.473-.147-1.1-.881-1.027-1.615-.807.514-3.3 3.671-5.28 6.314-7.554 3.965 9.094 1.175 15.988 5.507 22.662.294-.44 1.028-3.08 2.276-1.394 1.836-6.087 4.993-9.314 8.591-15.108-.587 8.068-3.818 19.142-8.738 26.696-1.835 0 1.249-1.687-.44-3.227-3.451 3.887-8.15 7.187-10.426 11.661-2.937-.22-1.102-3.373-.735-4.694Zm3.084 45.911c-.587-3.227 1.469-5.06 2.276-7.554-.514-1.027-1.541-1.027-2.863-.44-1.322-2.053 2.57-1.467 1.615-3.227-.147-1.76-1.689-.733-2.423-1.247.221-2.567 3.818-4.253 0-6.087 1.469-.293 2.276-.88 2.056-2.053-4.112-2.641.147-7.848-2.276-8.801-2.57-.294.734-1.394.661-2.127 2.937 8.947 2.937 20.755 4.038 30.509l-3.084 1.027Zm-.367 4.84c-1.101-1.54.367-1.906-.44-3.226.807-.074 3.157 1.686 3.23-.441 1.983-.073.294 2.127 1.028 3.081-1.395.513-2.129-.44-3.818.586Zm-84.144-129.59c5.947-1.54 13.51 11.367 14.685 17.527 5.36 27.576 14.024 58.525 26.139 88.448-3.892-6.087-6.241-11.001-8.811-18.115-2.276 5.794 5.433 13.861 6.168 20.389-3.084-3.301-4.993-9.095-7.343-13.862-1.615 3.447 2.056 7.921 3.304 11.808-14.685-22.589-23.422-55.518-41.484-75.173-2.13-7.7-2.644-16.868.587-22.662 1.028-1.834 5.801-8.14 6.755-8.36Zm33.702 109.055c-.074-.733 1.101-.806.807-1.613.735-.147.882.953 1.249 1.613-.955.514-1.249-.22-2.056 0Zm-45.156-94.388c-3.011-1.1-3.598-7.04-5.947-9.607 2.202-.734 5.653 6.014 5.947 9.607Zm-7.122-11.22c.293 5.646 4.479 11.147 6.314 16.94-3.304-2.2-3.965-9.68-7.342-11.807 1.762 7.627 5.727 14.374 8.59 19.582-4.478-3.887-8.957-11.515-11.454-17.969-3.01 2.86 2.79 7.701 3.892 11.588-4.332-3.227-6.315-11.148-9.986-15.695-.881 5.134 5.58 12.322 8.003 17.749-1.395-.88-10.279-11.295-10.646-15.475-.588-7.114 6.755-5.647 12.629-4.914Zm3.01 23.468c-1.542.147-3.304-1.54-2.423-3.227 1.248.22 1.542 2.347 2.423 3.227Zm-18.723-11.441c.514-.074.808.44 1.395.22l.441 1.247c-1.249.733-1.469-.514-1.836-1.467Zm.954-5.06c2.864 1.1 3.965 5.573 5.728 8.947-2.35-1.614-6.388-5.354-5.728-8.948ZM91.854 77.812c-3.231-1.686-5.948-5.207-7.343-7.774 3.671.22 4.773 5.427 7.343 7.774Zm-12.85 10.415c-5.066.22-4.772-12.688-2.863-16.722 2.276-.44 4.258-.44 6.975-1.613 2.056 6.087 6.461 7.407 8.59 13.42-3.744-3.373-7.195-7.333-10.205-12.247-.44 6.6 8.15 12.028 11.454 17.968-4.773-3.447-7.93-9.9-12.629-13.42-.147 5.06 6.168 8.58 9.839 13.054 3.304 4.033 5.36 8.214 8.444 13.274.293.22.587.44.954.587-.367.073-.734.147-.808-.44-.073-.074-.073-.147-.146-.22-6.829-4.62-13.364-17.308-21.147-22.589-.807 4.034 7.196 7.188 8.958 12.615-2.203.366-2.643-2.934-5.286-1.614 1.542-3.007-2.276-4.987-4.259-6.747-1.175 1.247.881 4.767 2.13 4.694Zm34.143 53.171c-9.178-7.554-19.678-14.301-27.755-19.948-3.377-2.347-7.342-3.814-10.206-6.088-7.122-5.72-12.188-17.821-11.16-20.901 22.247-11.442 34.069 17.454 47.726 30.509 5.066 4.84 12.408 7.114 10.426 10.781 7.416 9.607 18.282 17.821 24.523 26.475-8.296-6.6-14.978-16.208-24.083-21.195 7.416 9.681 18.723 17.015 24.891 25.669-3.451-2.64-6.461-6.087-10.206-8.141.661 4.987 7.343 6.308 9.766 11.001-13.437-4.987-21.22-17.748-33.922-28.162Zm38.621 27.942c.734-1.466-.808-3.52-2.056-4.107 1.175-1.907 3.084 3.374 4.699 3.887.073 1.98-1.395-1.1-2.643.22Zm-47.432-64.392c-6.388-10.12-11.528-19.288-9.178-31.61 1.542-8.14 2.276-9.314 11.601-7.92 9.765 7.7 21.44 11.22 29.81 22.002 13.437 17.308 18.062 44.004 32.894 63.805-2.937.367-6.388-6.967-8.591-11.441-.147 4.988 2.35 9.681 0 14.302-8.076-12.468-15.933-25.303-24.89-35.863 4.919 17.381 24.156 32.049 26.726 51.557-1.909.734-2.57-.953-4.699.22-14.098-20.901-38.548-41.143-53.673-65.052Zm42.879 69.233c1.469-2.86 2.644 3.52 4.479 3.227-1.174 2.42-3.23-2.127-4.479-3.227Zm9.399 1.687c-1.322.513-1.028-2.054-1.616-2.861 1.542-1.026 1.616.807 2.864.44.294 1.1-1.909 1.027-1.248 2.421Zm2.056-2.054c2.129.147 2.569 1.1 1.615 2.86-1.248.514-.955-2.127-1.615-2.86Zm-5.287 2.42c2.276 0 .661 1.834 2.423 3.227-1.542.514-1.909-1.613-2.423-3.227Zm4.259 2.64c.734-.146.881.954 1.248 1.614-.734.147-.881-.88-1.248-1.614Zm18.209-2.64c-.661-2.053-3.231-.293-4.479-1.247 1.542-.22 2.423-2.86-.441-3.226-.293-1.174 1.909-1.101 1.249-2.421-.514-1.76-2.277-.953-3.231-1.613.073-6.161-3.157-7.261-4.919-14.668 5.36 4.327 18.502 13.054 13.877 21.195 2.056 1.907-.588 1.32.587 3.887-2.276 1.174-3.01-.807-5.286.44-.882-1.687 3.451-.733 2.643-2.347Zm-6.388 3.447.44 1.247c-1.174.733-1.468-.513-1.835-1.393.514-.074.808.366 1.395.146Zm-6.682 2.274c.735-.147.881.953 1.249 1.613-.808.147-.955-.953-1.249-1.613Zm21.22-3.667c0-.074 0-.074.073-.147-.22-.66-1.028-2.86-2.276-4.547-.44.073-.734.22-.881.44.808-2.64 3.745-8.141.661-11.294-.073-.88 1.395-1.027 2.276-1.394 0-2.787-1.982-1.466-2.423-3.227 2.056-1.173 1.762-3.52 3.084-5.133 1.101 7.187 2.79 18.408-.367 25.155-.074.22-.074.293-.147.147Zm-22.835 72.166c.587-.147.734.587 1.028 1.027-.587.146-.734-.587-1.028-1.027Zm.441 5.281c1.468.293 2.276 4.473 1.835 5.5-2.276-.66-.294-3.447-1.835-5.5Zm1.835 7.553c.514-.073.808.441 1.395.22l.441 1.247c-1.248.66-1.469-.513-1.836-1.467Zm1.395 2.274c3.157 2.64 6.535 9.901 10.206 8.141-1.468-3.887-8.15-6.087-9.398-13.862 3.377 3.301 5.433 12.102 12.041 11.588-3.45-3.74-8.443-9.461-9.618-14.448-1.322-1.247-2.056 1.467-2.643.22-1.542-5.06-.661-8.507-2.056-12.247 11.601-3.374 25.037 14.888 21.88 28.749-3.451-8.068-5.8-17.235-12.849-22.222 2.79 6.087 11.087 18.041 8.37 25.082-7.416.513-12.849-2.86-15.933-11.001Zm176.218 97.542c-1.028 0 0-.88-.587-1.834-5.58 23.249-47.065 35.13-72.617 35.13 1.249-11.148 14.465-11.074 22.028-19.582 2.569-.513 1.982-.293 4.258-1.393 8.664-7.261 16.3-14.961 21.22-24.056 1.909-12.467 5.653-24.055 9.985-35.276 1.616 3.227-4.111 9.754-.807 13.861 1.175-2.64 1.175-5.867 1.835-8.8 1.469-.587 2.203.293 3.451.22.735-1.394-.954-2.347-2.643-1.834.147-2.494 1.983-3.96 4.479-2.86-.147-2.347-4.185-2.787-3.891-5.501 1.688-.88 2.349-2.2 2.055-4.107 1.175.44 2.937-.366 3.231 1.614-.22 2.127-1.615.733-4.112 2.053 1.175 1.394 3.158 1.174 4.699 1.834.808-3.374 2.644-5.061 1.616-9.388.881.294 1.909.294 3.23-.44-2.349 8.214 1.395 19.362-2.643 26.696 8.884-5.647 3.304-22.809 5.874-33.223 2.864-1.613 3.231 1.027 5.066-1.027 15.713 20.975 6.755 51.265-5.727 67.913Zm-8.811-60.945c0-1.027.368-1.834.441-2.861 1.615.147 3.818-.806 5.286-.44.661 1.32.661 2.347.441 3.227-2.129.074-3.524-1.173-6.168.074Zm1.028 1.026c1.542 2.274-.881 3.667-2.423 2.861-.073-1.394.147-2.641 2.423-2.861Zm37.3-2.273c7.342 4.767 15.492 10.341 19.824 18.555-3.891-.587-5.286-4.621-7.783-6.894-9.178-8.508-21.953-15.622-33.481-20.755-3.01-.074-5.874-.44-7.783-2.861-2.496.88-4.846 1.541-5.727-.806 12.849.953 24.45 6.013 34.95 12.761Zm45.376 17.528c.147 3.52.441 6.967-4.112 8.141-.147-2.494.808-2.054-.807-4.474 1.101-1.467 2.202-3.007 4.919-3.667Zm-5.727 1.173c-16.667-21.341-39.502-30.509-64.32-35.643-1.468.587-1.321-.366-.22-.586 10.133.733 19.017 4.107 29.003 5.28 8.664 5.134 17.768 9.314 25.698 15.915 2.276 6.16 11.087 8.434 9.839 15.034Zm-82.088-39.896c5.653-3.154 14.317-2.201 22.467-2.054 13.437.293 25.993 1.907 36.933 6.674 5.213 2.274 9.031 3.52 12.629 9.387.514.954-.221 1.247 0 2.054-17.916-17.455-44.422-17.968-72.029-16.061Zm2.276 4.693c3.377-2.347 9.325-1.026 13.29-1.026-3.231 1.98-9.178.586-13.29 1.026Zm-54.334-3.667c2.79-1.466 6.094-4.913 8.59-4.913-.293 1.393-1.909 2.126-2.276 3.447.441.733 1.689 0 2.644-.22 1.028-.514 1.028-1.541.44-2.861 1.102.22 2.276.294 2.643 1.834-1.321.22-1.909.733-1.395 1.833 1.249 1.394 3.158-1.1 4.259-1.393-.367 3.3.808 5.94 4.699 5.94-.147.954-.954 1.54-2.056 2.054-.147-1.394-.954-1.467-1.395-2.274-5.36 3.447-11.16-.66-16.153-3.447Zm3.304-4.473c-.661 2.2-4.846 1.1-3.671 3.227-1.102-.22-2.276-.294-2.644-1.834 3.305-.513 3.745-1.613 6.315-1.393Zm53.82-5.721c-3.084.44-6.829 1.32-8.15 0 6.167-1.173 11.821-1.247 17.768-1.833 1.469.22-5.506 1.32-9.618 1.833Zm73.865-53.831c-.661 4.914-7.049 8.287-11.822 11.441-16.373 10.707-35.243 15.108-52.865 18.995-.294-.514.073-.66.44-.807 19.384-4.62 47.726-13.935 64.247-29.629Zm.22 4.694c.734-.147.881.953 1.248 1.613-21.073 17.748-51.103 25.669-79.151 29.776 24.817-6.967 60.355-12.835 77.903-31.389Zm4.112 4.033c-.147 2.494-5.801 4.694-7.783 3.3 1.101-1.833 4.405-2.566 5.286-4.473 1.395-.66 1.322 1.467 2.497 1.173Zm-84.071 29.409c22.468-1.98 51.323-11.147 70.414-19.435.954 2.347-2.937 2.641-4.92 3.667-20.338 10.488-56.022 17.675-70.781 18.189.074-2.861 2.57-2.054 5.287-2.421Zm18.356 2.054c17.255-4.62 38.988-9.534 53.453-17.162-.441 1.321 1.689 4.181 3.084 5.061-6.168 6.6-22.688 11.001-30.618 10.194 8.003-2.86 20.118-4.914 28.195-11.441-2.13-2.787-5.507 1.027-8.15 2.054-23.202 9.24-45.744 12.687-69.019 15.548 3.451-1.394 16.741-4.474 23.055-4.254Zm63.439-11.661c-.294-1.467 1.174-1.98 2.276-1.394.073.881-1.395.954-2.276 1.394Zm-44.496 11.441c-1.541 2.273-6.167 2.127-8.15 2.053 1.249-1.686 5.434-.66 8.15-2.053Zm-33.628 9.167c12.409-2.86 20.412-2.347 31.866-4.473-9.839 2.933-26.8 6.82-38.401 5.353-.66-2.126 5.507-2.053 6.535-.88Zm71.001-17.528c4.846.074 2.644 6.454 4.259 10.781-4.993.073-4.112-7.481-4.259-10.781Zm1.689 25.229c.955-2.42-2.349-3.52-3.891-1.393-2.13-3.081 2.202-2.934 1.615-5.281-.881-2.053-1.762 2.274-2.643.22.44-2.42 2.937-2.933-.221-4.694 5.434-4.84 12.629 9.021 5.14 11.148Zm9.766-7.334c-.074 1.247-1.102.44-1.836.587.073-1.174 1.101-.44 1.836-.587Zm-1.028 3.08c1.321 0 2.202 1.1 2.863 2.421-1.322 0-2.203-1.101-2.863-2.421Zm-16.741-3.3 1.028 3.08a254.417 254.417 0 0 0-43.688-.366c13.143-2.861 29.223-2.714 42.66-2.714Zm-47.946 3.08c.073-1.907 2.643-.733 3.671-1.246 1.762 1.1-2.349.366-3.671 1.246Zm19.971-7.334c9.545-3.667 19.605-3.52 32.233-7.334l.588 1.834c-11.014 2.127-21.881 3.74-32.821 5.5Zm3.084 11.221c14.465.22 27.828 2.861 37.96 11.808-24.009-10.194-50.736-14.815-82.235-9.974 13.143-3.3 30.838-5.941 44.275-1.834Zm26.58 26.476c-12.629-8.067-26.433-13.715-41.265-17.528 15.86.953 33.482 3.813 41.265 17.528Zm5.653 2.86c-1.762-1.1.808-3.373-.587-5.94 1.468-.587 2.937-1.1 3.891-.587 1.322 3.374-1.468 4.767-3.304 6.527Zm18.797 5.281c.587-.147.734.586 1.028 1.026-.588.22-.734-.586-1.028-1.026Zm6.755-8.361c1.689 4.914-.881 7.701-2.423 11.001-4.406.147-.441-8.141-2.643-7.921-2.277-1.173 3.01-3.74 5.066-3.08Zm-9.398 2.493c-4.039-.806-6.095-5.427-10.647-5.28.441-1.173.22-1.76-.808-2.42-13.289-11.148-29.002-17.528-47.578-18.115 17.181-1.32 34.803 5.207 48.386 14.448 2.129 6.674 7.416 6.894 10.647 11.367Zm-1.249-11.807c-2.569-3.08-1.248.66-4.258 1.393.807-2.42.22-2.86-2.276-2.64.293-2.86.44-3.447.44-6.967 5.801-2.347 6.608 2.933 6.094 8.214Zm-8.15-8.214c-8.517-6.087-21.66-8.361-30.177-11.001 5.36.146 10.94-.074 15.933.807 2.129 2.126 4.185 4.62 7.122 5.06 3.157-.44 4.112-1.98 5.727-3.3 1.248 1.98 3.378 1.98 4.259 4.693-2.056.807-2.056 2.494-2.864 3.741Zm10.794-40.924c-2.497 1.247 1.762 4.767 2.276 6.747 1.028-.513 1.028-1.54.44-2.86 1.395 1.394 3.451 9.021 5.507 14.448-1.689-1.76-1.689-1.32-2.423.807 3.451-.367 2.423 3.593 2.643 5.94-.881 1.394-.807.22-2.423.807 3.525 1.687.294 4.914-.22 7.554-2.643-2.273-6.241 2.347-7.783-.807 2.276.587 5.213-.146 8.371-1.466-1.836-3.447-8.518 2.786-9.986-1.394 2.863.147 7.636-.147 9.178-3.08-2.937-.294-7.122 1.907-9.766 1.247-3.23-2.641 2.203-4.621-2.276-4.694-.514-1.76 2.203-1.98 3.892-2.64-.808-2.494-4.406.66-4.92-2.421 1.763.954 1.909-1.173 4.259-1.393-.514-2.127-3.231.367-3.084-3.08.808-.66 3.378-.367 2.864-1.614.073-2.933-3.378 1.247-3.231-1.613 1.469-.294 2.35-.88 2.864-1.614-.661-1.76-2.937-.22-3.451-2.273-1.469.293-2.276.88-2.056 2.053-1.322.514-1.028-2.053-1.616-2.86 2.717-.587 4.773.22 6.976-1.613-.294-2.421-3.378.66-3.451-2.274 1.909-.147 3.23.953 4.699 1.834-.367-1.394.661-3.301-1.248-5.721 2.056-1.027 2.937.587 3.965 1.98Zm-7.343-1.687c.074.587.441.514.808.44.661 1.101-2.497 1.834-2.056 0l1.248-.44Zm-7.342 4.547c-4.406-.586-4.773-5.5-6.094-10.194.734-.146 1.028-.513 1.028-1.027 5.8-1.686 6.755 8.141 5.066 11.221Zm8.958-15.914c-.294 2.713-4.479 3.52-7.123 5.134-1.248-3.594 4.846-4.914 7.123-5.134Zm-5.727 9.387c.293-.733.22-1.613-.221-2.64 3.231-.587 4.553-2.127 7.122-3.08.147 1.98 1.395 2.053 1.836 3.447-2.35-1.687-6.021 1.1-8.737 2.273Zm12.849-4.327c-2.276.514-2.497-3.153-4.479-3.227 1.615-3.74-1.322-4.107-1.248-7.774 5.36-.807 6.461 6.967 5.727 11.001Zm-3.231-17.895c-.954 2.861-3.745 6.674-5.213 8.654-.073.294-.22.587-.514.734.147-.22.294-.44.514-.734.587-1.54-1.028-4.4-3.157-3.153.073-4.547 4.993-9.534 8.37-5.501Zm-11.674-4.327c3.304-2.127-.735-6.16-3.304-5.72 3.671-4.621 15.051 7.04 6.755 7.92 2.569-2.86-1.469-2.346-3.451-2.2Zm-6.535 6.968c1.835-1.687 2.643-4.108 5.286-4.474 1.469 1.833-4.699 3.593-5.506 5.94-16.888 14.008-47.286 22.662-72.25 28.163 22.615-8.434 56.243-14.668 72.47-29.629Zm-77.903 31.389c-.808-1.614 2.056-1.32 1.835-2.64.735-.074.808 1.1 1.616.806.367 1.394-2.497 1.174-3.451 1.834Zm62.41-35.056c4.406-5.208 6.168-12.248 10.427-17.749-6.902 21.856-27.167 38.357-57.932 44.444 18.429-6.894 36.051-13.274 47.505-26.695Zm-55.508 27.355c2.202.22-1.983 1.32-2.864 1.614-2.203-.22 1.983-1.32 2.864-1.614Zm43.687-46.497c-.881-2.054-2.496-2.42-3.084-5.061 6.388-1.76 10.28 4.107 12.262 8.141-3.451-.293-4.772-4.767-9.178-3.08Zm.367 3.227c6.094 3.96-4.699 10.707-5.507 16.135-8.443 6.893-17.842 18.481-30.03 20.168 16.814-7.627 30.544-21.122 35.537-36.303Zm-120.195 6.82c-2.13-2.2-6.608.294-8.371-2.64 6.242-1.687 8.958-7.7 15.933-7.334.735-.66 1.175-1.467 1.249-2.42-5.287-3.52-13.731 4.547-17.328 9.167-.955-10.56 8.517-13.347 20.191-16.941 1.175 2.127-1.615 2.274-2.276 3.447.955 2.567 3.378 2.127 4.259 4.694-1.248.146-1.689-1.394-3.451-.22 2.349 3.153 4.552.366 7.93 1.393.22-2.493-4.773-2.42-5.948-5.5 4.185-.587 6.241 3.153 9.178 5.06-4.625 1.907-11.674 2.714-12.849 6.307 5.801-.293 15.86-7.554 21.22-5.72-6.976 4.914-21.073 7.48-29.737 10.707Zm44.495-7.407c-10.426-7.627-24.23-7.407-33.041-17.528 8.37-4.987 26.58-12.615 36.565-8.801 7.563 2.934 20.265 10.781 24.671 14.888 5.727 5.281 8.003 11.368 11.234 19.362 3.377 8.287 11.307 16.721 4.111 24.495-1.982-.146-4.478.734-6.901 1.614-4.186-13.128-8.077-41.217-23.716-42.391 6.534 6.088 12.849 13.422 16.153 23.836 1.835 5.867 1.175 11.954 3.891 17.748-.293.293-.587.66-.881 1.027.441 0 .588.66.881 1.026-.514.147-.734-.44-.954-.88-2.056 2.787-4.039 6.454-8.664 8.875-10.133-16.355-10.133-33.59-23.349-43.271Zm-71.589 25.962c-1.395.074-3.891 2.421-4.111 0 1.468-.22 3.818.294 3.45-1.833 1.028-.073 0 .88.661 1.833Zm6.682-43.05c-.661-.293-.955-1.54-1.836-1.394.294-2.053 2.497.367 3.892-.586-.147.88-.955 1.54-2.056 1.98Zm3.671-5.281c1.248 1.981-1.615 1.687-2.276 1.394 0-1.907.734-.953 2.276-1.394Zm52.645-54.271c-.293.734-.807 1.32-1.395 1.834-1.689.293.514-1.614 1.395-1.834Zm-10.206-28.529c-.22 1.1-1.688 1.54-2.643 2.273-.367-1.393 1.101-1.833 2.643-2.273Zm-5.36 4.474c-2.202 2.86.735 3.74.808 6.527 3.084-.66 4.038-2.42 4.699-4.254-1.101-2.053-3.524.367-3.451 1.834-1.468-2.274 4.038-5.427 7.122-7.114 1.175.733 1.542 3.007 3.084 3.08-8.37 6.894-17.842 15.841-16.52 25.889 3.891-7.921 9.545-21.929 20.779-21.195 1.028 5.94.367 11.074-.808 15.914 5.801 1.907 4.332-16.721 5.287-6.527 2.202-1.1 2.129-3.373 2.276-5.5-.808-2.274-2.423.733-2.864-.44l-.44-1.247c.514-3.3 2.202 1.027 5.066-1.027-4.699-3.887-10.94-4.62-14.098-11.588 5.214-1.54 8.004 1.687 11.455 3.668.293 1.173-1.909 1.1-1.249 2.42 1.028 1.32 2.864 1.026 4.112 2.053.808 2.567.588 4.694-1.395 5.941.441 1.467 1.689 1.467 1.836 3.447-2.644 4.253-6.315 8.067-10.426 11.661-2.717-1.394-7.71 4.547-7.563 7.92-3.745.294-5.36 5.721-8.958 7.774-1.982-.366.074-2.933 0-4.107 2.203 1.174 1.689 0 3.671-1.246-.073-1.1-2.937-1.32-2.643.22-1.468-4.181 2.937-9.755 4.112-14.302-4.553 3.081-7.196 8.361-14.465 11.661 5.066-9.754 3.378-22.808 10.573-31.462Zm-17.328 31.609c.074.733-1.101.807-.807 1.614-1.763.366-.661-1.907.807-1.614Zm-4.699 10.414c.587-.146.734.587 1.028 1.027-.587.147-.734-.587-1.028-1.027Zm0 2.054c1.028.733 3.084 1.1 2.276 2.64-1.101-.22-1.542-1.687-2.276-2.64Zm4.552 7.334c.588-.147.735.587 1.028 1.027-.661.146-.734-.587-1.028-1.027Zm-1.835 4.694-.441-1.247 1.248-.44.441 1.247-1.248.44Zm13.436-4.474c.661-1.687-1.982-2.787-2.863-4.474-2.643 1.54 2.423 3.007 1.028 5.134l-1.836.587c-1.321-.44-.367-4.401-2.423-5.281-3.524.66 1.028 2.934-1.615 3.227-.808-1.173-.588-4.254-2.056-4.107.367-.807.808-1.613 1.248-2.42-1.615-1.394-1.762-.073-3.891.587.514-1.394 2.349-4.767-1.616-2.861.441-1.686 2.937-2.273 3.451-3.887-1.468-2.273-2.496.88-5.139 1.027 1.909-1.76 2.423-3.74 6.314-5.5-.22-1.541-1.542-.954-1.615-2.861 1.395-1.173 1.542-2.933 3.451-3.887 1.468 5.427-3.525 10.928-.808 13.862 4.332-2.421 3.451-7.481 9.178-9.168.294 3.007-3.01 4.034-.441 6.967l-3.083 1.027c.367.954.514 2.42 1.395 2.274 0 1.833-1.836-.954-2.864-.44-.44.293-.44.806-1.028 1.026 2.13 3.447 6.755 2.201 8.958.44.881 2.494 4.919 3.007 5.507.22 2.276.881-1.909 2.787-2.056 4.107-1.542 0-1.762-2.64-3.451-2.273-1.689 1.833 1.762 1.76 1.836 3.447-1.909.073-1.322 1.393-2.864 1.613l-1.248-3.667-1.248.44c-1.469 1.687 3.597 3.887-.221 4.841ZM247.88 159.66c1.468-1.98 2.864-4.033 5.727-5.28-.734 3.08-3.818 2.347-3.231 6.527-1.248.294-1.174-1.907-2.496-1.247Zm-2.643 4.328c-.441-1.614 1.762-2.201 2.863-1.614.221 2.054-1.395 1.32-2.863 1.614Zm-2.864 1.613 1.836-.587c.514.954-.221 1.247 0 2.054-.514.073-.808-.44-1.395-.22l-.441-1.247Zm-1.835 2.64c1.982-.073.293 2.127 1.028 3.081-2.35.22-1.469-1.907-1.028-3.081Zm-17.989 11.441c-1.836-2.787 3.304-2.053 3.451-3.887.734-.146.881.954 1.248 1.614-.588 1.246-2.937 1.613-4.699 2.273Zm-36.492 8.801c-1.102-1.613-1.836 1.027-3.084 1.027-.955-2.2 3.304-1.76 1.248-4.474 2.056.66 2.276 5.06 4.112 6.087.294.514-.073.66-.441.807-.587.073-.514.44-.44.807-2.35.366-2.203-3.227-1.395-4.254Zm3.891 7.554c-1.468.293-1.248-2.567-1.028-3.08 1.102.22 1.836 1.1 2.277 2.64-.735-.22-1.396-.367-1.249.44Zm1.836 3.447c-.661-1.32-.661-2.347-.441-3.227 1.102.22 1.542 1.687 2.277 2.64l-1.836.587Zm2.203.587c.734-.074.807 1.1 1.615.806.073.734-1.101.807-.808 1.614-1.542.44-.881-1.98-.807-2.42Zm2.276 2.64c1.101.44 1.835 1.687 2.423 3.227-1.909.88-3.084-1.907-2.423-3.227Zm3.451 4.327c.954.147 1.542.953 2.056 2.053-1.249-.22-2.864-.66-2.056-2.053Zm2.863 4.474c.734-1.687 3.892.22 4.259 2.64-2.423 1.173-2.57-2.274-4.259-2.64Zm6.535 3.227c.22.88.514 1.76 1.248 1.613.147.733-.954.88-1.615 1.247-.881-1.467-1.909-1.98.367-2.86Zm1.615 4.913c.221-.733 1.175-1.1.588-2.273 1.321 0 2.202 1.1 2.863 2.42-.734.147-1.028.513-1.028 1.027-1.321.733-1.248-1.467-2.423-1.174Zm10.427-1.466c.66-12.395 1.468-24.716 1.028-37.697 1.615 1.027 3.45 1.613 5.286-.44 1.542 2.127 2.423.44 4.699 1.833-1.909 4.841-5.066 9.021-2.863 15.915-.955 1.174-2.864.22-2.423 2.86 5.213.294 0 7.774-4.92 7.774.955 1.247 4.553 2.421 5.507.22 1.983-.073-1.101 1.394.22 2.641-2.643 1.466-3.818.146-5.947.586.441 3.594 4.259.294 5.14 3.081-2.497 1.76-3.818-1.394-5.067 1.026 1.028 1.32 2.277 2.201 4.479 1.247-.073 3.007-3.891 1.614-5.139.954Zm-6.535 4.913c.147-.953.954-1.54 2.056-2.053 1.248 1.687-1.028 1.54-2.056 2.053Zm4.479 5.281c1.248-1.54-3.378-2.64-2.056-4.107 1.542-.514.881.22 1.028 1.027 1.175.733 3.01.073 4.258.586.514 1.687-1.615 1.98-3.23 2.494Zm3.084 31.609c-7.196 1.54-19.972 4.327-23.863-4.253 2.349-1.247 4.111 1.906 7.342 1.613 1.248-2.274-3.01-2.127-3.451-4.254 3.745-1.393 5.727-4.767 7.563-1.833-.588-2.347 2.57-5.647 3.891-2.64.074-3.007 4.846-5.648 6.755-2.274 1.542-1.1-.22-3.814 2.644-4.254l1.028 3.081c1.982-3.007 1.541-5.794 4.919-1.614-.441-3.374.808-2.713 1.615-5.28-11.894.366-22.247 7.554-31.646 13.274-.22-3.3.441-6.234 1.028-9.167 11.601-6.088 29.223-17.749 47.139-19.802 17.254-1.98 43.907 6.821 56.977 13.641 6.314 3.3 20.118 11.588 13.657 20.609-18.723-15.255-42.293-20.902-67.183-23.836-1.763.294.22 2.494-1.028 3.08 21.733 1.981 54.04 10.341 70.046 26.256.808.807 2.13 6.527 2.056 10.194-23.128 14.595-41.778-5.207-59.987-10.561-11.454-.293-25.919-4.913-39.502-1.98Zm41.631 16.722c-.22-1.467 3.084-1.54 3.671-1.247-.073 2.127-2.276.073-3.671 1.247Zm7.342-4.474c.588-.147.735.587 1.028 1.027-.587.146-.734-.587-1.028-1.027Zm-16.079 4.694c-2.13.88-.368-2.567-3.231-1.614 2.203-2.273 8.517-1.32 14.097-2.64-4.111 3.08-9.765 1.173-10.866 4.254Zm-26.947-13.495c15.346-2.42 28.048.44 39.796 5.061.367.66.22 1.1-.22 1.393-14.392.88-25.332 2.787-39.356 6.307-.808-4.547 2.129-7.334-.22-12.761Zm-5.947 4.694c1.615-.513 2.129 1.173 3.23 1.613.074 1.981-1.835-.293-3.084 1.027-.587-1.173-.073-1.687-.146-2.64Zm-7.71 37.99c0-.587 4.846 1.833 5.947-.587-.22-1.76-3.524-2.273-3.671-.807-1.762-.44-1.468-1.173-1.615-2.86 2.056-1.1 3.01 2.2 4.112 0-.882-1.32-1.983-2.2-3.892-1.393-.661-2.054 1.322-2.787.441-4.914 1.835-.293 2.349 2.127 4.111 2.053 1.175-1.466-1.615-3.447-3.083-3.08-.955-1.833.073-2.713 0-4.107 1.101.807 2.055 2.054 3.45 2.274 1.616-3.007-4.038-4.327-2.423-7.334 1.616-.44 1.542 2.42 3.672.806-.881-2.933-4.185-2.126-3.304-5.72 1.909-1.173 1.615 2.2 3.671.807 1.175-1.834-2.056-3.227-3.304-3.667-.074-1.027 1.762-1.174.44-2.861 1.322.441 1.762 2.641 3.451 2.274.881-1.173-1.468-4.547-2.863-4.474.514-1.246 4.038.074 5.506.22-1.541 2.641-.073 6.674 1.469 8.361 8.003-3.74 14.832-5.06 24.524-6.16-1.469 1.246-.441 3.446 2.056 2.053-1.983 2.2-7.49 2.714-10.794 4.254-.22-2.274-1.542-2.347-2.423-3.227-2.203.44.734 3.447-.587 4.253-1.616 1.247-1.542-1.026-2.056-2.053-4.332.073-.661 4.107-4.699 4.254-1.028-1.834.514-2.274-1.028-3.081-1.983.66-1.762 2.494-1.248 4.474-1.249.147-.955-2.787-3.084-1.027-2.643 7.188-3.378 15.328-5.287 22.809-3.744 1.833-5.286-.66-7.489-1.54Zm-.808 1.613c1.395.514 2.35 2.054 4.112 2.054-.587 1.687-3.818.073-4.112-2.054Zm-.44 2.861c1.321-.514 1.028 2.053 1.615 2.86-.587-.147-1.175-.294-2.056 0-.367-1.247 1.469-1.394.441-2.86Zm-9.399 8.58c-1.248-1.613 1.028-1.54 2.056-2.053-.807-3.374-2.202-1.54-4.258-.587-1.175-1.76 1.688-1.54 1.835-2.64-.514-1.32-1.982-.807-3.451-.22 1.763-3.447-2.79-3.08-4.478-5.281-.368-1.613 1.321.514 2.423-.806-4.626-1.54-1.763-5.941-6.315-6.748.661-2.42.073-5.353-3.084-5.06.661-4.327-5.433-6.821-3.451-12.468-1.835-2.64-3.965 1.687-4.919-2.42 1.909.147 2.717 1.027 4.479-.807 5.874 15.402 13.73 27.063 23.716 38.284-1.836-.44-2.937-.734-4.553.806Zm4.553 1.174c.881 1.98-2.276 1.907-3.084 3.08-.22-1.687.808-4.107 3.084-3.08Zm3.671-3.227 1.248-.44.441 1.247-1.248.44-.441-1.247Zm4.626-.22c1.028 1.54-.808 1.613-.441 2.86-.661.587-1.248-2.934.441-2.86Zm6.388.587c-1.249-2.494 1.615-7.774 2.643-12.468 1.028-4.694 1.542-9.901 2.863-13.861 12.483-6.014 27.828-9.755 41.191-11.001 6.021 4.693 12.776 7.774 20.192 9.607-12.629 15.988-44.201 28.603-66.889 27.723Zm-15.126 15.914c10.206 1.614 21.22 3.814 34.51-.66-.661-3.08-3.818-1.247-6.315-.587-2.423-1.173 1.175-1.54.22-3.447-1.101-1.026-3.377 1.687-2.276 3.447-1.615-.513-4.185.954-5.947.587-1.175-1.907 2.203-1.613.808-3.667-1.249-1.54-3.598 3.227-1.616 3.227-.661.66-8.003 1.54-6.755-1.833-3.965 2.42-8.297-.44-11.601-2.274 13.143-11.074 32.894-7.481 47.946-13.274 13.363-5.134 23.422-12.321 33.041-21.196.734.294 1.322.807 1.836 1.394.367-1.907.66-3.667 2.863-5.721 1.322-.22 1.322 2.054 2.643 1.834-2.129-4.474 3.084-7.847 8.151-10.194 0 1.54-2.203 4.62-4.259 3.447-.734 2.2-1.836 4.18-2.643 6.307 4.772-.44 5.139-7.701 9.398-4.474 1.468-1.833-.294-5.28 3.451-5.94 1.395 2.42.514 3.667-.441 4.913 2.056 1.174 4.553-1.76 5.067-3.08-.147-2.127-2.277-.22-3.084-1.027 2.203-3.96 3.818 1.834 5.14 3.081 2.569-.44-.368-3.594-.441-5.281 4.405-1.907 5.14 3.374 6.535 7.334-8.004 11.955-20.339 21.782-31.426 32.196 14.685-5.28 23.863-18.188 33.041-29.409 9.545 8.434-1.762 22.809-7.93 31.169-12.629 16.722-37.96 29.263-63.071 31.243-13.51 1.1-26.8-3.52-37.593-6.527-3.745-3.74-8.224-6.454-9.252-11.588Zm-4.038 6.161c.734-2.347 3.451-.22 3.891 1.393-1.615.074-2.349-1.467-3.891-1.393Zm.587 1.833c1.762.807.588 1.98.441 3.227-1.909.587-2.864-3.08-.441-3.227Zm-3.084 7.114c0-1.027.368-1.833.441-2.86 1.248.22 2.276 1.613 1.615 2.86-.587-.146-1.174-.293-2.056 0Zm-100.884-75.833c-1.102-3.374 2.863-1.687 3.451.22-1.175.147-1.616-1.393-3.451-.22Zm40.016-18.775c3.377 7.481 2.57 20.755-2.497 29.263-1.321-1.321-1.248 1.246-.587.88-.661 1.026-1.395 1.98-2.276 2.86 2.79-2.787-3.231-4.841-2.643-9.974 2.349.22 3.524.586 4.919-1.614-.441-2.127-3.01-.073-3.084-3.08 2.056-.22 1.322 0 3.084-1.027-.22-3.52-4.479-2.64-3.671-4.914.954.807 2.203 1.027 4.112 0-.808-3.227-1.836-1.173-3.231-1.613-.22-4.62 3.965-7.114 5.874-10.781Zm-9.545 22.222c-.588.147-.735-.587-1.028-1.027.587-.146.734.66 1.028 1.027Zm-3.084-17.308c-1.102.22-1.762-.587-2.056-2.054.954.147 1.615.954 2.056 2.054ZM73.791 155.92c.147.954-1.762.807-1.395 1.834-1.982-.66-.293-2.421 1.395-1.834Zm-16.74 6.894c.807 1.174 1.688 1.98 3.67.807.515-1.98-3.083-.294-1.247-1.614 1.321-2.2 2.57 2.347 5.14 1.027 1.614-1.98-3.452-2.2-2.057-4.107 4.112-1.613 3.818-1.98 7.343-2.42 2.863 10.854-12.556 12.981-19.825 16.135.514-2.127 4.626-6.894 6.975-9.828Zm-7.343 16.722-.44-1.247 1.835-.587.587 1.834c-.66-.22-1.321-.367-1.248.44-.44.293-.587-.074-.734-.44Zm7.122 1.026c-.44 1.174-.22 1.76.808 2.421 1.101-.661.514-2.127 2.643-2.274-.147.587-.294 1.173 0 2.053-2.13.514-4.772 2.127-6.314 1.467-.734-1.393.66-1.687-.44-3.227 1.394-.733 1.761.66 3.303-.44Zm1.028-3.08c.808.44 2.35-.587 2.423 1.247-.807-.44-2.276.587-2.423-1.247Zm8.738-4.254c.147 1.614-1.836 2.127-3.084 3.081.147-1.541.808-2.714 3.084-3.081Zm-13.437 4.474 2.423-.807.587 1.834c-.734-.807-2.936 1.173-3.01-1.027Zm30.398 58.525c-15.64-12.761-29.957-35.056-34.143-55.225 1.983-1.1 4.92 5.061 3.084 5.061 2.203 1.027 4.7-.294 8.59-.807l1.25 3.667c-2.424-.367-1.983 1.1-4.113 2.054 4.626 4.4 6.902 13.421 11.455 17.968-.368 1.32-3.01 1.54-3.892 2.64l-1.395-4.254c1.468-.293 2.276-.88 2.056-2.053-.367-1.394-2.276.44-3.23.44-.662-2.2-2.13-4.841-.588-5.941-4.773-.806-2.864-8.58-6.535-11.441-.66 9.241 5.58 19.729 12.262 30.583 3.157-.66.293-4.62-1.028-5.06.294-1.907 3.524-2.347 4.92-3.667-2.864-7.041-10.574-14.595-8.591-19.582 9.839 19.875 22.981 31.903 35.757 47.891.955 1.833-1.101 2.2-.807 3.667-.661-.367-1.616-2.641-3.672-2.861-.073-1.393.661-2.42.808-3.667-1.101-1.613-1.836 1.027-3.084 1.027-1.542-2.053-2.937-3.007-1.835-5.5-1.102-1.614-1.836 1.026-3.084 1.026-1.689-2.933-4.773-4.327-2.423-7.334-1.542-.733-1.542.441-3.084 1.027-1.322-1.907-3.377-3.227-1.836-5.5-.66-1.394-2.129-.88-1.835.586-1.689-.586-4.112-3.3-3.304-5.72-.735-1.027-2.864.587-3.231-1.173.22 1.906.44 2.713-.22 5.06 2.13.22 5.14 2.714 4.479 5.28 1.542.954 5.58 2.347 4.478 5.281 1.763.367 6.095 3.007 6.095 6.087-1.395.733-1.689-.66-3.304.44Zm8.223 8.141c0-2.714-2.423-.587-2.423-3.227.734.293 1.615.22 2.643-.22-.146-1.027-.954-.88-1.248-1.614-1.542.22-.954 1.541-2.863 1.614-.44-1.834-1.983-1.394-2.423-3.227l3.67-1.247c3.085 1.834 2.497 5.354 5.508 6.307-1.91.074-1.322 1.394-2.864 1.614Zm2.864 2.42c-.22-1.32 1.248-1.76 1.028-3.08.514-.074.807.44 1.395.22.22 1.32-1.248 1.76-1.028 3.08-.514.073-.808-.367-1.395-.22Zm2.643 1.834c2.643-1.687 4.405-.807 5.066-3.081-.514-.66-1.175-1.026-2.276-.586-.734-1.761.734-2.347 0-4.107 1.983-.514 3.671-1.247 3.892-2.641-.882-2.933-2.35 1.1-3.451-.22-.441-2.273 2.937-2.64 3.23-4.473-1.982-2.494-1.909 1.173-4.258 1.393.807-1.54.734-3.3-2.056-2.053-1.028-1.541.808-1.614.44-2.861-.44-1.1-2.202.294-2.863-.44 1.321-3.74-3.965-2.493-2.643-5.94-11.822-9.534-19.164-22.002-27.755-38.284 4.112-.366 1.983-4.62 5.507-3.887l-.808-2.42c-1.028-1.687-1.101 1.027-2.423.807.294-.733.22-1.614-.22-2.64 1.836-.954 2.864.513 3.671-1.247-.147-1.394-1.248-.88-2.276-.587.074-1.467.808-2.64 3.084-3.08-.514-1.76-2.056-1.247-3.671-.807.147-3.08 4.038-1.173 6.534-2.86 16.374 9.461 24.304 41.584 34.143 59.332.954-1.394 3.304-2.054 2.643-4.254-1.028-1.687-1.101 1.027-2.423.807-6.755-19.362-11.748-30.51-19.384-45.838.881-.22 1.762-.513 1.615-1.246-.367-3.154-3.377 1.393-3.45-.22-.808-1.907 1.688-2.201 2.276-3.447-.514-1.687-3.598-.587-3.084 1.026-1.542 0-1.762-2.64-3.451-2.273.514-1.394 2.056-2.347 2.056-4.107-1.616-.88-2.644.88-2.644 2.273-1.542 0-1.762-2.64-3.45-2.273-.074-1.54 1.468-2.347 1.395-3.887-2.79-1.467-2.13 4.18-4.92 1.613-1.322-2.346 2.57-2.126 1.248-4.473-.587-1.467-2.056.513-1.615 1.246-1.101-.22-1.542-1.686-2.276-2.64 7.122-6.674 14.244 1.1 19.017 7.921-4.7-2.86-8.59-7.334-13.877-8.948-.441.294-.441.807-1.028 1.027 5.947 3.374 11.013 8.581 16.96 12.028 2.938-1.54-2.57-2.64-1.248-3.667 8.591 5.207 12.409 16.208 16.154 25.889 4.699 12.248 5.139 28.016 10.426 43.417-2.129-.953-3.157 1.833-6.094 2.053 1.248 2.347 2.056.661 4.111 0l1.028 3.081c-.514.953-1.909 1.393-3.451 1.833.221 2.567 3.378-.66 4.259.587-.514 2.2 1.469 3.74 1.248 5.72-1.321-1.76-2.496-3.813-5.507-2.273-2.055-5.794-5.58-8.581-7.929-13.641-1.616 2.347 2.349 6.234 3.671 8.947-1.615 1.394-2.35 1.1-5.287 2.42 0-1.393 2.717-1.32 2.423-2.86-.514-1.32-2.716.587-3.891.587-.294 2.64-4.406 9.021-6.388 4.254Zm13.216-3.007c1.616 2.713-1.174 3.153-3.451 3.887-.293-2.054 2.277-2.641 3.451-3.887Zm-9.545 7.92c.734-1.687 2.129-3.007 4.112-4.107l.808 2.42c-1.983.587-3.011 2.641-4.92 1.687Zm8.371-1.393c0-1.467 2.202-3.007 3.23-2.42 1.322 1.98-2.129 1.613-3.23 2.42Zm-.441 4.84-.441-1.246 1.249-.441.44 1.247-1.248.44Zm4.112-4.033c1.175-.954 3.23-1.467 3.084-3.081 1.762.587 1.762 4.621 2.863 6.528-3.377 1.613-3.965-2.421-5.947-3.447Zm6.535 5.28c-.147-.88 2.569.953 4.478-.807l1.028 3.081-2.423.806c2.13-3.373-1.542-1.687-3.083-3.08Zm11.454 28.089c-1.469 2.714-6.902-.807-6.315 3.447-2.717-2.2-4.772-.587-7.783-.807-.661-3.447 2.864-3.593 4.699-2.273 1.909-2.127-.44-4.621 3.231-6.527-2.276-3.007-3.671 2.567-5.727 1.246-.881-3.007 2.937-3.593 4.259-5.5-.147-1.027-.955-.88-1.249-1.614-3.818 2.201-5.213 5.574-7.342 8.581.367 1.687 3.231-1.687 3.084 1.027-2.423-.293-3.304 3.887-5.948 2.64.735-1.32 2.717-2.053 2.864-3.667-.294-.44-.808-.44-1.028-1.027-3.01.367-2.423 2.494-5.066 3.081-.074-2.274 3.084-2.861 3.084-5.134-.514-.733-1.396-.587-1.836-1.394-1.395.807-3.01 1.541-2.276 3.447-3.378-.366 1.175-3.667 2.423-4.913.661 2.053 2.716 1.393 3.23 3.667 2.864-3.301 6.535-6.234 8.151-10.195-4.406-.953-3.672 4.988-7.563 5.941.954-2.934 8.664-9.828 3.671-9.388-2.496-.806 2.129-2.273.587-4.253 5.14 2.053 11.161 11.807 10.427 18.921 2.056.587 2.716 4.181 5.286 3.667 1.102 1.761-1.321 1.761-.22 3.447-.734-.806-2.423-.22-2.643-2.42Zm-2.864 34.25c.294-.734.22-1.614-.22-2.64.514-.954 1.909-1.394 3.451-1.834-.441-1.833-1.836-1.76-2.864-2.42-1.321-2.42 2.644.073 1.836-2.64.22-2.494-2.203.293-2.423-1.247-1.322-2.054 2.423-1.467 2.423-2.86-.147-2.494-2.643-.22-2.864-2.421 2.644-.733 2.497-2.787 3.231-4.473 1.836 1.833-.734 12.687 1.836 19.801-1.395.22-2.497-.22-4.406.734Zm8.003 48.331c1.395-4.401-2.716-5.428.441-8.948-.441-.807-1.909.367-2.276-.586-.808-2.127 2.79-1.981 2.056-4.108-.441-.733-1.689 0-2.644.221-1.248-3.521-.807-6.161-1.835-9.608 2.423.367 2.716-.733 3.23-2.42-.293-1.76-3.157 1.613-3.451-.22-.881-2.127 2.497-2.2 1.249-4.474-4.112.88-.294-2.053-.221-4.694-.44-.733-1.688 0-2.643.22-.808-2.273 1.542-2.933 1.836-4.693-.514-.661-1.175-1.027-2.276-.587 2.569-2.494-.147-2.787-1.249-5.721.368-2.053 3.304.294 3.451-1.833 3.304 9.534 2.13 20.095 4.332 27.136 0 1.173-2.937.953-2.643 2.273 6.388.22 2.276 11.074 5.14 17.308l-2.497.734Zm4.479 25.669c-4.846-3.301 1.248-5.721-3.084-9.168l2.423-.807c.147-3.373-2.569-.953-3.083-3.08 1.542-3.447 1.321-6.16-.808-8.581-1.101-2.127 2.643-1.76 2.276-3.447 1.983 8.654 1.175 17.455 4.112 28.53-.588.88-2.056 1.32-1.836 2.64-.734-.88-3.084-4.254 0-6.087Zm2.056 10.194c-.44-.734-1.689 0-2.643.22.294-1.394-.661-3.374 2.276-3.447 1.836 5.28 1.689 6.38 2.276 10.781-.881.44-2.57.44-2.349 1.393-1.395-2.787-1.909-6.38.44-8.947Zm-.22 15.768c-1.322-2.347 3.891-1.467 2.056-4.107-1.322-2.2-1.542 2.787-2.423.807-.808-2.714.661-1.467 2.643-2.274 1.248 2.127.22 3.154 1.028 5.06-1.028 0-2.937 1.834-3.304.514Zm.22 2.64c1.322-.66 2.35-.66 3.231-.44-.22.66-.367 1.32.44 1.247-.293 1.247-2.349 1.54-3.23 2.42.22-.88.22-1.907-.441-3.227Zm1.615 8.947c-1.835 0 .221-2.2-1.248-3.666 1.983-.147 2.056-1.394 3.451-1.834-.367 1.834-.661 2.86.808 4.474-.514.293-.661-.074-.808-.44 0-1.1-2.203.88-2.203 1.466Zm.882 6.528c-2.13-.294 0-2.641-1.396-4.254 1.836-.44 1.396-1.98 3.231-2.42.661 2.053 0 3.373 1.248 5.72-1.542-.44-2.863.294-3.083.954Zm-.441 4.913c.294-1.686-.441-1.1-.441-3.226.955-.734 3.158.953 3.084-1.027 1.983-.074.294 2.127 1.028 3.08l-3.671 1.173Zm-1.248 18.702c1.101 1.54-.367 1.907.44 3.227-1.542 0-3.01-2.714-.44-3.227Zm-3.451 5.941c1.689-.514.881-1.394 2.423-.807 1.321 2.2-2.129 3.3-2.423.807Zm-4.699 14.447c.22 1.321-1.249 1.761-1.028 3.081-2.13-.294-.441-2.86 1.028-3.081Zm-2.423 4.914c0 .807-.367 1.54-1.395 1.834 0-.807.367-1.467 1.395-1.834Zm-2.203 3.447c.073.88-.734 1.32-.587 2.274-1.689.293-.882-2.347.587-2.274Zm-5.727 9.388c2.203-.074-.294 1.467 0 2.053-1.909.294.587-1.247 0-2.053Zm-12.262 22.442c.955 1.833-1.101 2.2-.808 3.667-1.909-.367-.881-3.447.808-3.667Zm-2.423 4.913c1.175 1.907-1.909 1.761-1.615 3.227-2.276-.513-.294-3.08 1.615-3.227Zm-44.128 10.635c-4.773-3.447-1.615-9.681-4.112-14.302 3.818 2.127 2.423 9.828 4.112 14.302Zm-3.23-26.109c-5.214-.147-10.574.073-13.657-4.254 3.083.293 11.747-1.907 13.656 4.254Zm-.808-6.527c-4.846-1.394-13.877.806-14.318-6.088 5.14 1.32 11.087.88 14.318 6.088Zm.147-13.642c-1.322.66-2.35.66-3.231.44-.734-1.393.66-1.686-.44-3.227 1.394.514 3.45-.073 3.67 2.787Zm6.314-19.801c2.203-.44 3.378-1.394 4.7-2.274 2.202.44-1.029 2.42.807 2.42-1.101 1.834-4.993 4.107-5.507-.146Zm.66 5.94c2.424-.293 2.865-2.64 4.92-1.613-.22 1.907-1.028 3.593-3.23 4.473-.808-.586-1.395-1.393-1.69-2.86Zm1.176 7.701-.808-2.42c2.57-.514 1.983-.294 4.259-1.394.147 1.907-.44 3.447-3.451 3.814Zm-.367 4.914c1.174-.954 1.982-2.054 3.891-2.641.147 3.007.367 5.941.22 8.801-.954.367-2.423.513-2.276 1.394-2.056-1.247-.514-4.988-1.835-7.554Zm3.891 9.607c1.175 2.127-.147 3.007 1.028 5.061-.954.88-1.909 1.76-3.23 2.42.22-2.714-1.616-6.527 2.202-7.481Zm-1.028 17.308c.074-1.98.22-3.96-.807-6.527 1.909-.073 1.321-1.393 2.863-1.613.22 3.153 2.79 9.02-2.056 8.14Zm1.248 7.774c.44-.953 0-2.42-.587-3.887 1.101.514 1.982-.22 2.276-1.393 2.203 1.1 1.175 4.914-1.689 5.28Zm6.902 28.896c-2.203-2.86-4.038-8.287-.22-10.781 1.909 2.42-.66 7.114.22 10.781Zm-3.818-11.588c.734-2.713 4.406-3.887 6.094-6.087.955 3.154-4.111 6.087-6.094 6.087Zm6.682-8.36c-3.01-.88-3.892 2.933-7.783 3.3-.074-4.107 5.8-5.28 8.15-8.141 1.248.22-.734 3.227-.367 4.841Zm4.258-52.438-.44-1.247c2.203.807.367 3.887 2.056 6.087-1.469 1.32-3.745 2.2-4.112 4.107 2.13 1.76 2.423-.366 5.14-1.027-.588 1.101.293 2.861.807 4.474-.954.367-2.423.514-2.276 1.394-.22 2.493 2.203-.294 2.423 1.246 1.983 12.028-4.332 19.949-6.314 29.996-4.185.44-7.416 5.721-10.427 3.447 1.469-5.207 8.297-5.28 9.986-10.781-1.982-1.393-3.23 1.761-5.507 1.834.44-.954 0-2.42-.587-3.887 2.496-.22 2.203-3.007 4.112-2.054-.808-3.373-2.203-1.54-4.259-.586 0-6.601-5.36-15.915 1.028-19.362-.073-1.393-3.377-3.007-2.276-.587-2.423-3.373-1.689-9.681 1.395-12.027-.514-1.027-1.542-1.027-2.864-.441-.66-2.713 3.084-3.226 3.672-5.28 1.762.733.44 4.62 2.643 5.941 1.689-1.467 3.45-.807 5.8-1.247Zm8.15-71.36c-1.762-1.1-.954-5.207-1.835-7.554 3.157-.953 4.993-3.593 6.094-4.107 2.423 3.814-1.615 8.728-4.258 11.661Zm-3.67-11.001c-1.102 4.767-.294 12.395.807 16.722 3.01-3.007 3.45-4.107 7.342-6.527.808 7.7-1.321 13.934-1.028 21.415-4.625 2.933-8.957 6.087-11.6 9.974 2.496 1.54 7.048-3.667 9.765-5.281 2.056 2.567-1.542 6.748-4.7 8.361 0 2.054 1.763.66 2.864.44-1.468 11.295-11.527 23.249-7.71 33.883-.954.88-3.377-.513-4.698 2.274-2.277-1.467-1.91-6.014-2.056-8.141-2.717 2.127-1.91 2.86-5.287 4.474-1.909-4.327 4.405-4.621 4.92-7.774-1.616-1.247-2.864 1.907-5.507 1.833-.147-3.153 2.937-4.62 3.67-7.334-4.478 2.127-4.992 4.107-10.646 4.914.074-1.467.882-2.64-.22-4.694 6.168-1.467 11.895-6.307 15.493-10.634-4.773.513-8.15 5.941-12.63 6.967 1.543-2.127 4.112-3.74 5.507-5.94-3.157-1.247-3.597 3.3-7.782 3.3l-1.028-3.08c9.03-5.867 17.034-12.248 22.614-19.802-.88-1.32-3.744 1.32-4.699.22.22-1.76-.294-3.887-.587-5.94-1.762 1.98-1.175 5.207-4.7 6.307.441-.954 0-2.42-.587-3.887 2.13-1.174 3.01-2.934 4.7-4.254-1.543-1.54-2.497 1.394-4.26 1.394-1.394-.881-.22-.807-.807-2.421-1.395 5.867-4.7 7.921-11.454 10.635-.074-1.394.954-2.274 0-4.107 3.818-2.201 7.342-4.474 8.15-8.141-2.276.44-4.846 4.107-7.93 4.694-.734-1.394.66-1.687-.44-3.227 6.755-4.914 14.464-9.461 17.768-16.135-4.993 2.273-9.692 9.094-17.108 11.808-1.468-2.641.514-3.447-.587-5.941 7.563-3.96 14.17-9.167 18.136-14.888 1.762-2.567 1.909-7.114 5.727-7.334-.955 1.247-2.423 2.2-2.056 4.107 3.45-.293 6.608-5.207 9.765-7.334 3.158 3.227-3.377 10.854-7.122 9.094Zm-30.986 59.992c.147 1.76.074 3.447-.44 4.914-2.79.293-1.91-4.034-2.276-4.694 1.1-.44 1.615.294 2.716-.22Zm6.902.367 1.248-.44c.735 1.173-.514 1.467-1.395 1.833-.073-.513.367-.733.147-1.393Zm-30.177-17.088c-5.434-.587-2.79-9.094-5.727-15.108-2.13 1.98.22 6.234.44 9.387-4.479-1.026-3.304-5.794-5.507-8.36-1.468 1.1-.367 3.52-.22 5.5-8.15.513-7.269-15.841-10.646-21.635.734-1.394 3.524 1.687 5.727.807-1.542-1.394-8.664-6.528-7.122-11.221 1.468.513 3.157.44 3.67 2.86 12.336 4.254 24.23 9.387 38.549 9.534.44 2.127 3.01.073 3.083 3.08-11.454 4.107-20.705-4.767-30.838-6.747 7.122 6.161 19.898 9.901 31.059 11.368-.588 1.1.587 3.007 0 4.107-9.032-.734-16.52-4.401-25.111-5.868 3.597 3.667 12.408 5.794 18.796 7.334.147 1.247-1.395 1.687-.22 3.447-1.616-2.053-2.276-.953-1.395 1.834-3.745.44-6.462-4.62-9.986-1.394.073-1.32.294-2.566 0-4.107-3.377 4.254 1.175 12.468-1.836 16.942-2.422-6.454-2.936-11.074-3.083-15.255-3.084 2.934-.514 8.654.367 13.495Zm-4.92-4.474c.735 1.394-.66 1.687.44 3.227-1.541.733-3.523-3.374-.44-3.227Zm-16.373-40.777c2.863-.953 5.947 1.834 5.14 5.061-1.249-.22-2.277-.881-3.672-.807l-1.468-4.254Zm36.345-9.387c-.294-.88 1.468-3.227-.44-3.227 1.908-3.154 5.286 1.76 5.506 2.273-.734 2.347-3.45.22-5.066.954Zm.367-47.744c9.692 28.602 10.206 55.078 11.234 82.58-4.039-26.109-4.406-54.785-11.234-82.58Zm-6.682 36.963c3.525-.22 6.021 1.467 9.398 1.613-1.248 3.741-9.838 1.32-9.398-1.613Zm-21.072-9.974c-1.763.146-2.938-.954-4.48-1.247-.88-5.354-.44-9.168-.22-14.888 8.738 2.567 16.668 6.747 25.111 9.974 1.102.44 2.644-.66 2.644 1.833-7.122-.44-12.189-4.913-19.384-5.06 2.129 1.98 1.982 6.014 2.276 10.781-1.836.953-2.203-1.1-3.671-.807-1.469-5.134-.44-9.021-1.249-13.861-3.891 2.714-.22 8.067-1.027 13.275Zm21.88-24.276c-.44-1.613 1.762-2.2 2.864-1.613.073 2.2-1.102.66-2.864 1.613Zm.587 14.008c-1.028 1.76-3.157-.44-4.92-.44-.44-3.96-1.1-7.994-2.863-12.614 6.315-.807 5.36 9.167 7.783 13.054Zm.808-9.754 2.423-.807 1.028 3.08c-1.762.44-3.157.147-3.451-2.273Zm1.468 6.307c2.937-.733 2.644 2.934 3.084 5.06-2.937 1.394-3.084-3.447-3.084-5.06Zm-17.401 7.187c5.213-.513 3.45 5.207 5.286 9.754-1.1-.806-2.57-.953-4.258-.586-1.615-3.741-1.102-6.381-1.028-9.168Zm5.58 2.2c3.818.147 5.58 4.621 4.92 8.581-5.287.44-4.039-5.72-4.92-8.581Zm10.573 9.388c-1.688.66-2.056-1.393-3.671-.807-1.101-2.273.074-3.373-1.248-5.72 4.846-2.054 3.45 3.3 4.92 6.527Zm.44-4.914c3.892-.66 6.168 1.467 6.095 6.087-1.248-.586-2.79-.513-4.259-.586l-1.835-5.501Zm2.204-3.447c-.074-1.98.66-1.027 2.276-1.393 1.248 1.907-1.69 1.687-2.276 1.393Zm-7.563 12.028.587 1.833c-4.405.954-6.608-2.42-10.426-2.64 1.615-3.74 6.315 1.907 9.839.807Zm32.674 22.442c.587-.147.734.587 1.028 1.027.734 5.793-6.462 7.627-8.958 11.807-2.937-5.06 5.947-8.58 7.93-12.834Zm-21.367 11.221c1.689.88 1.983-.734 2.864-1.614-.147-2.566-2.864-1.466-1.836-3.447 1.248-.366 1.322 1.394 2.864.44.367 2.054-.074 3.741.587 5.941-1.982.367-3.818.66-4.479-1.32Zm-3.084.953-.807-2.42c.587.147 1.174.293 2.056 0-.514.807.514 2.347-1.249 2.42Zm6.535-11.001c.881 2.934-1.101 1.247-3.23 2.421-.294-2.054-1.763-1.541-1.029-3.081 1.763-.513 2.056 1.98 4.26.66Zm-9.986 4.694c-1.541.44-3.01.88-2.643 2.274.881 1.32 3.378-.587 3.451 2.273-1.101 1.687-3.745 0-5.507-.22-1.248-3.007-1.395-5.427-1.248-7.774 1.91 1.32 4.993.147 5.947 3.447Zm-6.975 3.667c-1.836.587-2.643-.88-4.258-.587-1.249-3.153-.661-5.427-1.469-8.36 5.14-1.1 5.507 4.767 5.727 8.947Zm-6.314-2.64c-1.836.953-2.717-.074-4.112 0-1.615-3.374-1.175-5.647-2.276-8.801 4.112-2.127 6.314 3.667 6.388 8.801Zm24.303 23.835c1.836 0-.22 2.2 1.248 3.667l-4.258 1.394c-.735-2.054-1.616-4.181-.44-5.281 1.835-1.907 3.083 2.494 3.45.22Zm-17.328 3.08c6.388-.073 3.157 9.021 3.891 13.642-4.552-.734-3.304-9.901-3.891-13.642Zm5.066 3.081c6.608-1.834 4.039 7.92 5.507 12.468-1.542-.294-2.937-.881-4.479-1.247-.44-3.814-.294-7.334-1.028-11.221Zm6.976 2.42c-.588.147-.735-.587-1.029-1.027.588-.146.735.587 1.029 1.027Zm9.324-4.474c.588-.146.735.587 1.028 1.027-.587.147-.66-.587-1.028-1.027Zm-10.352 5.501c.587-.147.734.586 1.028 1.026-.661.147-.735-.586-1.029-1.026Zm3.67 4.914 3.085-1.027c-.368-.66-.22-1.1.22-1.394-.074-2.933-3.157.22-3.451-2.273.66-.367.147-.734-.22-.587.514-2.273 3.01.073 4.479-.807-.441 3.007.22 6.528-.22 9.608l-3.672 1.247c-.514-1.834.22-3.007-.22-4.767Zm20.413-10.195c3.157 4.987-5.507 8.141-9.619 9.974-.734-1.393.66-1.686-.44-3.226 3.377-1.174 7.342-3.887 10.059-6.748Zm-1.469 7.921c2.79-2.274 5.507-4.4 7.122-7.114 2.937 2.567-2.055 4.694-4.478 6.967-3.305 3.007-6.021 6.821-10.427 7.554.735-3.52 5.067-5.133 7.783-7.407Zm-15.272 11.221c1.101 1.54-.367 1.907.44 3.227-1.027-.367-2.422.147-3.45-.22.293-1.687-.441-1.1-.441-3.227.954.367 2.423-.147 3.451.22Zm37.3-71.58c-2.424.514-2.35 2.201-2.864 3.667.514 1.321 1.982.807 3.45.22-.293 1.761-1.835 2.787-3.45 3.887-1.983-5.793-2.937-7.92-4.479-13.421 1.983-.88 3.671-1.907 4.259-3.447 1.835 1.834 1.395 4.181 3.083 9.094Zm-9.179-29.555c-3.01 4.987-6.681 9.607-10.206 14.301 4.847-.807 7.416-7.188 11.602-9.974l1.615 4.913c-4.92 4.181-8.224 9.168-11.601 14.082 4.92-1.467 9.251-7.628 12.482-11.661 1.542 0 1.395 3.373 2.276 4.693-2.276 2.127-3.745 4.621-6.755 6.307 2.643 5.061 2.937 10.195 5.947 17.749-.88.22-1.762.513-1.615 1.246-.954-3.08-3.891-8.36-5.727-15.108-1.91 4.108 5.213 12.762-.367 15.108-2.423 0-3.671-6.453-3.451-8.36-3.304 3.373 1.835 8.214.587 12.027-1.395.807-2.129 1.981-3.084 3.081-1.468.22-1.248-2.934-2.055-4.107 2.056-.147.587-2.054 2.643-2.274-1.542 0-3.304 1.467-4.479-1.247-1.322.514.587 2.714.587 3.887-3.377 2.347-5.8 5.281-9.765 7.334-1.101-1.686.44-2.127-.587-3.887 4.772-2.347 6.681-6.16 8.957-9.754-2.276.22-5.433 4.401-8.15 6.087-3.45-4.987 5.36-8.214 5.948-12.834-2.79 1.467-4.773 3.374-7.123 5.134-6.534-14.815 9.913-20.242 14.098-31.17-.294-.44-.808-.44-1.028-1.026-.22-1.321-1.762.733-1.615 1.246-1.395-.586-2.276-2.273-2.864-4.473 1.175-2.054 3.745-1.467 3.892-4.694 1.688 1.32 3.01 3.447 4.478 5.28 4.406-1.76-5.066-8.58.588-10.414 1.762 2.2 2.35 7.187 4.772 8.508Zm-10.866-5.868c-2.203 1.32-2.056 5.868-5.067 5.134-.22 2.494 1.469 5.427 3.084 7.114-.514.587-1.028 1.173-1.468 1.76-1.395-3.52-2.203-8.434-5.067-9.094.441 3.3 1.983 6.307 3.305 9.754l1.688-.586c-3.084 3.887-5.58 7.994-10.5 11.001-1.688-9.241-3.597-23.249-7.342-30.143.734-2.64 3.23-4.474 4.48-6.967 1.541-.734 1.247 2.2 3.083 1.026 2.203-1.393-.587-2.126-.808-4.473 1.836-.44 1.762-1.834 2.423-2.861 4.626 2.787 9.912 10.195 5.727 15.108 2.497-.22 2.203-3.007 4.112-2.053.367 2.42 2.056 2.567 2.35 5.28Zm-45.303-25.669c3.45.147 2.937 2.421 4.112 6.088-2.644.22-4.48-3.154-4.112-6.088Zm-1.615 3.227c-3.084.367-3.378-4.4-2.864-6.527 2.79.514 3.23 3.814 2.864 6.527Zm15.933 6.894c-2.203.367-2.203-3.667-3.304-5.72 2.276-.367 2.276 3.74 3.304 5.72Zm13.657-14.008 1.248 3.667c-3.157 2.347-4.48 5.574-6.755 8.361-2.497-4.18 3.598-8.434 5.507-12.028Zm-19.164 11.808c-3.01 1.174-4.406-4.18-2.643-5.94 1.468.806 1.762 3.887 2.643 5.94Zm-11.822 3.227c-.513-2.127-.22-3.814-1.468-6.307 3.23-.294 3.304 4.914 1.469 6.307Zm3.672-3.227c2.203.073 5.213 2.567 4.479 5.281-2.937 1.173-3.598-2.421-4.48-5.281Zm6.681 3.887c2.056-1.1 2.497 1.174 3.084 3.08-3.084.807-1.468-1.833-3.084-3.08Zm6.755 1.834c.735.513 1.322 1.393 1.616 2.86-1.616 1.54-4.112-2.567-1.616-2.86Zm8.15-2.054c4.112-2.2 5.58-8.434 8.37-9.607.148.733.515 1.026 1.029 1.026-2.35 4.107-4.626 8.214-8.37 11.661l-1.028-3.08Zm-2.202 7.554c.293-.88.293-1.907-.44-3.227.954-.513 2.569 3.52.44 3.227Zm27.313-3.74c.514 1.98 1.983 2.2 2.277 4.694-1.102.66-1.102 1.833-2.644 2.273-.293-2.42-1.909-2.273-2.276-4.694 2.056-.146.588-2.053 2.643-2.273Zm-3.23-5.647c.734.513 1.322 1.393 1.615 2.86-.587.88-2.056 1.32-1.835 2.64-1.836.22-2.13-2.567-3.305-3.667 2.056-.22 1.469-1.687 3.525-1.833ZM65.64 310.814c3.304 5.94 7.27 10.634 10.426 16.941-2.129-1.1-1.615 1.394-3.45 1.834-2.938-5.354-8.004-9.168-6.095-14.302-1.468-.513-3.304-.22-3.671-2.86 1.542-.22.881-1.54 2.79-1.613Zm-1.836-1.394c-4.919 3.667-6.24 9.094-10.572 13.055l-1.249-3.667c4.552-3.667 5.8-9.021 9.986-12.835.514 1.394 1.689 1.467 1.836 3.447Zm-12.188 6.087c-3.965-5.72 4.92-9.46 5.287-14.668 6.608 4.034-3.378 10.195-5.287 14.668Zm4.039-16.281c-2.864 2.787-3.231 6.894-7.123 9.167-1.468-6.013 3.304-8.874 4.259-13.641-3.378-.146-4.773 4.621-6.535 6.967-2.863-3.52 2.79-7.113 3.23-10.634 2.35 2.2 4.773 4.181 6.169 8.141Zm-7.123-9.168c-2.937.734-3.084 2.861-3.891 4.694-4.112-3.227 1.762-5.94 1.028-9.167 1.395.586 2.203 2.273 2.863 4.473Zm-6.314-2.64c-2.57-5.574-4.993-8.654-8.37-16.941 3.89 5.5 11.6 10.414 8.37 16.941Zm-30.398 37.33c2.57-13.641 8.811-25.522 11.381-39.163 1.836 0 3.23 1.027 5.14 1.027.587-2.201-2.644-3.814-4.259-4.694.367-5.281 3.084-9.314 3.23-14.668 6.315 9.021 6.242 19.802 11.235 31.609-4.92-.366-1.91-7.48-5.507-8.36-1.395 1.173-1.175 3.153-.22 5.5-2.644.587-3.818-1.98-6.095-2.054 3.158 10.048 14.245 4.181 15.933 17.089-7.195-1.541-12.629-6.674-19.824-8.361 3.891 5.867 12.776 10.561 20.412 12.248 1.248 2.126.22 3.153 1.028 5.06-2.35.66-1.91-4.4-3.672-4.914-3.083.954.22 1.907-.807 3.667-3.451-3.007-10.72-1.246-11.675-8.36-2.57.733-.22 3.153-3.23 2.42 2.79 3.447 1.909 10.634 1.835 15.694-1.835.587-2.643-.88-4.258-.586.073-4.181.367-8.288-1.028-13.275-1.762 3.227-.44 7.921-1.616 11.441-2.79-.953-5.36-3.007-8.003-1.32Zm1.983 4.034c.44-1.76 2.716 1.32 4.258.587-.734 2.566-3.157-.147-4.258-.587Zm-4.039 2.053c3.818.734 7.857 2.861 6.755 7.921-3.45-1.393-9.178-3.52-6.755-7.921Zm-1.835 6.748c2.863.44 4.625 2.933 8.15 2.053-.955 7.994-2.57 15.695-2.864 24.056-1.762 1.1-1.762-1.321-3.45-.22-.294-1.467.22-2.641-.808-4.474 2.423.807 4.332-4.547 2.863-5.721-.367-.733-2.13-.22-1.835.587-3.304-4.4-2.937-11.148-2.056-16.281Zm-3.084 23.468c.808-3.007.22-6.674.808-9.754 3.891.734 2.716 8.141.807 10.634-.073-1.173-.807-1.1-1.615-.88ZM3.45 375.133c5.507 2.273 11.307 3.96 16.96 5.94-2.716-6.454-19.236-4.767-16.373-16.281 4.626 1.32 10.5 3.74 14.538 3.227.074-.147.074-.294.147-.44-.294-2.054-2.276-.587-2.79-2.054.367-8.801-2.423-19.215 3.891-25.082-1.1-2.054-.293-3.227-.22-4.694 1.689.44 2.864 1.76 5.14 1.027.22-2.2-5.287-1.687-5.507-6.307 5.8 3.74 12.702 5.133 18.576 8.727 2.79-.073 5.507-.147 6.976 2.42-3.965.514-5.8-3.447-10.206-2.053 5.433 2.493 3.965 9.387 6.755 16.135-7.49-2.054-14.538-4.988-21.66-7.701-.074 6.6.807 13.714-.881 19.582 0 .146.073.22.073.366h-.147c-.073.294-.147.514-.22.807 2.423.807 8.223-1.173 8.15 4.107 2.35-1.173 1.762-.953 4.259-1.393-1.175 2.42 2.79-.367 2.422 3.226-2.423-.293-4.772-.586-7.122-1.026 5.434 4.4 16.447 6.6 24.304 9.607l1.395 4.254c-3.525.587-5.213-2.42-9.178-1.027 4.332 3.961 10.867 3.374 15.713 6.307.954 1.834-.074 2.714 0 4.107-4.993-.366-3.525 2.641-5.948 4.694-.22-.587-.88-.22-1.395-.22-1.542-3.3-.587-5.354-1.468-8.361-3.084 1.027.22 5.208-1.028 7.114-2.056.367-2.937-1.613-5.066-1.026-1.028-1.834-.514-3.007-.808-4.474-1.689.367-1.762 1.54-1.028 3.08-2.276.44-3.451-1.32-5.287-1.613-1.175-2.054.367-3.887-1.615-4.914-1.542.587-.514 2.42 0 4.107-3.451-.513-5.507-.88-5.947-5.501-1.69.367-1.175 1.834-1.028 3.081-1.322.22-1.762-1.247-3.084-1.027 2.276 2.127 4.479 6.747 4.92 12.614-1.836.587-2.644-.88-4.26-.586-1.762-5.794-2.863-11.295-2.643-16.135-3.597 1.1-.293 5.647-.587 8.361-2.717 1.32-3.45-1.247-5.727-.807-.808-6.527-.514-7.921-3.671-13.055-1.689-1.466-.514 2.787-2.423 2.861-3.304-2.787-8.077-3.961-6.902-9.974Zm1.248 13.861c-.294-1.467.22-2.641-.808-4.474 2.937-.733 3.818 2.567 6.755 1.833.808 3.007.22 2.347 1.249 5.721-3.084.147-4.846-2.053-7.196-3.08Zm1.395 12.394 2.423-.807c-1.909-3.3-3.745-3.447-3.304-7.774 6.755.44 6.755 6.381 8.003 13.642-2.79-.807-6.02-.807-7.122-5.061Zm2.497 11.441c-.955-1.833.367-2.493-.808-4.474 1.909.294 3.157 1.834 5.286 1.614 1.469 2.787.367 4.254 1.616 6.967-2.276-.953-3.892-3.153-6.094-4.107Zm4.699 16.062c-.22-4.107-1.983-6.014-2.864-10.635 6.535.514 5.8 5.134 8.15 12.248-2.276.587-3.157-1.833-5.286-1.613Zm1.395 4.327c3.084.366 5.947 1.026 6.755 5.94-2.643-1.247-5.8-1.393-6.755-5.94ZM43.1 508.024c0-9.974-4.7-22.809-9.031-30.949 1.468 0 2.57-.367 3.67-1.247-1.981-1.174-2.79-3.814-4.698-1.834-1.615.881-.661-3.52-2.276-2.64 1.248-1.393 5.286.294 7.122 1.027.954-2.42-.881-4.034-2.864-8.581-2.129.66-1.028 2.86-.44 4.914-2.056 0-2.864-2.494-5.727-.807-5.14-10.781-7.343-17.895-11.014-26.915 3.157.513 5.36 2.933 7.342 5.72 2.937-2.64-1.101-5.5-1.468-10.414 1.542.293 2.937.88 4.479 1.247.587 9.827 9.912 10.487 16.96 12.027 1.176.22 2.424.66 2.277 2.641 3.598-2.861 4.112.586 7.563.22-.294.88-.294 1.906.44 3.227-10.426.146-17.255-7.041-27.534-7.114 8.664 4.033 17.255 8.36 27.167 9.974.514 1.98 1.91 4.327 1.248 5.72-7.636-.953-13.73-5.134-21.22-6.6-1.761 2.127 1.249 1.833 1.616 4.913 1.468-.293 2.276-.88 2.056-2.053 7.416 2.787 14.17 6.967 22.835 7.334 1.175 2.127-.514 2.787.22 4.694-6.681-.954-12.996-2.567-19.164-4.474.147 3.447 6.168 4.034 9.178 5.06-1.542 2.127-.22 5.648-.587 8.361 3.892.513 2.57-4.474 1.395-7.921 3.671-.513 6.02 1.614 8.958 2.421.44 3.3-.588 5.793.44 9.387-1.468.293-2.79.073-4.111 0 0-2.2-.074-4.474 2.276-5.5-.661-3.081-3.892-1.687-3.084-5.061-3.01.367.367 3.961-2.643 4.254 1.688 1.613 1.395 3.227 1.835 5.5-3.084 1.027-4.699-.806-7.122-1.026-1.175-3.301-1.615-6.234-1.615-8.948-2.717 1.174-.588 4.841-.22 7.554-.882 1.467-1.322-.073-2.277 1.394 3.378 4.547 9.178 2.053 11.234 7.114-3.965 2.273-8.664-2.201-13.07-2.421-.366.514-.807.954-1.615 1.247 4.406 3.447 10.353 3.814 15.493 5.721.147.733-.514.513-.588.22-1.248.586.735 2.713-.22 3.447 3.525.073 1.91-2.421 3.671-3.301.22.587.882.22 1.395.22 1.102 1.687-.44 2.127.588 3.887-6.094.66-10.573-1.98-15.493-3.667-.88-1.906-1.395-4.767-3.891-3.447.294 3.374 2.203 9.168 3.891 15.695-1.615 1.027-1.615-1.32-3.377-.22Zm0 2.054c1.542.293 2.937.88 4.479 1.246-.808 1.687.88 4.254 1.835 5.501 1.322-.66 2.717-1.32 1.616-3.227 4.111.513 7.562 2.567 11.821 2.86.294 1.467-.22 2.64.808 4.474-1.395.073-2.644-.147-2.864-2.42-5.14 5.72-12.702-5.428-14.685.806-2.643-1.98-1.468-6.307-3.01-9.24Zm3.304 9.754c4.552.733 7.93 3.813 12.85 3.887.293 1.467-.221 2.64.807 4.474-6.461.66-13.804-1.834-13.657-8.361Zm4.7 9.974c3.156.073 5.139 2.567 8.81 1.833 1.468 1.834.073 4.694 1.615 4.914-3.67 2.714-10.646-1.687-10.426-6.747Zm6.314 10.781c1.762-.073 3.67-.513 4.92.44.88 3.96-4.26 1.76-4.92-.44Zm10.646 5.354c-1.248-.587-1.909-2.347-2.643-3.887 2.13-1.247 1.689 2.64 2.643 3.887Zm-3.304 4.473c-.808-1.173-2.13-1.246-2.423-3.227 2.423-1.1 3.157 1.174 5.947-.586.441 1.1-.293 1.54.22 2.64-1.541-.88-1.468.953-3.744 1.173Zm1.615 2.861c1.102-.294 1.028-1.174 2.276-1.394l2.864 8.581c-1.909-.733-3.157-4.18-5.14-7.187Zm10.647 29.702c1.322 2.861-1.469 3.667-1.395 5.941-2.203-1.32-.881-5.134 1.395-5.941Zm-3.23 6.527c1.027 2.201.733 3.741-1.249 4.474-.587-1.98-.294-3.52 1.248-4.474Zm-2.864 5.721c.734-.073.807 1.1 1.615.807.367 1.907-.808 3.007-2.056 4.107-1.101-2.274.734-3.007.44-4.914Zm-4.48 4.914c1.836 0-.954 1.833-.44 2.86-2.496-.293 1.102-1.76.44-2.86Zm3.232 1.613c.44 1.614-.074 2.64-1.616 3.227.661-.953-.147-2.713 1.616-3.227Z"/><path fill-rule="evenodd" clip-rule="evenodd" d="M392.452 325.555c2.203 1.54-2.57-.807 0 0ZM201.476 90.208c1.322-2.274-1.028 2.42 0 0ZM230.258 121.377c-.22.514.22-.367 0 0ZM220.052 9.24c2.644-.073-2.202 1.54 0 0ZM209.038 6.82c-1.909 3.3-4.699 1.907 0 0ZM218.364 12.468c2.937.733-1.689 1.613 0 0ZM201.476 100.402c2.35.22-1.836 2.274 0 0ZM205 116.903c-.293.514.147-.366 0 0ZM205.367 118.15c-.22.514.221-.366 0 0ZM212.122 124.017c-2.423-.806 1.322-3.153 0 0ZM211.095 125.044c-.221.514.146-.367 0 0ZM213.738 94.242c-.294.586.147-.294 0 0ZM221.961 132.965c2.643-.073-2.203 1.54 0 0ZM220.933 136.045c2.57-.44-3.818.66 0 0Z"/><path fill-rule="evenodd" clip-rule="evenodd" d="M222.108 135.605c.22-.293-.22.587 0 0ZM134.587 527.092c.146-.293-.294.587 0 0ZM235.545 397.648c-.147 0-.294 0-.368.073.294 0 .514-.073.661-.073a.221.221 0 0 0-.293 0ZM219.171 393.541c2.717-.074-2.129 1.54 0 0ZM207.717 324.675c2.57-.514-3.745.66 0 0ZM222.842 265.93c-.293.513.147-.367 0 0ZM274.239 271.21c3.818.514-2.716-.44 0 0ZM275.12 274.29h.294c-.147-.073-.22 0-.294 0ZM220.346 309.567c.22-.367-.22.513 0 0ZM216.528 313.38c.073 0 .22 0 .44.074.368.073.661.073.808.147-.367-.147-.954-.221-1.248-.221ZM212.196 315.654c-.22.513.22-.293 0 0ZM271.816 276.051c.147-.294-.293.586 0 0ZM296.12 279.571c-1.909 2.567-4.699-.733 0 0ZM338.559 247.741c2.643-.146-2.203 1.467 0 0ZM340.982 246.935c-3.818.66 2.57-.514 0 0ZM409.56 215.912c2.129 1.54-2.57-.807 0 0ZM403.833 245.615c2.937.733-1.689 1.613 0 0ZM369.177 255.882c-3.011 3.52-4.626-.513 0 0ZM370.352 255.442c2.643-.073-2.13 1.54 0 0ZM410.955 250.748c-.22.514.22-.366 0 0ZM410.808 252.142c-.293.587.147-.294 0 0ZM411.616 255.516c.147.073.367.293.587.586l-.22-.22c-.147-.22-.294-.293-.367-.366ZM352.803 282.358c1.175-2.054 4.185.586 0 0ZM358.53 275.024c-.22.513.22-.367 0 0ZM307.5 281.184c2.644-.146-2.129 1.467 0 0ZM399.795 251.775c.146-.367-.294.513 0 0ZM382.613 261.529c-.22.587.147-.293 0 0ZM377.547 270.77c.147-.366-.294.514 0 0ZM397.298 258.669c2.35.22-1.835 2.347 0 0ZM366.093 260.943c2.57-.44-3.818.733 0 0ZM297.735 282.431c2.643-.146-2.203 1.467 0 0ZM281.215 275.684c-2.937-1.1 1.174-2.714 0 0ZM400.162 299.886c2.716-.073-2.13 1.54 0 0ZM421.235 303.773c.146-.367-.294.513 0 0ZM418.738 278.031c-.22.586.22-.294 0 0ZM409.119 241.141c.221-.293-.22.587 0 0ZM332.832 240.774c-4.92.587 2.276-.293 0 0ZM334.227 240.994c1.395-2.567 4.332.22 0 0ZM349.132 232.634c2.643-.074-2.203 1.54 0 0ZM273.211 189.363c.074.073.221.147.294.22-.073-.073-.22-.147-.294-.22ZM273.652 189.73c.44.293.808.586.954.66l-.146-.147c-.368-.22-.588-.367-.808-.513ZM218.951 264.463c-.294.587.147-.293 0 0ZM200.521 254.342c-.22.513.221-.367 0 0ZM227.248 224.346c2.57-.513-3.745.66 0 0ZM238.702 172.935c2.643-.073-2.203 1.54 0 0ZM275.414 138.245c.147-.293-.294.587 0 0ZM285.914 123.357c0-.073.22-.44.073-.146 0 .073-.073.146-.073.146ZM275.194 94.828c.147-.367-.294.514 0 0ZM257.645 146.239c-2.276-.733-.587-4.18 0 0ZM260.95 147.853c-.294.513.146-.367 0 0ZM226.44 179.096c-.294.513.147-.367 0 0ZM183.634 278.984c-2.35-1.173 2.349 1.174 0 0ZM161.093 252.655c0-.073.22-.44.073-.146-.073.073-.073.146-.073.146ZM127.611 496.143c1.542-1.76-2.276 3.74 0 0ZM114.542 520.199c1.321-2.274-1.028 2.42 0 0ZM9.178 357.531c-.294.587.147-.293 0 0ZM53.893 405.862c-4.699 1.247-1.762-4.621 0 0ZM52.645 334.942c-.294.514.147-.366 0 0ZM64.393 428.817c0 .073 0 .073.073.147-.073-.074-.073-.147-.073-.147ZM64.98 430.944c0 .147.074.22.074.22s-.074-.147-.074-.22ZM64.687 432.117c2.643-.073-2.13 1.541 0 0ZM64.1 424.197c2.569 1.907-.662 4.62 0 0ZM65.127 468.054c-.294.513.147-.367 0 0ZM65.568 473.334c.66-3.887-.22 5.354 0 0ZM73.791 583.417c1.248-2.273-1.101 2.42 0 0ZM68.872 597.279c-1.91-1.541 2.056-3.961 0 0ZM120.93 246.201c-.074.074-.074.147-.074.147 0-.073.22-.367.074-.147ZM122.765 249.648c-2.276-.733-.587-4.18 0 0ZM122.398 256.616c-3.818-4.327.147-4.107 0 0ZM108.08 260.649c-.22.587.221-.293 0 0ZM122.618 251.115c4.7 3.594 2.35 7.041 0 0ZM112.779 258.449c.147-.367-.293.513 0 0ZM107.713 257.422c2.643-.073-2.203 1.54 0 0ZM108.741 254.342c-3.23 0-1.835-2.714 0 0ZM105.217 254.122c-.221.587.22-.293 0 0ZM103.602 255.369c2.863.733-1.763 1.54 0 0ZM55.362 174.255c2.57-.44-3.745.66 0 0ZM57.197 161.421c-.22.513.22-.367 0 0ZM50.883 164.868c-.22.513.22-.294 0 0ZM65.788 182.983c.514 3.006-3.818.806 0 0ZM127.464 259.623c2.644-.074-2.129 1.54 0 0ZM132.824 275.537c-.293.514.147-.366 0 0ZM133.191 270.624c2.937.733-1.688 1.613 0 0ZM125.849 291.452c2.643-.073-2.129 1.54 0 0ZM105.437 277.297c-.073 0-.22.074-.44.074.22-.074.367-.074.44-.074ZM105.878 276.344c.146-.293-.294.587 0 0ZM114.248 264.756c2.643-.073-2.203 1.54 0 0ZM128.346 296.732c2.276.22-1.91 2.347 0 0ZM127.684 301.059c2.717-.146-2.129 1.467 0 0ZM149.492 168.681c-.294.587.146-.293 0 0ZM152.135 174.622c-.294.513.147-.367 0 0ZM156.32 177.409s0-.074.073-.147c.147-.22 0 .147-.073.147ZM164.764 177.849c-3.084-1.907.954-2.86 0 0ZM164.397 178.655c-.294.587.146-.293 0 0ZM166.673 183.349c2.643-.073-2.203 1.54 0 0ZM147.436 162.594c-.294.513.147-.367 0 0ZM132.09 143.232c-.22.514.22-.366 0 0ZM124.968 136.118c-.294.514.147-.366 0 0ZM108.007 115.95c.22-.367-.22.513 0 0ZM105.804 113.236c-.294.587.147-.293 0 0ZM123.059 537.873c0-.073.22-.44.073-.146-.073.073-.073.146-.073.146ZM72.029 214.005c0-.146 0-.293-.073-.44 0 .22 0 .294.073.44ZM329.821 231.753c0-.073.074-.073.074-.146h-.147c0 .073.073.073.073.146ZM236.793 24.715c-1.615-3.227-2.423-8.067-5.507-8.36 1.689 5.5 4.552 11.44 4.259 16.941 3.304-2.2-2.864-8.874 1.248-8.58ZM119.241 98.569c-.074-.22-.147-.44-.221-.587-.293.147-.514.733.221.587ZM119.02 97.908c-3.891-11.44-10.866-22.588-17.548-32.122-2.496 2.567 1.028 7.114 2.423 9.387 6.168 9.828 10.867 13.201 15.125 22.735ZM138.038 73.266c-.221-.587.22-.88.22-1.393-2.13.806-.881 3.3-1.836 4.694-.147-.367-.367-.66-.807-.44.22.586.44 1.246.587 1.833 2.496-2.273 4.993-1.834 1.836-4.694Zm-1.028 1.027c.587-.147.734.587 1.028 1.027-.661.22-.735-.587-1.028-1.027ZM94.203 178.289c4.846 5.867 5.287 14.008 11.454 19.948-1.982-8.654-5.874-15.841-11.454-19.948Z"/></g><defs><clipPath id="a"><path fill="#fff" d="M0 0h431v614H0z"/></clipPath></defs></svg>