<svg width="112" height="116" fill="none" xmlns="http://www.w3.org/2000/svg"><path fill-rule="evenodd" clip-rule="evenodd" d="M39.12 91.049C18.957 73.024 10.708 49.53 22.383 27.589c13.993-26.302 18.785 13.137 40.273 6.154 21.489-6.984 50.12 10.374 35.476 41.303-13.709 28.953-38.852 34.028-59.014 16.003Z" fill="#F9DE80"/><path d="M89.306 58.678h-5.712c-.735 0-1.332-.648-1.332-1.446V50c0-2.507 1.878-4.546 4.188-4.546 2.31 0 4.189 2.04 4.189 4.546v7.23c0 .8-.597 1.447-1.333 1.447Zm-4.379-2.892h3.046V50c0-.912-.683-1.653-1.523-1.653-.84 0-1.523.741-1.523 1.653v5.785ZM55.988 100h-.203c-7.345-.057-14.277-3.206-19.518-8.866-5.242-5.66-8.177-13.167-8.265-21.136-.116-10.587 4.732-20.307 12.968-26 4.993-3.452 7.974-9.317 7.974-15.691 0-.798.597-1.446 1.332-1.446H61.7c.736 0 1.333.648 1.333 1.446 0 6.387 2.965 12.242 7.933 15.662 4.447 3.063 7.997 7.4 10.27 12.545.112.211.176.457.176.718 0 .767-.55 1.394-1.244 1.443v3.31h1.859c.626 0 1.169.473 1.302 1.137.049.244.097.488.14.734.07.4-.017.815-.243 1.14l-4.961 7.18v15.346c0 .325-.101.64-.287.896C72.631 95.778 64.615 100 55.99 100h-.001Zm-4.424-70.248c-.418 6.801-3.776 12.962-9.163 16.684-7.452 5.152-11.84 13.947-11.734 23.528.163 14.86 11.44 27.037 25.136 27.143h.184c7.653 0 14.774-3.672 19.611-10.093v-15.32c0-.313.093-.617.267-.867l4.112-5.95h-1.142c-.736 0-1.333-.649-1.333-1.447v-6.198c0-.468.204-.883.522-1.148-2.05-3.922-4.956-7.24-8.488-9.673-5.365-3.693-8.71-9.844-9.126-16.658l-8.846-.001Z" fill="#424B25"/><path d="M90.83 100H82.07c-3.57 0-6.473-3.152-6.473-7.025V71.694c0-.799.597-1.447 1.332-1.447h19.04c.737 0 1.334.648 1.334 1.447v21.281c0 3.873-2.905 7.025-6.474 7.025ZM78.262 73.14v19.835c0 2.278 1.708 4.132 3.808 4.132h8.758c2.1 0 3.808-1.854 3.808-4.132V73.14H78.263Z" fill="#424B25"/><path d="M95.97 73.14H76.93c-.505 0-.967-.309-1.193-.799a1.55 1.55 0 0 1 .126-1.515l5.712-8.264a1.301 1.301 0 0 1 1.066-.579h7.616a1.3 1.3 0 0 1 1.066.579l5.712 8.264a1.55 1.55 0 0 1 .126 1.515c-.226.49-.688.8-1.192.8Zm-16.374-2.892h13.708l-3.712-5.372h-6.284l-3.712 5.372Z" fill="#424B25"/><path d="M94.067 64.876H78.835c-.735 0-1.332-.648-1.332-1.446V57.23c0-.798.597-1.446 1.332-1.446h15.232c.736 0 1.333.648 1.333 1.447v6.198c0 .798-.597 1.446-1.333 1.446Zm-13.899-2.893h12.566v-3.305H80.168v3.306ZM103.586 100H17.907c-.736 0-1.333-.648-1.333-1.446 0-.799.597-1.447 1.333-1.447h85.679c.735 0 1.332.648 1.332 1.447 0 .798-.597 1.446-1.332 1.446ZM59.795 29.752H52.18c-.736 0-1.333-.648-1.333-1.446v-6.41c-1.235 1.066-2.772 1.658-4.379 1.658-1.904 0-3.68-.812-4.998-2.257a7.359 7.359 0 0 1-1.665.19c-4.41 0-7.997-3.892-7.997-8.677s3.587-8.678 7.997-8.678c1.872 0 3.676.723 5.097 1.996 1.657-2.517 4.348-4.062 7.278-4.062 2.048 0 3.988.745 5.552 2.094C59.161 1.633 61.738 0 64.555 0c3.598 0 6.641 2.555 7.645 6.12 1.276-1.253 2.959-1.988 4.73-1.988 3.885 0 7.045 3.43 7.045 7.645s-3.16 7.644-7.044 7.644a6.578 6.578 0 0 1-3.524-1.02c-1.53 3.11-4.559 5.152-7.9 5.152a8.404 8.404 0 0 1-4.38-1.243v5.995c0 .799-.596 1.447-1.332 1.447Zm-6.283-2.892h4.95v-7.552c0-.601.344-1.14.862-1.353.519-.212 1.104-.054 1.47.397 1.194 1.467 2.912 2.31 4.713 2.31 2.798 0 5.284-2.04 6.045-4.96.13-.498.494-.883.956-1.01.463-.126.951.024 1.283.395.832.93 1.947 1.442 3.14 1.442 2.414 0 4.379-2.132 4.379-4.752 0-2.62-1.965-4.752-4.38-4.752-1.685 0-3.24 1.07-3.962 2.727-.203.467-.62.78-1.094.823a1.299 1.299 0 0 1-1.205-.616 6.67 6.67 0 0 0-.457-.63 1.516 1.516 0 0 1-.333-.897c-.119-3.106-2.458-5.539-5.324-5.539-2.357 0-4.462 1.714-5.119 4.17-.139.52-.534.911-1.024 1.015-.49.104-.992-.098-1.301-.522-1.202-1.65-3-2.597-4.932-2.597-2.518 0-4.786 1.627-5.778 4.143-.187.477-.597.809-1.073.868-.475.06-.943-.162-1.226-.58-1.002-1.48-2.61-2.365-4.298-2.365-2.94 0-5.331 2.595-5.331 5.785s2.391 5.785 5.33 5.785c.578 0 1.15-.1 1.698-.3.54-.198 1.138 0 1.484.493.837 1.19 2.106 1.873 3.483 1.873 1.29 0 2.509-.614 3.344-1.686.307-.394.784-.58 1.252-.489.374.073.749.11 1.115.11.736 0 1.333.647 1.333 1.446v6.818ZM55.988 91.736c-11.233 0-20.372-9.918-20.372-22.107 0-.799.597-1.447 1.333-1.447.735 0 1.332.648 1.332 1.447 0 10.594 7.944 19.214 17.707 19.214.736 0 1.333.648 1.333 1.447 0 .798-.597 1.446-1.333 1.446ZM55.988 66.942c-2.835 0-5.14-2.502-5.14-5.578 0-3.076 2.305-5.578 5.14-5.578 2.835 0 5.14 2.502 5.14 5.578 0 3.076-2.305 5.578-5.14 5.578Zm0-8.264c-1.365 0-2.475 1.205-2.475 2.686 0 1.481 1.11 2.686 2.475 2.686s2.475-1.205 2.475-2.686c0-1.48-1.11-2.686-2.475-2.686ZM64.556 87.602c-3.36 0-6.093-2.965-6.093-6.611s2.733-6.612 6.093-6.612 6.093 2.966 6.093 6.612-2.733 6.611-6.093 6.611Zm0-10.33c-1.89 0-3.427 1.668-3.427 3.719 0 2.05 1.537 3.719 3.427 3.719 1.89 0 3.427-1.668 3.427-3.72 0-2.05-1.537-3.718-3.427-3.718ZM95.97 89.669H82.642c-.736 0-1.333-.648-1.333-1.446 0-.799.597-1.447 1.333-1.447H95.97c.735 0 1.332.648 1.332 1.447 0 .798-.597 1.446-1.332 1.446Z" fill="#424B25"/></svg>