<svg width="103" height="101" fill="none" xmlns="http://www.w3.org/2000/svg"><path fill-rule="evenodd" clip-rule="evenodd" d="M42.624 84.022C18.851 72.274 5.28 51.9 11.324 27.424c7.243-29.335 21.278 7.415 40.369-5.366 19.09-12.78 50.886-4.055 44.117 29.932-6.336 31.817-29.412 43.78-53.186 32.032Z" fill="#F9DE80"/><path d="M36.031 51.17h30.823v16.725h3.082V41.137c-.002-1.774-.652-3.474-1.807-4.729-1.156-1.253-2.723-1.959-4.357-1.96H62.23v-3.346h1.54c.41 0 .802-.176 1.09-.49.29-.313.452-.738.452-1.182V19.396c0-.444-.163-.87-.452-1.183a1.482 1.482 0 0 0-1.09-.49h-6.164V7.69c0-2.39-1.175-4.598-3.082-5.793a5.75 5.75 0 0 0-6.165 0c-1.907 1.195-3.082 3.403-3.082 5.793v10.034h-6.165c-.85 0-1.54.75-1.54 1.673V29.43c0 .444.162.869.45 1.183.29.313.682.49 1.09.49h1.541v3.344h-1.54c-1.635.002-3.202.708-4.358 1.961-1.155 1.255-1.805 2.955-1.807 4.729v41.809h3.082V51.17Zm12.33-43.48c0-1.196.587-2.3 1.54-2.898a2.875 2.875 0 0 1 3.083 0c.953.598 1.54 1.702 1.54 2.897v10.034H48.36V7.69Zm-7.706 13.378H62.23v6.69H40.656v-6.69Zm3.082 10.034h15.411v3.345H43.737v-3.345Zm-4.624 6.69h24.659c.817 0 1.6.354 2.178.98.578.628.903 1.478.904 2.365v6.69H36.03v-6.69c0-.887.326-1.737.904-2.364.578-.627 1.361-.98 2.178-.981ZM93.899 81.126c-.291-1.745-1.208-3.294-2.55-4.306-1.342-1.012-3-1.405-4.609-1.093l-9.1 1.777-1.091-6.584h-.001a1.69 1.69 0 0 0-.637-1.077 1.447 1.447 0 0 0-1.153-.273l-9.1 1.777c-.402.078-.76.327-.993.692a1.787 1.787 0 0 0-.252 1.25l.273 1.646-4.55.888c-.838.164-1.395 1.034-1.244 1.942l.555 3.345-40.759 9.489c-1.534.357-2.805 1.516-3.393 3.095a5.507 5.507 0 0 0 .46 4.784c.876 1.414 2.34 2.263 3.909 2.269.233 0 .466-.018.698-.055l41.251-6.522.554 3.346c.073.436.302.824.638 1.077.335.253.75.351 1.152.273l4.55-.888.273 1.645c.072.437.301.824.637 1.077s.75.352 1.153.273l9.1-1.777c.838-.164 1.395-1.033 1.244-1.942l-1.09-6.583 9.1-1.777c1.609-.315 3.037-1.31 3.97-2.766.933-1.457 1.295-3.256 1.005-5.003v.001ZM19.917 97.383c-.879.139-1.7-.503-1.858-1.451-.157-.948.407-1.86 1.275-2.062l40.66-9.465 1.073 6.472-41.15 6.506Zm45.012-2.105L62.2 78.818l3.034-.592 2.728 16.46-3.033.592Zm6.613 2.107-3.82-23.042 6.068-1.184 3.82 23.042-6.068 1.184ZM90.363 84.22c-.464.73-1.179 1.228-1.984 1.383l-9.101 1.777-1.091-6.584 9.1-1.776a2.892 2.892 0 0 1 2.305.545c.67.507 1.13 1.281 1.274 2.155a3.573 3.573 0 0 1-.503 2.5Z" fill="#424B25"/><path d="M51.443 56.188c-.457 0-.89.22-1.183.6-1.09 1.416-6.523 8.685-6.523 12.779 0 2.987 1.469 5.748 3.853 7.241a7.185 7.185 0 0 0 7.705 0c2.384-1.493 3.853-4.254 3.853-7.241 0-4.094-5.432-11.363-6.523-12.779-.292-.38-.725-.6-1.182-.6Zm4.623 13.379c0 1.792-.881 3.448-2.312 4.345a4.313 4.313 0 0 1-4.623 0c-1.43-.897-2.312-2.553-2.312-4.345 0-1.795 2.42-5.903 4.624-9.026 2.204 3.123 4.623 7.23 4.623 9.026ZM60.69 54.515h3.082v3.345H60.69v-3.345Z" fill="#424B25"/></svg>