<svg width="274" height="90" fill="none" xmlns="http://www.w3.org/2000/svg"><path d="M57.803 24.45h.675l-1.876-15.9H4.129l-1.952 15.9h.676C4.354 11.775 9.759 9.225 20.794 9.225h5.555V69.6c-.075 8.625-.075 9.3-4.279 9.3v.675h16.59V78.9c-4.279 0-4.279 0-4.279-9.3l-.075-60.375h5.555c11.036 0 16.44 2.55 17.942 15.225Z" fill="#424B25"/><path d="M66.36 31.275C53.75 31.2 45.642 40.05 45.642 54.9c0 16.575 7.581 25.575 20.718 25.575 13.138 0 20.644-9 20.644-25.575 0-14.775-8.107-23.475-20.644-23.625Zm.601 48.6c-11.11 0-12.536-16.2-12.762-24.9-.3-9 1.202-23.025 11.561-23.025 10.36 0 12.611 14.025 12.762 23.025.15 8.7-.376 24.9-11.56 24.9ZM198.031 45.75c0-7.65-5.33-14.475-15.84-14.475-12.611 0-20.719 8.775-20.719 23.625 0 16.575 7.582 25.65 20.719 25.575 11.336 0 15.84-12.375 15.84-22.35h-.676c0 9.45-4.429 21.675-15.164 21.675-9.684 0-11.71-12.15-12.161-21 12.236-.225 28.001-2.625 28.001-13.05ZM170.105 58.2c-.075-1.125-.075-2.25-.075-3.225 0-9 1.877-23.025 12.236-23.025 6.381 0 8.558 2.625 8.558 10.575-.075 12.6-5.78 15.375-20.719 15.675ZM268.445 69.6l-.075-18.9c-.075-13.125-4.654-19.5-14.714-19.5-6.155 0-12.011 4.8-13.362 12.675-1.501-8.55-6.08-12.675-14.188-12.675-5.555 0-11.11 4.2-12.911 10.875v-.225l-.676-9.6h-11.561v.675c4.204 0 4.204.675 4.204 9.3v27.45c0 8.625-.075 9.3-4.279 9.3v.675h16.59v-.675c-4.278 0-4.278 0-4.278-9.3v-22.35c0-8.925 5.179-14.775 11.485-14.7 6.981.075 8.032 9.975 8.182 22.35l.076 14.7c.075 9.3-.076 9.3-4.279 9.3v.675h16.59v-.675c-4.204 0-4.279-.675-4.279-9.3l-.075-18.9a28.8 28.8 0 0 0-.225-3.75c.225-8.7 5.329-14.4 11.485-14.325 6.981.075 8.258 9.975 8.258 22.35v14.7c0 9.3-.075 9.3-4.279 9.3v.675h16.59v-.675c-4.204-.15-4.279-.825-4.279-9.45Z" fill="#424B25"/><path d="M131.37 27.75c3.228-1.05 15.089 2.55 23.722-.225 5.48-1.8 9.758-6.225 9.683-16.2l-.6.225c.15 5.025-3.078 7.65-7.507 9.075-7.357 2.4-18.392 1.575-24.022 3.375-2.853.9-4.729 2.625-3.378 5.475 0 0 1.727 4.2 12.837 4.875v30.375c0 15.975 9.684 15.675 10.96 15.675 6.531 0 6.531-10.05 6.531-10.875h-.676c0 3.525-1.351 9.975-5.18 9.975-4.354 0-3.603-9.075-3.603-30.225V33.6c-3.153.075-5.855.075-8.032-.075-10.66-.825-11.486-4.125-11.486-4.125-.3-.9 0-1.425.751-1.65Z" fill="#424B25"/><path d="M150.137 36.15v-4.8s-3.378 2.85-7.882 2.175M87.605 32.1h12.236c0 37.125-1.201 47.025 8.183 47.025 7.206 0 12.236-10.95 12.236-17.625 0-6.45.075-11.7 0-19.5-.075-8.625 0-9.3-4.204-9.3v-.675h12.236v37.35c0 8.625.075 9.3 4.204 9.3v.675c-6.831 0-12.161.825-12.236-9.975v-3c-1.502 6.375-6.081 13.875-14.338 13.875-15.915 0-14.113-15.825-14.113-38.325 0-8.625 0-9.3-4.204-9.3V32.1Z" fill="#424B25"/></svg>