<svg width="153" height="50" fill="none" xmlns="http://www.w3.org/2000/svg"><path d="M32.083 13.583h.375L31.417 4.75H2.292l-1.084 8.833h.375c.834-7.041 3.834-8.458 9.959-8.458h3.083v33.542c-.042 4.791-.042 5.166-2.375 5.166v.375h9.208v-.375c-2.375 0-2.375 0-2.375-5.166l-.041-33.542h3.083c6.125 0 9.125 1.417 9.958 8.458Z" fill="#424B25"/><path d="M36.833 17.375c-7-.042-11.5 4.875-11.5 13.125 0 9.208 4.209 14.208 11.5 14.208 7.292 0 11.459-5 11.459-14.208 0-8.208-4.5-13.042-11.459-13.125Zm.334 27c-6.167 0-6.959-9-7.084-13.833-.166-5 .667-12.792 6.417-12.792s7 7.792 7.083 12.792c.084 4.833-.208 13.833-6.416 13.833ZM109.917 25.417c0-4.25-2.959-8.042-8.792-8.042-7 0-11.5 4.875-11.5 13.125 0 9.208 4.208 14.25 11.5 14.208 6.292 0 8.792-6.875 8.792-12.416h-.375c0 5.25-2.459 12.041-8.417 12.041-5.375 0-6.5-6.75-6.75-11.666 6.792-.125 15.542-1.459 15.542-7.25Zm-15.5 6.916c-.042-.625-.042-1.25-.042-1.791 0-5 1.042-12.792 6.792-12.792 3.541 0 4.75 1.458 4.75 5.875-.042 7-3.209 8.542-11.5 8.708ZM149 38.667l-.042-10.5c-.041-7.292-2.583-10.834-8.166-10.834-3.417 0-6.667 2.667-7.417 7.042-.833-4.75-3.375-7.042-7.875-7.042-3.083 0-6.167 2.334-7.167 6.042v-.125l-.375-5.333h-6.416v.375c2.333 0 2.333.375 2.333 5.166v15.25c0 4.792-.042 5.167-2.375 5.167v.375h9.208v-.375c-2.375 0-2.375 0-2.375-5.167V26.292c0-4.959 2.875-8.209 6.375-8.167 3.875.042 4.459 5.542 4.542 12.417l.042 8.166c.041 5.167-.042 5.167-2.375 5.167v.375h9.208v-.375c-2.333 0-2.375-.375-2.375-5.167l-.042-10.5c0-.75-.041-1.458-.125-2.083.125-4.833 2.959-8 6.375-7.958 3.875.041 4.584 5.541 4.584 12.416v8.167c0 5.167-.042 5.167-2.375 5.167v.375h9.208v-.375c-2.333-.084-2.375-.459-2.375-5.25Z" fill="#424B25"/><path d="M72.917 15.417c1.791-.584 8.375 1.416 13.166-.125 3.042-1 5.417-3.459 5.375-9l-.333.125c.083 2.791-1.708 4.25-4.167 5.041-4.083 1.334-10.208.875-13.333 1.875-1.583.5-2.625 1.459-1.875 3.042 0 0 .958 2.333 7.125 2.708v16.875c0 8.875 5.375 8.709 6.083 8.709 3.625 0 3.625-5.584 3.625-6.042h-.375c0 1.958-.75 5.542-2.875 5.542-2.416 0-2-5.042-2-16.792v-8.708c-1.75.041-3.25.041-4.458-.042-5.917-.458-6.375-2.292-6.375-2.292-.167-.5 0-.791.417-.916Z" fill="#424B25"/><path d="M83.333 20.083v-2.666S81.458 19 78.958 18.625M48.625 17.833h6.792c0 20.625-.667 26.125 4.541 26.125 4 0 6.792-6.083 6.792-9.791 0-3.584.042-6.5 0-10.834-.042-4.791 0-5.166-2.333-5.166v-.375h6.791v20.75c0 4.791.042 5.166 2.334 5.166v.375c-3.792 0-6.75.459-6.792-5.541v-1.667c-.833 3.542-3.375 7.708-7.958 7.708-8.834 0-7.834-8.791-7.834-21.291 0-4.792 0-5.167-2.333-5.167v-.292Z" fill="#424B25"/></svg>