<svg width="25" height="25" fill="none" xmlns="http://www.w3.org/2000/svg"><g clip-path="url(#a)" fill="#5F6C37"><path d="M12.234 2.251c3.269 0 3.656.015 4.941.073 1.195.054 1.84.259 2.27.43.57.225.98.498 1.405.933.43.439.693.854.913 1.435.167.44.368 1.104.42 2.32.058 1.318.072 1.713.072 5.048 0 3.34-.014 3.736-.071 5.05-.053 1.22-.254 1.879-.42 2.318a3.873 3.873 0 0 1-.914 1.436c-.43.44-.836.708-1.405.933-.43.17-1.08.375-2.27.43-1.29.058-1.677.073-4.941.073-3.269 0-3.656-.015-4.941-.074-1.195-.053-1.84-.258-2.27-.43a3.776 3.776 0 0 1-1.405-.932 3.853 3.853 0 0 1-.913-1.436c-.167-.44-.368-1.103-.42-2.319-.058-1.318-.072-1.714-.072-5.049 0-3.34.014-3.735.071-5.049.053-1.22.254-1.88.42-2.319.22-.581.488-1 .914-1.435.43-.44.836-.708 1.405-.933.43-.171 1.08-.376 2.27-.43 1.285-.058 1.672-.073 4.941-.073Zm0-2.251C8.913 0 8.497.015 7.192.073 5.892.132 5 .347 4.225.654A5.96 5.96 0 0 0 2.055 2.1 6.14 6.14 0 0 0 .64 4.312C.34 5.107.13 6.016.072 7.344.014 8.682 0 9.106 0 12.5c0 3.394.014 3.818.072 5.151.057 1.329.267 2.242.568 3.033A6.116 6.116 0 0 0 2.055 22.9a5.968 5.968 0 0 0 2.165 1.44c.779.308 1.668.523 2.968.582 1.304.058 1.72.073 5.041.073 3.322 0 3.737-.015 5.042-.073 1.3-.059 2.194-.274 2.968-.581a5.968 5.968 0 0 0 2.165-1.44 6.127 6.127 0 0 0 1.41-2.212c.3-.796.51-1.705.568-3.033.057-1.333.072-1.758.072-5.151 0-3.394-.015-3.818-.072-5.151-.057-1.329-.268-2.242-.569-3.033a5.871 5.871 0 0 0-1.4-2.221A5.968 5.968 0 0 0 20.248.66C19.47.351 18.58.136 17.281.077 15.97.015 15.555 0 12.234 0Z"/><path d="M12.234 6.08c-3.47 0-6.284 2.875-6.284 6.42s2.815 6.42 6.284 6.42c3.47 0 6.284-2.875 6.284-6.42s-2.814-6.42-6.284-6.42Zm0 10.585c-2.25 0-4.076-1.865-4.076-4.165s1.825-4.165 4.076-4.165c2.25 0 4.077 1.865 4.077 4.165s-1.826 4.165-4.077 4.165ZM20.234 5.825c0 .83-.66 1.5-1.467 1.5-.813 0-1.467-.675-1.467-1.5 0-.83.66-1.499 1.467-1.499.808 0 1.467.674 1.467 1.5Z"/></g><defs><clipPath id="a"><path fill="#fff" d="M0 0h24.468v25H0z"/></clipPath></defs></svg>