<svg width="112" height="113" fill="none" xmlns="http://www.w3.org/2000/svg"><path fill-rule="evenodd" clip-rule="evenodd" d="M39.033 88.049C18.87 70.024 10.623 46.53 22.297 24.589c13.994-26.302 18.786 13.137 40.274 6.154 21.489-6.984 50.119 10.374 35.475 41.303-13.708 28.953-38.852 34.028-59.013 16.003Z" fill="#F9DE80"/><path d="M97.727 56.863h-3.614V52.94h3.614V49.02h-3.614v-5.883c0-.52-.19-1.019-.53-1.386a1.738 1.738 0 0 0-1.277-.574h-3.614v-5.883a14.604 14.604 0 0 0-1.99-7.38c-1.297-2.204-3.146-3.962-5.332-5.065l.175-.507h.001a31.548 31.548 0 0 0-.21-21.11c-.21-.566-.649-.995-1.19-1.16a1.695 1.695 0 0 0-1.572.32l-4.337 3.53a35.26 35.26 0 0 1-10.254 5.83 33.519 33.519 0 0 1-11.429 2.013c-4.724-.001-9.293 1.825-12.889 5.15-3.596 3.324-5.982 7.93-6.731 12.992-2.37.713-4.496 2.157-6.123 4.158-1.625 2.001-2.68 4.472-3.036 7.112H20.03c-.998 0-1.807.878-1.807 1.96v5.883h-3.614v3.921h3.614v3.922h-3.614c-.998 0-1.807.878-1.807 1.96v33.334c.002 2.08.765 4.073 2.12 5.543 1.354 1.47 3.191 2.297 5.108 2.3h72.276c1.917-.003 3.754-.83 5.109-2.3 1.354-1.47 2.116-3.463 2.119-5.543V58.824c0-.52-.19-1.02-.53-1.387a1.739 1.739 0 0 0-1.277-.574Zm-61.435-23.53h23.49v-3.921H36.699c.82-3.899 2.834-7.38 5.714-9.873 2.88-2.494 6.457-3.853 10.141-3.853 4.273.001 8.518-.746 12.572-2.213a38.767 38.767 0 0 0 11.28-6.414l2.348-1.912a27.353 27.353 0 0 1-.592 15.818l-.261.754a11.702 11.702 0 0 0-1.857-.15H67.01v3.921h9.034c2.395.003 4.692 1.037 6.386 2.875s2.646 4.33 2.649 6.93v5.882h-57.64c.42-2.213 1.529-4.201 3.141-5.63 1.614-1.43 3.63-2.21 5.712-2.213ZM21.836 52.942H38.1V49.02H21.837v-3.922h68.662v3.922h-5.42v3.921h5.42v3.922H21.837V52.94ZM95.92 92.157a4.1 4.1 0 0 1-1.06 2.771c-.678.736-1.596 1.15-2.554 1.15H20.03c-.959 0-1.877-.415-2.554-1.15a4.1 4.1 0 0 1-1.06-2.771V60.785H95.92v31.372Z" fill="#424B25"/><path d="M41.712 49.02h39.753v3.921H41.712V49.02ZM56.168 88.235c2.396 0 4.694-1.032 6.389-2.87 1.694-1.84 2.645-4.334 2.645-6.933 0-2.6-.951-5.094-2.645-6.933-1.695-1.839-3.993-2.871-6.39-2.871-2.395 0-4.693 1.032-6.388 2.87-1.694 1.84-2.646 4.334-2.646 6.933.003 2.6.955 5.092 2.65 6.93 1.693 1.838 3.99 2.872 6.385 2.874Zm0-15.686c1.437 0 2.817.62 3.833 1.723 1.016 1.103 1.588 2.6 1.588 4.16S61.017 81.487 60 82.59c-1.016 1.103-2.396 1.723-3.833 1.723-1.437 0-2.817-.62-3.833-1.723-1.017-1.103-1.588-2.6-1.588-4.16.002-1.56.574-3.055 1.59-4.157 1.016-1.103 2.393-1.723 3.831-1.725Z" fill="#424B25"/></svg>