<svg width="25" height="25" fill="none" xmlns="http://www.w3.org/2000/svg"><path fill-rule="evenodd" clip-rule="evenodd" d="M12.458 24.639c6.723 0 12.174-5.452 12.174-12.174 0-6.722-5.451-12.173-12.174-12.173C5.736.292.285 5.742.285 12.465c0 5.088 3.123 9.449 7.557 11.268l.033.24c.069-.048.136-.097.201-.147a12.14 12.14 0 0 0 4.382.813Zm-4.382-.813c1.81-1.39 2.443-3.9 2.966-6.513.247.142.465.287.674.425.622.412 1.155.764 2.097.832 4.638.34 7.229-4.41 6.597-8.8-.57-3.888-4.64-5.867-8.973-5.402-3.43.368-6.847 3.007-6.986 6.785-.09 2.305.875 4.035 3.18 4.52.265-1.09.313-1.68.313-1.68s-1.013-.972-1.118-1.59c-.847-4.972 6.021-8.368 9.625-4.896 2.486 2.41.848 9.82-3.166 9.049-2.005-.384-1.41-2.169-.813-3.954.547-1.641 1.095-3.283-.375-3.838-2.493-.944-3.82 2.882-2.639 4.778-.182.859-.42 1.705-.661 2.56-.656 2.33-1.33 4.726-.955 7.63.078.032.156.064.234.094Z" fill="#5F6C37"/></svg>