<svg width="25" height="25" fill="none" xmlns="http://www.w3.org/2000/svg"><path fill-rule="evenodd" clip-rule="evenodd" d="M25 12.5C25 19.404 19.404 25 12.5 25S0 19.404 0 12.5 5.596 0 12.5 0 25 5.596 25 12.5ZM12.948 9.228c-1.216.506-3.646 1.552-7.29 3.14-.592.235-.901.466-.93.69-.047.381.429.53 1.078.735.088.028.18.056.273.087.638.207 1.497.45 1.943.46.405.008.857-.159 1.356-.501 3.404-2.298 5.162-3.46 5.272-3.485.078-.018.186-.04.26.025.072.065.065.188.057.221-.047.201-1.917 1.94-2.885 2.84-.301.28-.515.479-.559.524-.098.102-.198.198-.294.29-.593.572-1.037 1.001.025 1.701.51.336.919.615 1.326.892.445.303.889.605 1.463.982.147.096.286.195.423.292.517.37.983.701 1.557.648.335-.03.68-.344.855-1.281.414-2.214 1.228-7.01 1.416-8.987a2.213 2.213 0 0 0-.02-.492.527.527 0 0 0-.179-.339c-.15-.121-.38-.147-.484-.145-.47.008-1.192.26-4.663 1.703Z" fill="#5F6C37"/></svg>