<svg width="260" height="564" fill="none" xmlns="http://www.w3.org/2000/svg"><g clip-path="url(#a)" fill="#BFD3B6" fill-opacity=".6"><path d="M97.674 4.85c-.279-.047-.418-.28-.372-.7-1.488.28-2.837.747-3.023 2.239 1.535-.093 2.698-.606 3.395-1.54ZM150.651 37.588c-.139-.14.233.233 0 0ZM143.814 62.304c.977-1.772 2.884-2.705 3.628-4.71-2.419-.98-4.465 2.798-3.628 4.71ZM81.023 80.585c.465.373 2.233.046 2.047-1.12-.698-.606-2.14 0-2.047 1.12ZM129.116 83.196c1.535 2.938-3.023 2.659-3.953 4.384 1.628.746 3.488-1.26 5.209-.606.14-2.239 3.907-1.12 3.302-4.01-2.372.232-2.604 1.118-4.558.232ZM105.581 93.036c2.605-1.306 3.256-4.383 4.931-6.482-3.675.28-3.442 4.15-4.931 6.482ZM116.837 163.268c-.325 0-.698.047-1.023.047l.139 2.798c1.814.466 1.489-2.145.884-2.845ZM120.372 164.481c-.232.746-.744 2.005-.232 2.471 1.441.28 2-2.658.232-2.471ZM134.884 169.424c-1.21-1.399-3.582-3.265-6-2.145 1.256 1.445 3.349 2.098 6 2.145ZM135.349 187.145c-1.209-1.212-1.582-2.005-.884-3.777-3.535 1.539-4.511-4.104-7.767-2.752 0 .327.046.7.046 1.026 3.628.746 5.675 5.177 8.605 5.503ZM106.651 183.274c.047-.419.512-.419 1.023-.419-.046-.607.047-1.073.279-1.399-1.162-.28-2.279 1.212-1.302 1.818ZM53.07 196.938c-.28.746.977 1.539 1.07.653-.512-.093-.605-.559-1.07-.653ZM60.884 223.753c.14-2.192 1.07-6.855-.047-8.021 0 2.192-2.558 6.622.047 8.021ZM78 225.385c.465-1.912 1.442-7.694.186-10.446.418 3.405-2.884 8.161-.186 10.446ZM98.326 467.466l-.047-.047.047.047ZM205.628 502.489c.046.046.046.046.093.046-.047 0-.14-.046-.093-.046-.047 0-.047 0 0 0ZM92.884 530.749s.186.187 0 0Z"/><path d="M236.372 461.31c4.186 2.425 8.326 4.99 12.837 7.089-5.302.933-10.697-4.291-15.907-5.876-1.907.839-3.674 1.772-5.814 2.378 3.907 3.591 9.396 5.503 14.279 8.068-9.162.28-15.907-10.633-25.953-5.13 3.581 2.845 9.209 5.503 12.186 7.788-4.977 1.026-10.186-6.295-15.953-6.902-4.373-.466-8.373 2.192-13.814 2.052 3.907.7 7.209 5.41 11.767 6.063 4.233.606 8.884-1.213 11.256 2.611-3.814-1.259-7.023-1.026-11.861-.839 1.768 1.679 3.582 3.404 5.117 5.316 6.046.653 12.79.513 15.86 4.477-4.279-.886-7.953-2.471-13.302-2.145.604 1.492 3.302 3.917 4.465 6.062 4.744.653 9.814.933 12.698 3.591-2.652.373-6.373-1.305-9.814-1.305-.047 1.818 2.511 3.777 4.046 5.036 3.814.047 8.744-1.072 11.163.513-1.302.886-6.512 1.166-8.651 1.119.883 1.726 2.558 2.565 3.674 4.011-2.558.793-5.023-1.492-6.744-2.845-.698 1.586 0 4.43-.744 5.969-1.675-4.103-.791-10.166-5.07-11.985-.512 3.078-.419 6.716-.233 10.446-2.93-2.425-.93-9.187-2.325-13.15-1.023-2.892-3.535-3.731-4.465-6.063-1.163 4.197-.419 9.327-.791 12.918-2.465-2.798-1.488-10.493-1.023-14.597-1.814-2.518-3.675-4.943-6.233-6.669.186 4.198-.511 6.949-.139 11.846-3.489-2.985-.605-10.353-2.372-13.851-1.396-2.705-3.814-2.238-6.419-3.871 1.116 2.892 2 7.928.884 11.099-2.233-3.171-1.07-10.073-4.047-12.358-12.279.886-22.279.933-31.209 1.819 1.488 1.492 2.837 3.451 5.07 4.664 5.209 2.751 14.604.606 19.628 3.637-1.07 1.119-2.652-.28-4.186-.513-3.628-.513-8.326.187-12.186-.839 1.348 2.098 2.465 5.502 5.534 6.715 5.117 2.005 14.605-2.238 15.861 4.477-3.628-3.824-10.372-2.612-14.372-2.798 1.488 2.984 3.767 5.13 5.581 7.741 4.744 1.959 14.047-1.072 17.814 1.959-.977 1.585-1.953-.093-3.488-.187-3.907-.279-9.163 1.399-12.837.233.279 2.379 2.046 3.078 2.325 5.457 5.116.186 12.419.886 16.837 3.031-4.558.56-9.395-1.819-14.976-1.026.046 1.446 1.907 4.011 2.697 5.783 7.489 1.492 15.349 2.611 18.512 8.907-5.023-3.777-10.465-6.482-17.023-6.855 1.023 3.124 3.348 4.803 4.511 7.788 6.698 1.539 13.535 2.891 17.07 7.928-4.186-2.425-8.651-4.617-14.512-5.27.512 2.098 3.768 4.384 4.838 7.088-4.279-1.259-5.303-6.109-8.419-8.674-.884 3.918-1.302 8.534.233 12.172-4.326-2.425-2.373-10.12-1.721-14.224-1.024-2.425-2.419-4.383-4.093-6.062-2.419 3.684-2.326 10.493-1.303 16.788-2.604-.979-2.558-5.036-2.465-7.881.14-4.057 1.349-9.047 2.977-10.959-1.628-2.705-3.116-5.596-4.884-8.115-1.907 4.99-3.442 13.291-2.232 18.934-4.652-4.337-.372-14.876.744-20.939-1.349-2.425-3.163-4.337-4.465-6.762-3.582 3.731-3.489 13.664-2.651 17.535-4.745-4.943-.791-14.644.837-19.913-2.14-3.031-4.744-5.503-6.977-8.394-2 5.456-.744 14.456-.512 19.213-2.697-2.285-2.325-7.601-2.325-12.451.046-6.576 1.86-11.239-4.419-13.058-.232 7.182-.558 10.12.047 16.042-4.698-7.508 2-19.446-8.279-21.219-5.117-.886-12.419 1.493-19.442.56 1.628 8.767 17.674 2.565 21.674 9.793-4.511-2.984-10.791-2.751-17.163-3.031.745 2.332 1.21 3.358 2.326 4.757 4.791 1.819 12.977-.14 15.488 4.15-4.186-2.052-9.488-.932-15.023-1.725.279 9.84 12 5.316 18.093 8.207-.698 1.306-2.186-.093-3.488-.186-4.512.746-8.14 1.399-11.442.186 1.442 6.436 7.256 9.001 14.372 9.794 2.14.233 4.93-.793 6.651 1.072-5.628.886-12.279-.186-17.488-2.658.93 10.913 10.977 11.799 21.116 12.592-4.139 1.212-12.465.932-16.744-1.306.651 2.471 1.721 4.43 2.744 6.482 1.535.28 2.279 1.772 4.279 2.238 3.768.933 9.395-1.072 10.884 2.612-4.465-1.539-8.698.466-12.93-1.492 1.953 9.933 19.023 5.13 22.139 12.544-4.698-3.264-11.953-2.984-17.256-4.756 4.838 6.529 11.163 11.379 15.442 18.467-5.814-5.036-10.744-11.099-17.07-15.576-1.069 4.71.093 8.581.931 12.498-6.605-4.057 1.209-16.089-4.745-20.006-2.186 3.078-3.302 8.254-2.883 12.685-3.768-4.151.325-11.006 1.395-15.063-1.209-1.959-2.325-4.011-3.767-5.737-2.326 3.545-3.535 8.115-3.907 13.431-3.21-3.731 1.069-11.705 2.744-15.809-1.349-2.285-2.651-4.617-3.489-7.508-2.558 3.218-4.837 6.669-5.023 12.078-3.023-3.591.884-9.093 2.605-11.612 1.302-4.29-.837-8.021-2.279-11.379-1.907 4.151-4.884 9.094-7.814 11.193 2.651-7.135 10.139-13.897 3.488-22.105-2.093 4.197-3.581 8.954-5.628 13.151-1.442-5.27 3.349-10.446 4.14-15.903-1.07-1.958-2.14-4.01-3.395-5.782-2.419 2.751-2.28 7.881-3.256 11.985-3.303-6.762 4.93-15.39-2.605-18.701-8.558.467-17.581-.932-25.767-.886.093 1.119 2.465 2.892 2.651 5.083 4.79 2.659 11.535 3.172 17.256 4.757-4.652 1.353-10.047-.979-15.396-1.725.512 2.098 1.396 3.824 2.326 5.456 3.442 4.384 14.232.699 16.651 6.202-3.163-2.844-10.465-1.119-14.744-2.798 1.953 11.519 17.814 7.695 22.651 16.043-5.256-3.731-12.465-5.27-19.116-7.462.511 2.472 1.442 3.871 2.046 6.855 7.163 2.099 14.186 4.337 19.163 8.861-5.256-1.259-10.93-5.27-17.674-6.156.232 2.052 2.465 5.13 3.162 7.881 6.651 2.192 14.558 3.032 17.814 8.954-4.976-3.591-9.907-5.13-16.651-6.529.884 3.032 2.047 5.783 3.163 8.581 6.139.42 13.674 2.425 16.791 7.415-4.512-2.565-9.489-4.663-15.907-5.176.046 1.912 2.279 4.57 3.116 6.808 4.977 1.772 13.767 2.425 16.605 6.203-5.349-1.493-9.117-2.379-14.745-3.498 1.442 3.544 3.442 6.482 5.303 9.514 5.907 3.591 15.86 2.798 19.209 9.233-4.233-3.404-10.698-4.29-16.279-6.202.93 2.845 6 6.016 7.023 8.721-3.116-.234-5.023-4.99-7.953-6.623-1.675 3.685-3.024 7.695-5.768 10.4-.697-2.891 3.256-7.182 4-11.006-.604-2.751-3.116-3.404-4.744-4.99-3.163 3.311-4.558 10.027-8.884 11.239 1.628-2.658 3.535-6.389 5.442-9.653 1.023-1.726 3.023-2.985 2.884-5.037-.14-2.611-2.884-3.497-3.442-6.808-3.116 2.704-4.046 7.415-6.093 11.099-1.628-3.638 2.465-9.094 4.605-13.105-1.117-3.171-2.837-5.642-3.907-8.86-3.907 4.43-4.837 11.565-7.907 16.742.697-7.788 3.302-13.851 7.116-18.794-1.116-2.145-2.372-4.244-3.116-6.809-4.372 3.358-6.047 9.141-8.744 13.991-.698-5.783 4.604-11.752 7.581-16.369-.837-2.845-2.093-5.223-2.837-8.255-4.093 2.799-7.396 11.006-9.721 15.437-.884.139-.512-1.446-.465-2.052.604-5.55 6.837-10.913 8.651-16.089-.326-1.959-1.535-2.938-1.954-4.804-3.534 3.638-5.767 8.534-8.418 12.965-1.303-4.477 5.256-10.726 7.302-14.97-.651-2.332-1.953-3.917-2.698-6.156-3.488 3.591-4.232 9.654-9.534 11.612 2.837-4.43 5.953-8.581 8.046-13.617-.837-2.612-2.605-4.197-3.442-6.809-3.116 3.731-5.21 10.073-10.279 10.959 2.884-4.43 11.256-10.213 6.558-16.322-2.79 4.477-6.744 7.835-10.604 11.286 1.255-5.876 7.72-6.949 8.79-12.965-1.907-2.564-4.418.094-7.302.327-1.581-.42 1.442-1.912 1.954-2.518-12.047-2.192-23.21-.7-36.791 1.352 3.488 5.596 19.023-1.119 23.488 4.477-1.488 1.352-3.256-.56-5.581-.793-4.372-.42-9.768 1.492-13.86.653-.047 4.57 10 3.404 9.906 3.358 5.442.559 10.884 2.285 14.512 5.596-4.698-2.891-14.605-2.891-21.395-3.871.511 1.493 1.627 2.379 2.279 3.731 8.279 2.192 18.465 2.378 23.023 8.674-5.395-4.337-14.372-4.803-21.489-6.296 2 12.172 17.628 9.327 24.42 16.276-6.094-3.031-14.326-3.731-20.14-7.089-.14 1.026 1.348 3.358 1.953 4.804 2.698 3.311 6.28 5.176 10.744 7.181 4 1.773 9.21 1.913 10.372 6.483-5.488-3.918-13.07-5.596-19.209-8.861.419 2.845 1.953 4.43 2.419 7.229 9.07 2.098 16.976 8.627 22.279 16.042-4.838-3.125-9.535-8.814-15.535-12.172-1.628-.933-3.675-1.026-5.303-1.865-.093 1.445 1.489 4.244 2.373 5.829 6.232 3.404 12.325 6.902 15.581 13.571-4.977-3.404-8.744-8.161-14.419-10.819 3.163 8.207 8.465 14.13 12.465 21.358-3.627-1.725-5.07-5.876-7.72-8.72-2.14 1.912-.605 8.207-.884 10.865-3.721-3.637.465-12.171-2.465-15.902-2.605 3.031-4 7.228-4.28 12.405-3.441-4.337 1.257-11.099 3.117-14.783-.558-1.586-1.535-2.705-1.954-4.431-4.046 3.078-4.744 9.234-7.348 13.571-.605-6.342 2.976-11.659 6.232-15.623-.977-2.098-1.907-4.197-2.744-6.482-3.954 3.498-5.116 9.56-8.046 13.991-.745-6.016 6.232-15.157 7.302-14.97-.651-2.705-2.28-4.29-2.79-7.182-3.675 2.798-7.861 7.928-9.815 13.338-1.628-6.622 5.582-10.866 8.326-15.716-.558-2.425-2-3.871-2.698-6.156-4.512 3.871-7.953 10.493-13.674 12.125 4-4.897 9.441-8.487 12.186-14.503-.419-2.472-2.372-3.265-2.698-5.783-3.767 4.011-10.884 14.037-11.116 15.156-1.256-3.311 2.14-6.435 4.093-8.907 2.232-2.845 4.046-5.503 5.488-8.627-1.163-2.099-2.372-4.198-3.767-6.11-2.884 3.871-5.024 10.26-4.884 14.877-3.86-4.524 1.674-12.731 3.395-16.555-.511-1.399-1.72-2.006-2.558-3.032-2.977 4.384-6.232 8.534-6.93 14.97-3.535-5.923 3.907-11.239 4.79-16.602-.325-.606-.837-1.026-1.441-1.306-2.698 2.192-3.907 5.783-6.93 7.648-.42-3.357 3.627-5.269 4.465-8.58-4.745-1.353-9.396 4.243-13.675 5.503-4.093 3.73-7.72 17.441-13.256 34.416l-2.093-2.378c-.604-1.213-1.255-2.425-1.86-3.685.977 0 .837.327 1.814-.093.698.233 0 1.959.79 2.052 1.861-2.285-1.255-6.575.326-8.394 1.907-.28.651 1.819 1.814 1.679.093-2.565-.79-4.011-.651-6.576.79-.839 2.14-1.166 1.581-3.218-.65-1.072-1.348.187-2.093-.606.14-1.865 1.675-3.684.093-5.223 2.745.28.465-4.011 3.675-3.311.186 1.399-.698 1.772-.558 3.171.65-1.072 2-2.938 3.07-.839-.326-1.213.697-1.726-.094-2.425-.372-.84-2.511.326-2.14-1.306a17.963 17.963 0 0 1 4.466-1.586c-.79-.932-3.954.7-3.86-1.212.744-.886 2.837-.513 3.767-1.213-1.07.047-1.767-.233-2.14-.932 1.303-1.446 3.721.279 4.419-1.959-1.163.187-2 0-1.814-1.306 1.349-.979 3.349.7 3.767-1.212-.883-.28-2.418.186-2.465-.933 2.791-1.352 7.535-.42 11.814-.56-.093-.886-.697-1.072.28-1.399 8.883.047 16.232-5.083 28.325-4.103 3.023-.047.698-.653-1.07-.28l-5.21.233c-5.58.186-13.44.933-20.046 2.332-3.209.653-7.72 3.171-10.093.14 1.024-1.26 1.024-4.198 1.814-5.643 1.442-.14.512 1.306 1.117 1.352.279-.979.744-1.772.93-2.845 3.581-2.938 6.837-7.461 10.93-11.658 3.954-4.057 7.023-8.861 10.186-12.312.651-.746 3.396-3.218 4-3.311.372-.046.837.793 1.07.653 1.72-1.026 3.581-4.57 5.953-6.575 2.698-2.286 5.768-5.13 7.675-7.322 3.163-3.731 6.279-7.135 9.953-10.586 10.14-9.654 18.838-20.193 27.396-31.245 4.651-5.97 9.907-11.519 13.767-17.722 5.488-8.814 8.14-20.799 8.558-33.157.465-14.923.558-24.81-1.163-40.386-3.023-27.421-11.86-48.5-22.651-68.646 1.861 3.964 2.558 8.721 4.093 13.058 1.303 3.777 3.396 7.042 4.651 10.26 9.489 23.97 14.419 52.977 12.838 81.33-.605 10.587-1.489 21.779-4.838 30.22-1.116 2.798-3.581 5.876-5.488 8.954-1.86 3.077-3.767 6.342-5.86 9-14.326 18.281-30.28 33.624-46.326 50.272-15.349 15.903-31.023 31.898-46.512 46.775-.604.653.466.979-.279 1.772-1.488-1.259-.697 1.586-2.372 1.166-1.116-1.213 1.907-2.985.186-3.824-.558.699-.325 2.145-1.628 2.145-1.348-2.472 2.745-4.244 1.768-6.342-.28-.886-1.535 1.305-1.768-.28-.093-2.472 3.163-3.778 1.489-5.643-.558-1.119-1.396 1.446-1.768-.28.047-2.052 1.628-2.705 1.86-4.617-.278-1.259-1.069-2.005-1.534-3.077.279-1.539.93-2.705 1.535-3.918-.558-1.492-2.28-3.544-1.628-5.176.325 0 .418-.28.698-.373 1.488.559.79 3.544 2.279 4.057.465-3.358-3.954-6.342-3.256-9.98.325 0 .418-.28.697-.373 1.396 1.492 1.768 4.151 3.07 5.783-1.07-4.524-3.023-6.902-4.697-11.286.511-.186.837-.559 1.348-.746 1.442 2.192 2.233 5.13 3.489 7.508-.233-5.503-3.628-10.586-5.582-15.436.047-.979 1.256-.839 1.675-1.492-.326-2.845-4.512-6.389-2.14-8.628 2 2.146 2.651 7.788 4.233 9.234-.977-3.824-2.558-6.949-3.628-10.633-.837.094-1.674.14-1.768-.606-2.558-20.566-3.906-38.147-7.116-55.775-.511-.047-1.256.187-1.395-.28-.698-7.508-1.023-18.141-2.047-28.82-.046-.56-.976-.14-1.07-.653.14-2.238-.558-3.498-.604-5.55 1.72-1.632.837-7.321-.093-9.42.605-10.492-1.721-21.592-2.186-32.318-.28-6.622-2.605-14.316-.465-17.767C6.512 251.454 6 248.656 6 240.215c0-10.353-.558-22.618.14-34.509.279-5.084 1.441-16.882 2.65-17.535 1.21-.653.14 1.679 1.024-.047.977-1.912.512-5.782 1.72-7.741-1.86.513-.139 4.29-2.93 3.964 1.024-4.617.745-10.446 3.536-13.431.65.047.186 3.171.79 2.052.186-2.052.558-3.917 1.117-5.643-.838.094-1.675.14-1.768-.606C14.93 149.837 22.465 137.386 28 123.116c.419-.513 1.628-.28 2.047-.793.465-5.083 3.86-9.887 5.906-14.55 2.373 1.072 2.698-2.379 4-3.311-.186-1.213-1.534-.607-.79-2.052.14-1.166 1.628.14 2.093-.093 1.023-.513.605-2.286 1.907-3.918.651-.84 1.349-.046 1.72-.793.512-1.119.047-2.704.512-3.497.605-.047 1.07.046 1.396.28.093-1.68.232-3.358 1.535-3.918.65.653 0 1.959-.233 2.798 3.674-4.617 12.186-6.622 11.535-14.13-.558 2.052-.79 4.384-2.512 5.363-.604-2.005 1.535-3.218.465-4.57-.79 1.959-1.116 6.062-2.837 6.062.14-1.772.744-3.078 1.163-4.57-2.419 1.213-1.256 7.508-3.814 7.508-.047-1.632 1.535-3.497.465-4.896-2.046 1.119-.325 4.57-2.511 6.062-.698-.326.604-2.518-.512-3.124-18.651 20.379-29.302 48.08-39.582 76.108l.094 2.098c-7.907 24.017-8.652 53.21-8.605 77.087.046 15.809 2.279 32.598 2.279 49.386 0 12.965 1.023 26.536 2.512 39.267 1.72 14.876 4.604 30.406 6.558 44.303 2.14 14.83 3.442 29.333 4.837 44.07 1.395 14.969 5.442 31.198 4.232 46.168-.325 3.917-.976 7.741-1.209 11.565-.651 10.307-2.372 18.747-4.558 27.235-.372-.793-.79-1.586-1.163-2.378-.046-.047-.093-.14-.14-.187 2.42-9.607 3.908-19.307 4.187-30.919.232-9.56-.047-20.006-.698-29.613-.651-9.7-3.116-20.333-4.232-30.825-.884-8.441-.93-16.835-2.187-24.297-1.674-9.98-2.418-20.1-4.186-30.126-2.14-12.218-4.186-25.929-4.232-38.52-.047-14.55-2.372-26.069-3.21-38.894-.79-12.358-.325-27.328-.465-39.732-.232-19.54 1.163-36.609 4.047-54.936 2-12.591 5.953-24.437 9.767-36.375 3.628-11.379 8.512-22.525 13.768-32.691 9.395-18.094 20.604-32.551 36.93-43.557-5.21-1.072-4.837-8.347-8.512-11.099-.325-1.632.372-2.332.884-3.171-4.046.56-4.325-3.73-5.256-8.114-.511-2.565-2.046-4.384-2.046-6.203.14-8.487 18.512-10.959 28.279-12.451-7.954-2.052-13.628-.42-22.977-1.026-4.232-4.664.698-11.472 3.488-14.783 6.93.512 12.559.233 18.512 1.912-2.046-2.425-10.697-2.612-9.116-9.001 1.814-1.446 3.628-2.378 4.326-4.057 7.395-3.964 13.023 1.725 18.604 4.01-.232-1.725-2.232-2.984-1.581-4.477 3.767-4.337 12.139-2.331 15.023 1.4 4.419-4.99 15.953-2.845 15.907 5.549 6.884-3.498 19.023-6.949 25.349-.84 6.837 6.67.139 22.572-2.977 25.93 1.814.186 3.581.42 4.93 1.165 1.535 3.358 4.931 13.431-.372 14.644 5.303 3.31 4.047 8.02.977 13.197-1.023 1.726-3.023 6.016-4.558 6.156-3.814.326-5.721-10.12-7.535-12.218 2.279 8.814 5.349 21.685.651 29.24-2.884 4.663-9.395 4.29-15.721 5.969-.93-1.166-2.139-2.052-1.953-4.43-2.605 2.938-3.489 11.052-10.326 10.26-1.721-.234-2.698-1.913-5.349-2.892-3.628-1.353-8.186-.187-8.884-3.778-.511-2.704 3.489-7.601 5.117-9.98 5.907-8.673 12.697-19.726 15.674-29.333-3.953 6.39-10.325 15.95-16.977 23.784-3.255 3.87-7.07 8.115-10.65 10.586-2.047 1.4-4.559 2.612-6.838 2.425-2.884-.233-4.326-3.264-6.884-5.969-1.627-1.725-3.255-1.865-3.674-4.71-30.558 17.161-43.535 50.365-53.721 86.181-6.79 25.462-8.28 49.013-8.28 76.714.047 23.224 3.024 48.267 4.745 71.957.605 8.301.698 16.043 1.814 23.97 1.442 10.307 4.28 20.147 5.907 30.033 5.628 33.717 12.326 67.947 11.256 100.218 4-1.819 6.232-8.114 10.977-10.259 4.232-5.224 9.07-9.934 14.279-14.271 11.767-14.456 64.232-65.055 64.744-72.75.418-6.249-7.023-14.177-4.837-21.405 5.302 3.311 6.837 10.539 7.767 17.768 9.582-13.058 11.768-34.557 12-56.009.047-4.803-.093-9.466-.651-13.897-4-31.338-15.07-62.257-28.884-83.336-1.023 1.352.279 6.296-1.349 8.767-5.907 3.545-11.302 5.13-14.65-1.399-2.42-4.663-3.257-12.917-4.28-17.208-1.349 8.208.186 17.628-3.767 23.877-3.814.979-6.791.42-10.419.14-4.93-12.172-3.21-26.535-1.163-40.013-3.953 11.519-2.976 27.188-6.511 39.36-7.024 1.213-12.28-2.565-11.303-11.332-4.976-.373-6.65-4.384-10.046-6.482 1.535-10.959 6.605-21.126 12.93-28.494 3.21-3.731 5.721-7.042 11.07-8.534-2.512-9.654-9.721-36.935-1.675-43.137 3.628-2.798 10.326-.094 13.35 2.518 6.092 5.363 16.418 16.462 19.534 23.83.605 1.353.884 2.006.512 3.451 9.953-3.031 28.465.233 36.046 5.27 1.582 1.073 4.605 3.684 4.744 4.99.28 2.845-3.348 3.917-3.86 6.809-.977.512-2.419.559-3.488.139 3.302 2.659 7.814 5.736 7.814 10.773-1.582 2.099-2.838 3.684-4.559 6.482-3.302 5.363-8.883-2.192-12.372-4.29 1.582 2.891 5.117 6.809 6.745 10.819-.28 4.104-2.698 6.203-7.349 6.249-6.326 6.762-10.326.793-13.303-5.223 13.489 28.074 27.907 57.641 31.396 95.694.465 4.85 1.349 7.509.883 11.799 2.745.42 4.28 4.617 7.582 5.596.046-3.124-.465-4.803 0-7.321-2.233-2.006-6.744-5.084-5.628-8.441 1.907 1.679 2.744 4.523 5.116 5.689 2.651-5.27 1.582-7.788-1.256-12.125-1.069-1.679-2.837-3.078-3.348-4.71 3.581.466 4.279 4.057 6.186 6.342 1.488-4.104 2.046-9 5.767-11.052-1.023 2.938-1.953 6.016-2.698 9.187 4.884.326 9.442-3.544 13.628-5.876.465 1.399-1.721 3.031-2.93 3.964-2.744 2.145-6.186 3.591-10.93 4.337-.558 1.492-.651 3.404-.791 5.27 4.651.932 10.233-3.311 13.349-4.804-2.419 4.244-7.209 6.296-13.209 7.229-.651 1.166-.047 3.544-.093 5.223 4.604-.7 8.976-2.285 12.046-2.658-3.07 2.518-8 3.357-11.953 5.083.279 2.052.79 3.777.976 5.876 4.466-1.819 7.303-3.265 12.652-4.431-3.117 3.032-8.698 3.824-11.861 6.809.558 1.306.419 3.451.93 4.85 3.582-1.166 7.117-4.104 10.233-4.663-2.093 3.311-6.512 4.477-9.395 7.041.093 2.192 1.302 3.218.976 5.876 4.093-2.285 7.954-4.71 12.931-6.202-3.07 3.731-8.698 5.176-12.466 8.254-.139 2.845.698 4.571 1.024 6.902 5.767-3.917 15.953-10.819 20.744-17.021.884-1.166 2.651-4.477 1.442-6.343-1.489-2.005-5.768-.932-7.117-3.171 2.977-.326 5.489-.186 7.349.7-.604-6.249-8.604-4.431-11.488-8.161 2.186-.7 7.163 1.539 10.186 2.331.233-2.098-.651-3.591-1.256-4.477-1.721-3.217-8.186-1.212-9.256-5.129 2.512.652 5.442.839 8.047 1.352.511-.606-.698-2.378-.837-3.451-.14-.746-.605-1.026-1.117-1.819.326-2.285-2.325.233-2.883-1.818.976-.513.883-.094 2.418-.094-1.674-3.637-2.372-8.347-5.023-10.912-4.279-.56-7.954-1.726-9.302-5.503 3.302.979 5.255 3.497 9.535 3.404-1.256-5.316-6.559-6.202-8.187-11.099 3.721.047 3.582 4.384 6.512 5.27.744-1.539.419-4.057 2.233-4.617-.047 2.285-.512 2.798-.465 4.57 3.627-.559 1.907-8.86 5.767-10.399-1.07 4.943-1.721 10.213-4.605 13.477.838 3.078 1.535 6.389 2.838 8.907 4.279-2.285.93-11.565 5.627-13.524-2.139 4.944-.325 12.592-4.837 15.903.744 1.632 1.396 3.357 2 5.13 4.279-1.866 3.396-8.441 7.163-10.773-1.535 5.363-2.465 9.467-6 13.197.279 2.379 1.442 3.778 1.674 6.203 3.954-1.726 5.907-5.27 7.582-9.047 1.256 4.477-3.489 9.233-6.744 11.798.511 1.772 1.209 3.311 1.628 5.13 2.883-1.679 5.767-6.296 9.721-8.114-1.861 5.549-10.187 7.928-8 15.016 4.418-4.757 9.116-9.234 12.511-14.876 1.349-6.11-3.116-6.762-5.349-9.84 1.814-.933 3.303 1.399 4.977 1.865.279-6.435-7.302-4.15-9.395-7.928 2.325-.186 6.232.56 8.093 2.052-.419-2.238-1.256-4.01-2-5.829-2.372-1.679-6.791-1.026-7.489-4.524 2.326.14 4.605 1.772 6 1.819 0-6.202-9.581-6.995-10-12.778 2.884 1.119 4.093 4.057 6.838 5.27-1.396-2.892-1.117-4.71-1.396-7.602 2.279 1.819 3.628 6.296 5.303 9.84 1.395-2.705 1.907-6.249 2.697-9.56.651-.046 1.442 3.451-1.674 10.819-.884 2.099 1.674 5.503 2.511 7.275 2.652-2.984 4.698-7.648 4.652-12.078 1.86 1.213 1.395 4.477.976 6.249-.697 2.891-3.721 6.342-4.837 8.254.977 1.726.884 4.617 1.349 6.902.977-.046 2.326-.932 3.023-1.865 1.349-1.865.698-5.41 2.837-6.389 2.279 3.498-2.232 8.954-5.069 11.052.325 1.959 1.023 3.498.976 5.876 3.07-3.73 9.768-10.119 8.559-17.814-.605-3.964-3.303-6.249-4.28-10.26 4.093.98 3.907 6.669 6 9.84 7.163-6.808-5.162-12.218-4.697-19.307 1.581.234 1.907 3.032 3.023 4.757 1.163 1.772 2.558 3.405 4.047 4.337.279 1.166 1.162 1.632 1.534 2.705 1.163-2.192 3.024-3.264 1.814-6.342-1.534-3.871-7.302-9.001-4.046-12.032 1.628 2.798 2.605 8.627 5.721 10.866 1.674-2.145.372-6.995 3.442-7.835.744.606-.047 4.944-.698 7.369 2.558 1.119 4-1.633 6.186-2.052.372 2.798-3.628 4.15-7.07 4.523-1.116 1.632-1.395 4.057-2.139 6.016 5.442-.326 8.883-2.518 11.953-5.083-.093 4.244-6.604 6.062-12.186 6.948-1.628 1.633-2.046 4.337-3.163 6.436 6.233-.373 11.442-1.772 15.814-3.871-2.976 5.69-11.86 3.918-17.395 7.089-1.395 1.865-2.465 3.964-3.535 6.109 3.163-1.539 7.256-2.285 11.721-2.658-4.465 3.124-12.558 5.223-13.116 5.269-1.396 2.612-6.326 8.068-8.047 10.4 11.814.14 13.721-11.659 26.233-12.032-2.326 1.632-5.163 2.006-7.489 3.498-2.279 1.446-7.767 7.228-9.395 7.741.93.933 3.116.467 4.233 1.213.79-1.586 10.79-7.508 14.232-8.348.977-.233 4.465-.886 5.256.793-6.512.233-10.605 5.363-15.628 8.068 9.07 5.269 13.907-6.762 22.372-4.897-4.511 1.026-8.465 4.757-12.884 6.855 5.349 5.317 10.605-5.176 15.535-2.098-.139 1.306-.744.186-2.046.466-2.186.886-3.116 2.938-5.395 3.731 1.813 1.119 13.674 4.43 16 7.275-3.303.699-6-2.099-9.163-2.705 1.023 4.99 4.232 7.555 6.744 10.819-5.07-1.492-7.023-6.435-8.884-11.425-2.651-1.352-6.046-1.679-8.465-2.378 1.209 4.476 2.791 11.798 5.256 16.135-5.535-2.192-4.419-11.705-7.721-16.369-2-1.352-4.884-1.678-7.395-2.425 1.116 4.804 4 9.421 5.488 13.338-4.884-2.192-5.209-9.374-7.954-13.944-1.86-.28-3.674-.606-5.906-.42.744 4.058 4.418 8.022 5.813 12.638-4.418-2.565-5.581-8.72-8.604-12.824-3.209-.327-5.209 1.119-8.977 1.119 5.395 2.472 9.581 6.296 13.023 10.913-6.604-2.472-8.883-9.7-17.814-9.607-5.348 5.456-10.651 10.912-15.209 17.115 11.256 4.197 13.954-8.394 23.628-7.742-5.628 2.192-9.628 5.876-13.814 9.374 7.628 5.55 13.814-3.031 22.791-3.171-1.535 2.332-4.791 2.052-7.163 3.124-2.326 1.026-4.047 3.078-6.465 3.451 3.767 1.586 6.418 3.684 11.209 1.912 3.023-1.119 6.326-3.824 9.535-4.616 1.442-.374 4.326-1.4 5.581.419-6.79.56-10.465 3.964-15.348 6.296 6.093 5.689 13.72-1.119 21.488-1.679-3.209 2.425-7.721 3.591-11.581 5.41 4.325 2.798 10.697 3.311 15.209 5.922-3.163-.559-6.512-.886-9.442-1.632.605 1.632 3.395 4.057 3.814 7.135-2.558-1.445-5.628-7.461-4.884-7.461-1.581-.84-3.581-1.166-5.302-1.866 2.232 3.544 3.07 8.768 5.442 12.638-3.628-.046-3.721-5.409-5.256-8.814-.977-2.145-2.791-3.124-3.023-5.083-1.861-.606-3.954-1.026-5.628-1.819.837 4.197 4.046 10.54 4.837 14.784-4.372-2.985-4.558-10.587-7.302-15.343-1.768-1.073-4-1.679-6.047-2.519-.325 5.643 4.744 10.353 5.861 14.364-4.559-2.658-7.349-9.234-8-14.97-2.047-1.026-4.512-1.632-7.07-2.098 1.581 5.829 3.581 10.446 6.232 14.363-4.93-1.399-6.232-9.933-8.697-15.296-2.14-.047-3.349-1.166-5.628-1.119 1.628 3.684 3.86 9.56 4.465 13.757-3.674-3.171-3.581-10.4-7.256-13.617-1.814-.42-4.325-.14-6.605-.047-6.279 5.596-13.348 10.446-19.395 16.229 9.721 2.472 11.628-5.923 20.186-6.529-4.279 2.285-7.349 5.736-11.814 7.881 7.21 3.265 13.163-6.155 22.047-4.523-5.907 1.399-10.605 4.337-15.675 6.668 1.07 2.006 3.628 2.332 5.396 3.591 2.325-3.777 8.837-5.456 14.744-4.85-4.233 1.679-9.163 2.705-12.977 4.804 4.651 6.762 14.093-1.399 21.209.419-3.209 2.286-9.488 1.773-12.325 4.431 4.279 3.731 13.814-.653 19.07-.886-3.442 2.798-7.675 2.891-12.326 4.43 3.023 2.658 8.047 5.037 10.419 7.182-2.233.746-6.14-2.938-9.21-3.731-.744 2.005 1.349 7.042-.558 10.12-1.721-4.151-.418-9.654-3.023-12.405-2.186-1.026-4.047-2.379-6.419-3.171.977 3.684 3.489 9.187 2.326 12.778-2.233-1.26-1.488-4.617-2.047-6.856-.744-2.938-2.558-5.13-3.116-7.508-1.767-.839-3.581-1.679-5.349-2.518-.325 4.477 2.837 7.974 2.977 11.705-3.07-.793-4.279-8.627-5.07-11.985-1.116-1.212-3.163-1.399-4.977-1.865-.093 1.772 1.303 7.648.512 11.145-3.442-3.031.279-13.943-6.837-12.917-.465 3.124 1.581 8.487 1.907 10.725-3.861-1.119-2.651-7.788-4.372-11.285-5.163-2.005-12.093-.979-15.163 2.472.047 1.912 1.07 2.658 1.302 5.176 2.931 2.472 9.489 1.026 11.675 4.337-2.326 1.119-6.512-1.772-10.465-1.259-.419 2.098 1.721 4.384 1.721 7.228 3.534 1.959 9.116-.606 12.232 1.539-2.791 1.586-6.605.56-10.744 1.213.372 2.145 1.86 3.078 2.326 5.13 4.046.652 9.441-.14 12.279 1.865-1.721 1.912-7.303-1.119-10.745.513.884 6.342 8.884 4.85 12.884 7.788-2.279 1.679-4.512-.746-7.302-.373 1.023 2.425 5.395 4.29 6.604 7.695-2.604-.56-3.209-3.265-5.395-4.291-2.232 2.891-.046 7.182-.93 10.166-2.884-1.585-1.861-8.3-.884-11.099-1.116-1.958-2.791-3.264-4.372-4.663-1.395 1.959 1.209 7.228-.605 9.42-2.604-2.751-.651-8.394-1.255-12.125-.559-3.451-3.303-5.456-4.186-8.161-2.326 3.871.558 10.819-.745 13.617-2.139-3.217-3.116-13.57-.046-16.042-.837-2.052-1.582-4.104-2.047-6.529-2.372 3.171-2.744 8.161-5.023 11.379-.698-6.948 6-13.617.512-18.84-7.117 2.984-11.07 11.425-16.186 18.187-11.07 14.55-23.628 27.282-36.698 40.386-17.349 17.395-33.395 35.162-49.674 52.884 8.837-.56 20.837-1.213 25.07-7.089.883-5.083-5.768-3.544-4.512-7.788 2.093 1.866 4.744 3.031 6.511 5.27.698-2.938 4.744-5.363 5.163-8.628.372-3.171-2.372-4.989-2.465-7.881 2.558-1.026 2.465 3.824 3.72 5.41 1.722-2.705 3.954-6.529 5.164-8.628.186-2.238-2.745-2.658-1.628-4.803 2-.093 2.14 1.772 2.93 2.985 3.116-2.006 5.07-5.83 3.395-9.561 2.465-.419 2.558 3.405 1.954 5.13 3.349-1.818 5.767-7.368 10-9.513-2.605 4.383-6.977 7.182-8.837 12.265 1.442.979 5.163-.56 6.604.373-1.256 1.819-6.093 1.912-8.604 1.446-1.163 1.259-2.186 2.658-2.93 4.337 2.837-.094 6.232.792 9.72-.094-1.116 3.591-6.511 1.353-10.697 2.239-2.093 1.772-3.535 4.104-4.93 6.482 2.837-.979 7.534-.839 11.07-.886-2 3.544-9.21.839-12.326 3.731-.791 1.399-1.628 2.704-2.605 3.964 2.651.373 8.837-.653 11.86 1.165-2.79 2.425-9.302-1.025-13.116 1.679-1.349 1.633-2.558 3.451-3.953 5.084 12.558-1.493 25.116 1.585 34.418.139.791-1.445 3.117-3.777 3.21-6.062.139-5.13-7.256-8.254-6.838-12.918 2.884 3.031 5.535 6.342 8.093 9.747.977-1.679 1.814-3.218 1.861-4.99.093-5.177-6.279-10.353-3.07-14.13.186 4.337 3.07 5.689 3.907 9.233 2.372-2.518.884-5.922 2.744-7.788-1.163-5.176-4.186-8.301-6.465-12.265 4 1.213 5.395 5.27 7.349 8.721 1.209-2.192 1.721-5.083 2.791-7.462-.605-3.357-4.558-9.56-1.628-12.125.232 2.472 1.674 6.063 2.511 8.954 3.442-3.684 4.884-10.399 3.07-16.182 1.814.793 2 3.404 2.698 5.456 3.442-3.404 5.721-8.72 9.163-12.265 1.255-1.305 3.395-3.078 5.442-3.031-2.094 3.871-5.768 6.296-7.861 10.12 3.767.046 7.954-2.192 12.465-1.259-4.558 2.471-10.093 2.145-13.628 5.503-1.907 1.818-2.883 3.917-4.232 6.482 3.581-.98 7.581-3.311 10.976-3.311-.744 1.399-2.883 2.331-4.372 2.984-2.604 1.12-5.628 1.726-7.86 3.172-1.442 1.585-2.326 3.637-3.209 5.736 3.72-.513 8.465-3.172 11.348-2.285-3.348 3.171-10 2.145-12.976 5.502-1.582 1.773-.977 3.918-2.512 6.063 3.767-1.026 7.814-3.498 12.047-2.985-3.117 2.892-9.163 3.171-12.977 5.503-.558 1.912-1.396 3.638-1.442 6.016 3.488-.373 9.07-3.451 13.07-3.404-4.558 4.477-15.814 2.844-14.698 12.544 4.326-.839 9.814-3.264 15.535-2.798-5.861 3.871-17.861 2.146-18.279 10.96 5.814-.84 11.395-3.591 16.511-3.918-3.627 4.897-14.604 3.078-18.418 7.835 4.558 1.306 9.953.886 15.349 1.352 5.349.467 9.488 2.379 11.767-1.585-.511-5.503-5.535-11.193-2.837-16.602.372 4.617 2.651 9.886 4.139 14.456 1.535-.792 1.954-2.658 2.931-3.963-.931-1.866-.558-4.104-1.024-6.576-.93-5.13-4.744-11.146-1.674-13.85.047 6.062 4.186 11.565 3.907 17.254 1.814-3.171 4.047-5.036 4.465-8.58.698-5.69-3.721-13.198-.139-17.768-.652 4.29 1.441 10.353 1.721 14.223 2.046-1.026 2.93-6.016 4.837-8.254.465-2.612.93-5.41.279-9.094-.651-3.637-3.814-7.275-2.186-9.653 2.372 3.731 3.581 8.721 4.465 14.084 2.186-2.425 3.349-5.83 5.907-7.928.093-.793-3.535-10.82-1.349-13.898 1.535 3.032 3.349 7.649 2.605 11.053 2.372-2.285 4.372-4.897 6.604-7.275.233-3.218-.511-7.368.605-9.793 1.302 1.585 1.07 4.896 1.395 7.601 2.465-.886 5.117-4.43 7.349-6.622.233-4.757-2.418-9.793 1.163-12.265-.558 4.337-.186 7.601.512 11.146 2.232-1.073 3.348-3.171 6.093-3.778-.745 2.285-3.256 3.032-4.279 5.083 4.279.933 9.162.467 13.255.793-3.767 3.498-10.604.327-15.209 1.399-2.744.653-3.814 2.658-5.721 4.431 4.884-.607 8.372.326 12.186.839-1.442 2.612-4.418.793-6.232.653-2.698-.233-5.07.979-8.279 1.073-1.768 1.912-3.163 4.243-5.303 5.829 3.116.606 9.861-1.026 12.93 1.492-4 2.052-9.627-.886-13.86.979-2.698 1.213-2.744 4.104-4.605 6.156 4.419-1.212 8.186-1.492 12.465-.932-2.604 2.658-10.79 1.492-15.116 3.497.465 1.166-1.023 2.892-1.86 4.617 3.767.606 7.814-1.446 11.442-.513-2.559 2.985-10.233 1.306-13.396 3.777-1.023 2.006-1.535 4.291-3.163 6.436 2.977-.14 9.07-2.099 12.838-.606-1.442 2.145-4.931.979-7.582 1.399-2.465.42-4.372 1.725-6.139 2.052-1.024 2.285-2.279 4.383-3.163 6.762 2.93-.093 9.116-1.912 12.419-1.632-3.117 3.124-8.466 2.378-13.349 4.103-1.396 1.726-2.14 4.058-3.21 6.063 4-.56 7.489-1.586 11.814.14-3.86 2.332-13.721-.233-15.395 4.896 6.884.467 18.186 1.633 23.535-1.818 1.953-4.57-.372-13.011 2.698-16.509-.14 4.57-.28 8.161.279 13.944 1.953-2.472 5.302-3.405 6.279-6.576 1.674-5.316-3.442-13.151.558-17.814.046 4.71.697 11.192 1.442 16.322 2.046-.933 6.325-7.881 7.628-8.021.232-5.783-3.256-13.897-.14-18.141-.465 5.689.93 11.006 2.14 15.949 1.674-3.264 5.255-4.29 6.232-7.975 1.395-5.269-4.884-12.824.233-17.441-1.024 4.151-.186 9.653 1.674 13.524 3.768-2.425 4.372-7.788 6.419-11.798-.558-6.063-.279-11.333 1.721-15.063 1.348 2.331-2.233 8.44.186 11.845 3.162-4.104 3.907-10.4 8.046-13.618-1.442 4.571-3.814 8.301-4.93 13.151 2.651-.466 5.302-3.824 8.837-4.616-2.418 4.99-9.349 6.389-12.372 11.052-1.767 2.751-1.86 5.829-4.139 8.581 4.744.373 8.093-3.498 11.953-5.083-1.721 3.404-5.535 6.342-9.767 7.088-.931.187-2.233-.233-3.117.14-3.767 1.539-6.325 9.374-9.535 11.939 8-.467 13.582-3.125 18.093-6.763-2.325 5.363-9.069 7.928-15.953 8.768-1.023.14-2.419-.233-3.488.14-4.279 1.585-4.791 7.555-8.233 9.793 6.465.093 11.442-2.845 14.372-4.85-.93 6.389-11.023 6.062-16.325 7.368-2.931 1.772-5.07 4.244-7.349 6.622 11.581-.513 27.488.933 33.814-5.409-.512-2.892-2.512-5.923-1.814-9.001 1.581 1.772 2.139 4.71 3.767 6.436 6.047-2.985-.325-10.726-.372-15.343 2.233 2.285 3.721 5.41 4.93 8.814.838-2.938 4-4.71 4.14-7.881.139-2.938-3.07-5.317-2.14-8.255 1.721 1.166 2.512 3.358 3.396 5.41 2.046-2.332 3.302-5.41 5.209-7.928-2.744-7.275-3.395-14.037-3.023-20.099 2.186 5.502 1.535 12.358 4.604 17.208 2.791-2.705 4.745-6.109 8.326-8.068-.326 2.845-2.791 3.684-3.907 5.783 4.698-.933 8.372-2.798 12.326-4.431-3.117 3.918-9.256 5.084-14.28 7.275-1.488 2.052-2.744 4.384-3.86 6.809 5.488-.653 9.907-4.057 14.372-4.524-5.163 5.27-17.163 4.338-18.512 13.058 6.093.56 11.117-2.751 15.768-4.57-3.023 4.337-11.256 6.715-16.744 6.715-1.396 2.146-2.605 4.477-3.861 6.809 3.768-.047 9.675-2.658 12.326-3.731-1.721 4.384-7.628 3.684-11.535 5.783-2.698 1.446-4.279 3.917-6 5.876 2.698-.56 6.093-.42 8.651-1.119.791-.233 5.349-5.457 8.465-5.27-.418 1.819-1.767 2.845-2.93 3.964 1.674-.233 2.977-.513 4.791-1.259 4.093-5.736 7.256-12.265 13.535-15.949-3.628 4.803-7.768 9.094-10.093 15.109 10.558-.559 8.279-12.871 16.651-15.436-2.419 3.451-5.861 6.529-7.07 11.659 2.419.56 4.93-1.726 7.535-2.099 2.977-6.062 5.767-12.265 11.442-15.855-3.303 4.663-6.512 9.373-8.698 15.063 6.419-.14 8.093-6.389 11.814-7.882-.744 2.332-2.605 3.638-3.535 5.736 2.372.933 7.814-1.912 8.744 1.353-3.674.653-9.256 1.539-12.139.933 4.697 3.124 9.302 6.342 13.023 10.539-7.953-2.378-13.628-13.384-23.628-6.949ZM105.953 167.978c2.652 1.726 6.698 3.451 9.582 3.731.418 2.145-1.302 3.777-2.651 3.264.093-.979 1.535-1.539.604-2.471-1.116.233-1.628-.14-2.465-.233-.465 1.165-.651 2.518-2.325 2.564-.186-1.445 1.209-2.658.186-3.824-1.256.84-2.326 1.866-2.605 3.591 9.674 5.177 17.256 12.732 26.558 18.281 3.442-1.073 3.07-5.643 6.651-6.575-5.628-13.011-20.697-13.851-33.535-18.328Zm-1.86 4.617c.698-.047.465.933 1.442.653.186-1.166.977-1.772 1.256-2.845-1.814-.979-2.512.7-2.698 2.192Zm-.279-5.223c-.651.373-1.209-.979-1.395.047.232.093 1.395.792 1.395-.047Zm.977-2.145c1.349.419 1.767-1.679.93-2.145-.465.606-1.209.932-.93 2.145Zm2.093.606c.604-.047 1.069.047 1.395.28.279-.793.651-2.332.233-2.798l-1.024.046c.279 1.259-.697 1.353-.604 2.472Zm3.535.886c.325-.56 1.348-3.358-.14-3.498.512 1.353-1.488 3.311.14 3.498Zm-6.559-5.969c.698.046.745.932 1.442.979.558-.233.512-1.072.977-1.446 1.163-.046.884 1.446 2.14 1.306.651-.186.232-1.352 1.348-1.119.326 1.539 1.117 1.492 2.093.606.093.513.605.56.745 1.026.418 1.726-1.582 4.384.232 5.223 1.023-.839.093-3.497.837-4.57 2.186.513.652 3.684.605 5.223 7.581 1.679 13.163 5.503 21.488 6.296-.046-2.612 2.419-2.891 2.884-5.037-2.465-1.772-5.767-5.829-8.558-4.85-.977-.186-.605-1.772-1.814-1.679 0 1.12-.139 2.099-1.302 2.146-.93-.607 1.256-2.938-.837-2.752-1.024.373-.187 2.518-1.628 2.518-.372-.466-.14-2.331.186-3.124-5.535-1.539-15.024-3.544-20.838-.746Zm-.511 4.197c-.093-.653.372-.793.279-1.399l-1.395.047c-.233 1.119.604 1.072 1.116 1.352Zm-2.558 4.663c.186 1.166 1.209 1.353 2.186 1.633-.186-.84.604-.793.279-1.773-.512-.466-2-.373-2.465.14Zm-.372-8.021c.279-.093.697-.046.697-.373-.279.093-.697.047-.697.373Zm-.186 2.798c.883.513.976-1.212.279-1.072 0 .233-.047.419-.326.373l.047.699Zm.418 2.099c-.465 0-.325-.606-.744-.653-.79.42.512 1.586.744.653Zm-.558 2.798-.046-.7c-.698-1.119-1.628 1.12.046.7ZM98 161.356c.372-.047.558.466.698-.047-.047-.326-.651-.373-.698.047Zm1.21 11.799c-.047-.84.232-2.472-1.536-2.705-.744 1.119.559 2.378 1.535 2.705Zm-3.443-.187c-.93 1.119 1.256 1.026 1.163 2.378.884 0 1.07-.606 1.35-1.119-1.164-.093-1.117-1.492-2.513-1.259Zm-.046-8.021c.186.839-.605.793-.28 1.772 1.117.466 1.582-2.099.28-1.772Zm-1.628-4.803c.93-.28.744.652 1.442.652-.465-1.072-.512-2.611-1.535-3.077l.093 2.425Zm-3.07.513c-.279 1.958-.186 3.917.93 5.176 3.814-.839 1.721-5.876-.93-5.176Zm1.07 8.674c-.093.233-.79 1.399.046 1.399.094-.234.838-1.399-.046-1.399Zm-1.21-19.121c.373-.046.559.467.698-.046-.046-.373-.65-.42-.697.046Zm-.743 6.996c1.814.186 2.697-.42 3.441-1.213-.093-1.446-2.046-3.171-.558-4.15-3.256-4.664-6.372 3.031-2.883 5.363Zm-.652 8.021c-3.162-1.399-3.674 3.544-1.534 4.617 1.813-.327 2.511-2.705 1.534-4.617Zm-.697 7.741c.79-.886-1.163-.839-1.07-.28 0-.046 1.21.14 1.07.28Zm-1.675 1.446c.093.886.558 1.306 1.442 1.306.047-.98-1.023-.793-1.442-1.306Zm.233-25.09c1.395-.373 2.372-1.166 2.651-2.565-.977-1.492-1.674-3.264-3.302-4.01-3.628.839-.651 5.549.65 6.575Zm-1.442 5.97c1.395.746 1.442-2.192.279-1.773.28.98-.465.933-.279 1.773Zm-2.698-13.105c.698-.513 1.117-1.212 1.303-2.145-1.07-.746-1.489-2.285-3.256-2.285-.651 1.819.093 4.29 1.953 4.43Zm-.093 5.923c-.697 1.679-.883 4.197 1.256 4.477 1.535-1.259.93-4.337-1.256-4.477Zm-11.767 8.907c.325-.793.511-1.772.93-2.472-1.442-.419-1.72 1.959-.93 2.472Zm.465 2.425c2.14-.047 2.14-2.005 2.605-3.591-.512-.046-.605-.559-1.07-.653-.233 1.539-2.14 2.985-1.535 4.244Zm2.93 3.358c-.14 1.399-1.395 1.818-1.21 3.544 1.675.653 2.28-1.446 2.28-3.264-.419 0-.512-.42-1.07-.28Zm.651-9.094c-.279.093-.697.047-.697.373.279-.093.697-.047.697-.373Zm-2.976 11.286c.511-.98 1.209-1.773 1.581-2.845-.465 0-.512-.42-1.07-.28-.093.839-1.581 2.239-.511 3.125Zm2.046 14.176c.093-.233.79-1.399-.046-1.399.372.653-.977 1.26.046 1.399Zm1.256-10.819c-1.07.047-1.767 2.145-1.256 2.518.233-1.025.977-1.585 1.256-2.518Zm-.186 3.824c1.349-.28 2.419-2.565 1.256-3.217 0 1.445-1.489 1.585-1.256 3.217Zm1.488-6.016c-.279.094-.697.047-.697.373.279-.046.697 0 .697-.373Zm.093-4.85c-.279.094-.697.047-.697.373.279-.093.697-.046.697-.373Zm.14-12.591c.232-4.524-7.628-3.824-4.79 1.959.371-.513.232-1.586 1.301-1.446.559 1.865-.837 1.865-.883 3.171 1.814-1.119 4.232-1.585 4.372-3.684Zm.465 10.446c1.72-.186 2.698-1.072 4.093-1.585 1.907-3.125-1.814-6.809-4.372-3.964l.279 5.549Zm.651-8.72c.186-.84 1.116-.98 1.302-1.819-.976-.094-1.907 1.585-1.302 1.819Zm2.047-.467c0 .233-.047.42-.326.373l.046.7c.884.513.93-1.259.28-1.073Zm-.977 16.789c4.325.466 4.884-6.109 1.488-5.643-2.744.326-.93 4.43-1.488 5.643Zm-.093-24.763c-2.326.373-1.768 4.663.232 4.85 2.465-.28 1.86-4.617-.232-4.85Zm-2.837-1.586c.976-1.352 2.744-1.959 2.93-3.964-2.14-4.197-5.907 1.259-2.93 3.964Zm-2.791-7.182c1.163.886 1.535.327 2.418-.466.187.42.42.793.745 1.026 0-.56.93-.233 1.023-.746-1.21-1.073-2.977-1.493-4.233-.84l.047 1.026Zm-2.14 6.343c.093 1.958-1.116 4.197-.79 5.269 4.093.56 4.976-5.456.79-5.269Zm1.535-4.244c-.372-.466-.604-1.026-1.116-1.353-.698 1.4-2.93 1.306-2.605 3.591 1.768.886 3.442-.746 3.721-2.238Zm-4.65-3.638c2.232-.373 1.534.84 1.488 2.379 2.372-.047 1.767-2.845 2.93-3.964-2.326-.84-3.535-.28-4.419 1.585Zm1.022 21.919c-1.07.466-1.442 1.539-1.627 2.844 1.348-.186 1.023-1.912 1.627-2.844Zm-.79 5.969c.093.466-1.35 1.119-.28 1.399-.092-.42 1.117-1.352.28-1.399Zm-.977-28.541c-.233-.513 1.302-.932.279-1.072.093.373-1.442.793-.28 1.072Zm-.14 4.897c.14-.793.605-1.819-.093-2.425-.65-.047-.744.42-1.349.42-.278 1.492.605 1.725 1.442 2.005Zm-1.814 5.643c1.117-.373.512 1.119 1.442.979.512-.699 1.721-2.984.186-3.497-.418.932-1.07 1.678-1.628 2.518Zm1.396 6.948c.14-.979.79-1.492.93-2.471-1.628-.606-1.72 1.912-.93 2.471Zm-.093 5.55c.186-.746.697-1.166.977-1.772l-1.396.047c.186.513-.325 1.818.419 1.725Zm.744 23.69c1.488-.559 1.628 1.12 2.465.234.047-.653-.418-.747-.418-1.353-1.21-.093-1.489.653-2.047 1.119Zm-1.628 2.146c1.535-.56.977 1.119 2.14.932.65-.886-.093-2.611-1.163-2.751-.186.793-.698 1.212-.977 1.819Zm-3.581-2.239c.465-.046.79.14 1.07.28l-.047-1.026-.698.047c0 .326-.279.373-.325.699Zm-.651 1.772c-.466 0-.326-.606-.745-.653-.325.7.651 1.586.744.653Zm-1.07 6.296c.325-.466.279-1.306.604-1.772l-1.023.046c.186.513-.326 1.819.419 1.726Zm-2.372 1.166c.744.373.325 2.098 1.162 2.378-.186-1.212 1.396-2.471.559-3.171-.28.933-1.721-.699-1.721.793Zm-.838-2.752c1.489.187 1.024-1.865.233-2.098.047.793-.512 1.026-.233 2.098Zm-1.72.793c.976-.093-.326 2.285 1.116 1.679-.233-.466-.372-2.938-1.117-1.679ZM53.86 213.96c.65-8.861 3.302-17.628 5.116-24.297-.791 1.539-.93-2.611-1.768-.979.744-.093.233 1.212.419 1.725-.605.7-1.023-.373-1.721.42-.186.84-.419 1.632-.233 2.798-1.162 0-.65.793-2.046 1.119.837-2.378-.047-2.891-.28-5.549.978 0 .652 1.446 1.815 1.306.418-1.446 1.07-3.358-.558-4.151-3.721 6.389-6.838 13.291-9.117 20.986.605 1.306 1.535 2.192 2.884 2.658.884-1.399.837-3.684 2.233-4.617 0 2.518-.372 4.757-1.442 6.342 1.628.747 2.325 2.379 4.698 2.239Zm15.255-23.364c-.977-.233-1.395-1.119-2.186-1.632-1.07 2.145 1.675 3.218.93 4.85-1.441.513-.976-1.119-1.814-1.306-2.186 2.285 1.954 3.544.93 5.55-1.674-1.12-3.115-2.425-3.674-4.711 2.186-1.072 2.93-6.015 1.721-8.114 3.163-.093 2.233-3.731.838-4.897-6.14 11.426-11.628 25.743-9.489 42.624 2.465.98 3.814 3.125 7.442 2.799 2.744-11.099 2.279-25.23 5.302-35.163Zm1.117-5.27c-1.256.42-1.163-.699-1.768-.979-1.302 1.772-.744 4.057.93 5.176-.232-1.865.605-2.751.838-4.197Zm.604-2.471c-1.116.373-.744-.886-1.442-.98-.65.886.512 2.145.838 3.078.465-.466.14-1.632.604-2.098Zm-.186-3.498c-.325.979-.186 2.005.465 2.751-.232-.839 1.163-2.751-.465-2.751Zm12.744 4.664c-.372-1.819-.79-4.477-2.325-5.13-2.977 2.378-1.675 8.674-4 11.705-1.163-4.85 1.86-9.374.465-12.218l-.698.046c-5.767 14.41-8.093 31.805-2.651 47.521 2.419.187 6.93 1.492 8.651-.42 1.163-1.305 1.35-6.715 1.628-9.84.93-10.352.837-22.571-1.07-31.664Zm1.35-15.763c-1.35-2.052-3.861.047-4.094 1.912 2-.42.744 1.912.465 2.425 1.907-.793 3.489-1.912 3.628-4.337Zm-.28-13.571c-.046-.419-.14-.839-.744-.653.093.42 0 .98.418 1.026 0-.233.047-.419.326-.373Zm1.814 8.628c2.326-1.073 3.86-5.736.372-6.622l-1.023.046c-.186 2.285-2.558 5.969.651 6.576Zm6.79 11.892c0 .652-1.115.279-.976 1.072.884-.233 1.256.093 1.07.979-1.023 1.026-1.86-.373-2.79-.559 1.069 3.731 3.301 7.088 2.976 11.705-.977-2.332-2.093-4.523-2.744-7.182-.605-.186-2 .513-2.093-.233-.373-1.119 1.116-.559 1.349-1.119-.42-.839-.28-2.378-1.489-2.378-1.767.699-1.442 3.171-1.488 4.943-.233 5.829.232 12.405 1.209 18.747.977 6.249 3.907 22.105 9.023 22.571 1.163.094 2.838.233 2.698-1.539.093-.979-1.86.373-1.767-.606 1.58-.699 1.86-2.518 2.604-3.964.744 1.026.326 3.265.558 4.85 1.628-.186 2.047-1.446 3.768-1.585.139-16.976-4.419-34.697-11.907-45.702Zm18.884 24.529c1.21 2.332 2.791 7.089 4.884 7.462 2.093.373 4.651-1.679 5.768-3.404-.186-.513-.558-.84-.745-1.353-1.348.093-2.186 1.866-3.116.513.465-1.026 2.186-.886 2.326-2.192-.419-1.865-3.721-3.124-2.326-4.756 1.675.979 2.791 2.518 3.675 4.337.79.14 1.814-1.166 2.046-.467-.698 1.12-1.767 1.912-1.209 4.244 8.325.373 4.372-7.135 1.953-10.539-5.581-7.928-16.697-16.183-23.907-20.846-.046.699-.93.746-.976 1.446 2.79 1.072 6.046 3.544 6.883 5.596-1.721-.56-2.79-1.213-4.883-.467-.233-1.072 1.023-.839.604-2.098-1.395-.14-1.953 1.446-3.116.513.047-.933 1.395-1.399.605-2.099-1.256-.606-1.489.56-2.373 1.166 3.768 6.063 9.721 14.97 13.907 22.944Zm7.954 156.506c-.837-.419-.047-2.611-1.163-2.751-.093 1.259.558 3.498 1.163 2.751ZM67.488 73.916c-.604.98-1.814 3.218-1.209 4.244.79-.886 1.721-3.358 1.21-4.244Zm3.396-1.912c-.884 0-1.07.606-1.721.793.883 1.212-1.21 3.264-.512 4.197.977-1.493 1.628-3.218 2.233-4.99Zm.837 2.378c0-1.445 1.767-3.03 1.21-3.87-.233 1.259-1.954 2.891-1.21 3.87Zm40.977-23.177c-1.07-.28-1.675-1.073-2.838-1.26-1.302 1.726 1.535 2.566 1.163 3.079-.558 1.352-1.395.28-2.418.093-2.558 3.218-5.442 7.881-8.977 9.14 2.837-2.984 5.814-5.83 7.535-9.746 1.023-.373-.837-.467-.419-1.353 1.256-.28 1.675-1.352 1.954-2.518-.651-.14-.651-.98-1.768-.606-6.651 7.228-17.21 15.203-26.093 21.778-3.442 2.565-8.837 5.97-8.605 9.793 3.629 1.4 4.605 7.648 8.047 8.348 5.767 1.166 14.326-10.353 16.419-12.964 5.953-7.275 12.511-15.576 16-23.784ZM74.047 72.564c1.116-.84 4.14-3.218 2.93-3.964-.605.886-.977 2.005-1.954 2.518-.093-.42 0-.98-.418-1.026.372 1.12-1.582 1.819-.559 2.472Zm4.697-3.358c.744-1.306 4.79-2.472 2.93-3.964-.65.793-1.441 3.358-2.325 1.865-.093.56-1.535 1.586-.605 2.099Zm26.558-57.36c-.279-.047-.418-.28-.372-.7-1.674.7-3.302 1.399-4.744 2.331.837.187.977 1.12 1.814 1.306.791-1.259 2.605-1.585 3.302-2.938Zm-11.023 16.88 2.093-.092c0-1.073-.93-1.166-1.814-1.306.093.653-.372.793-.279 1.399Zm-1.814-9c.093.887.558 1.306 1.442 1.306.512-.326 1.07-.56.977-1.445-.512-.047-.605-.56-1.07-.653-.233.513-.698.746-1.349.793Zm-.093-1.725c-1.07-.047-1.581-.7-2.465-.933.093.98-1.023.84-.977 1.772 1.21.513 3.303 1.12 3.442-.839Zm6.14-2.378c-1.675.466-2.838 1.399-3.35 2.938 1.675.886 3.722-1.96 3.35-2.938Zm-3.21 5.736c-.046 1.119 1.582 1.212 2.093.606.28-1.352-1.581-1.166-2.093-.606Zm.233 4.523c.837-.186.79.606 1.767.28.047-1.12-.511-1.632-1.488-1.679.093.653-.372.793-.28 1.4Zm1.023 7.275c0-.886 1.116-.746 2.047-.792.093.42 0 .979.418 1.025-.046-.932.047-2.005-.465-2.425-1.628-.373-2.605 1.633-2 2.192Zm4.512-15.203c-1.535-.886-2.558 1.073-3.396 1.912 1.582 1.4 2.466-.84 3.396-1.912Zm-.884 3.498c.791.047 1.954-1.26 1.302-1.446.047.886-1.302.56-1.302 1.446Zm2.512-5.316c1.162 1.072 3.628-.98 4.046-2.612-1.814.42-3.488 1.026-4.046 2.612Zm11.069 13.057c1.489 1.68 7.256 2.705 6.884-1.352-2.046-2.192-6.139-1.726-6.884 1.352Zm4.466-16.229c0-.373-.652-.42-.698.047.372-.047.558.466.698-.046Zm-.373 22.339c2 1.912 5.303.28 6.559-1.353-1.349-3.404-5.814-1.26-6.559 1.352Zm3.582-12.359c-.279.094-.698.047-.698.373.326-.093.698-.046.698-.373Zm17.163 17.675c-.419 1.072-1.535 1.492-1.954 2.518 1.814.42 2.605-1.819 1.954-2.518Zm.325 6.249c-.744-.28-1.256 1.212-.651 1.072 0-.56.837-.326.651-1.072Zm-2.511-1.306c-.605 1.12-2.279 1.26-2.652 2.565.373.047.559.373.745.653 1.023-.513 3.255-2.612 1.907-3.218Zm-1.163 5.316c-1.07-.373-1.442 1.54-.605 1.773.14-.7.977-.7.605-1.773Zm-1.116-9.047c.232-1.119.837-1.865 1.255-2.844-1.442.233-1.674 1.585-2.325 2.564-2.14.094.046.607 1.07.28Zm-.977 8.441c.279-.093.697-.047.697-.373-.279.093-.697.047-.697.373Zm.186-11.192c.977 0 .837-1.026 1.302-1.446-1.07-.093-1.535.373-1.302 1.446Zm1.209-3.87-.046-1.027c-.791-.046-1.303.14-1.349.746.465.094.651.467 1.395.28Zm1.721.279c.884.14 1.907-1.306.977-1.772.325 1.166-1.396.466-.977 1.772Zm1.209-4.617c-.186 1.4-2.279 1.026-1.953 2.892 1.023-.374 2.651-1.96 1.953-2.892Zm-2.093-.233c-.883 1.306-2.79 1.632-2.976 3.637 1.209-.652 4.093-3.077 2.976-3.637Zm-2.232-3.031c-2.977-.793-5.628 1.166-6.093 3.777 2.558 1.586 6.697-.326 6.093-3.777ZM120.14 54.003c.418-.093.976 0 1.023-.42-1.861.327-2.837-.28-4.186-.513.465 1.213 2.976 2.052 3.581 1.912-.465 0-.465-.466-.418-.979Zm-3.303-11.006c-.418.093-.977 0-1.023.42.419-.093.977 0 1.023-.42Zm5.116 5.363c-.697-.606-.883 0-1.72.093 0 .607.139 1.073.418 1.353.837-.093 1.302-.56 1.302-1.446Zm1.489-4.943-.047-1.4c-2.325-.14-2.976 1.26-4.418 1.96-.093 1.119.93.932 1.442 1.305.372-1.632 1.255-2.798 3.023-1.865Zm-.372 6.948c1.395.047 1.535-1.026 2.372-1.492-.465.047-.791-.14-1.07-.28-.186.793-1.07.98-1.302 1.772Zm2.651 4.058c-.698-.653-1.628-.094-2.419.093-.046 1.492 2.14.326 2.419-.093Zm-2.279 3.637c1.116-.42 2.977-.186 3.07-1.539-.652-.98-1.861.28-2.791.14.046.56-.047 1.073-.279 1.4Zm5.581-21.918c.186 1.585-1.395 1.632-1.581 2.845 2.465 0 3.023-1.68 3.302-3.638-2.046-.233-6.232.467-6.791 3.451 2.326.84 3.024-2.145 5.07-2.658Zm1.442 8.3c-.465 0-.512-.419-1.07-.279-.558.606-.232 1.819.465 2.052-.093-.84.466-1.073.605-1.772Zm-2.744 1.213c0 .886-1.488.42-.977 1.773.698-.234 2.279.326 2.419-.467-.791-.093-.791-1.026-1.442-1.306Zm-1.023 8.068c1.535.886 3.023-.653 3.767-1.585-1.488.28-2.977.606-3.767 1.585Zm1.162 2.379c.884.56 4-1.12 3.396-1.912-.605 1.119-3.256.373-3.396 1.912Zm3.07-16.556c.186.84-.604.793-.279 1.772 1.07.094 1.349-1.725.279-1.772Zm-2.79-15.203c-1.442-1.958-4.931-.466-5.861.98.791.093.093 1.865.791 2.052 2.697-.094 4.325-1.166 5.07-3.032Zm-12.466 8.255c.559 0 .326.886 1.07.653.233-.747-1.209-1.26-1.07-.653Zm-4.744 10.679c-.093.233-.79 1.399.047 1.399-.326-.653 1.023-1.212-.047-1.399Zm-.418-1.726c-.884.094-1.768.14-1.675 1.12.791-.14 1.442-.42 1.675-1.12Zm2.325-9.187c-2.837-.56-4.418.747-5.07 3.032 1.024.373 1.21-1.726 1.721-.793.279 1.072-.558 1.072-.232 2.099 2.697 0 4.744-1.82 3.581-4.337Zm0 7.322c0-.886 1.349-.56 1.303-1.446-.698.047-2.326.933-1.303 1.446Zm2.605-19.26c-2.093.047-3.209 1.073-4.419 1.959.558.28-.093.513.419 1.352 2.558 1.4 6.232-.606 4-3.311Zm1.116-5.316c-2.511-1.959-4.325 1.305-5.07 3.03 1.768.187 5.907.234 5.07-3.03Zm-3.581-2.612c-.279.093-.698.047-.698.373.279-.093.698 0 .698-.373Zm-.093-2.052c-.837.233-2.558-.326-2.744.466.511.42 2.744.56 2.744-.466Zm-3.442 15.81c-.93.839-2.791 2.564-2.279 3.59.325.373 3.488.373 4.139-.886.186-1.772-.837-2.192-1.86-2.705Zm-2.093.093c-.047.839-2.233 1.492-1.302 2.145.232-.7 2.232-1.492 1.302-2.145Zm2.604-11.613c-.418.094-.976 0-1.023.42.419-.093.977 0 1.023-.42Zm-1.116-1.352c-.093-.653-.279-1.166-.744-1.352-.512.56-.326 1.585.744 1.352Zm-2.279 10.213c2 .606 2.791-1.679 1.954-2.518-.419 1.072-1.535 1.492-1.954 2.518Zm1.349-7.695c-1.674.327-2.977 1.026-3.721 2.286 1.674-.374 2.698-1.353 3.721-2.286Zm5.953 30.36c-.046.7-.93.746-.976 1.445 1.069.42 1.907-1.072.976-1.445Zm1.489-4.944c.837-1.212 2.837-1.399 2.604-3.59-.79-.514-1.86 1.165-2.79-.234-.326 1.493-1.535 2.145-1.907 3.591 1.07-.326 1.302.28 2.093.233ZM122 57.408c-2.512.186-5.674-4.338-6.279-.747 2.139.42 5.07.047 5.674 2.192-1.628.326-4.093-.933-6.325-1.12-2.558 5.784-6 10.773-8.279 16.79-3.675 5.642-7.86 10.819-10.651 17.207.697 1.912 4.79 2.006 6.325 1.773-.651-.374-1.674-.327-1.488-1.68 2.093-.232 3.488.28 3.581 2.286-.651.186-2.232-.653-1.395.046 3.07 1.866 6.465 4.058 9.442 1.633 7.442-5.97 9.302-25.65 9.395-38.38Zm10.744-1.213c-1.488.606-5.023.84-4.046 2.611.79.56 3.255-1.912 4.837-.56-.884 1.54-3.814 1.167-4.744 2.659.744-.093.232 1.212.418 1.725.791.933 1.907-1.818 3.117-.513-.326 1.26-2.14 1.12-2.698 2.239 1.395 2.658 1.86 8.068.512 10.773-.28-4.664-.931-8.581-2.419-14.177-.512-.187-1.768.513-1.768-.28.187-.886 2.094-1.026.931-2.145-.372-.42-2.512.326-3.07.839 1.535 11.099-3.767 21.032-2.326 31.852 9.675-1.446 14.372-3.312 15.442-11.892.977-7.742-.744-18.141-4.186-23.131Zm6.93-8.348c-.418 1.306-2.604 2.705-1.907 3.917.373-.979 1.814-2.098 2.698-1.538-1.349 1.119-1.86 2.938-3.674 3.637-.093-.606.279-1.772-.744-1.352-1.303 1.399.465 3.404 1.255 4.803 2.093 3.684 3.442 8.114 6.047 10.54 1.674-3.685 6.558-7.182 6.093-11.426-.372-3.358-6.837-7.508-9.768-8.58Zm2.559-11.612c-.466 1.492 1.814-.047 1.767.98.558 1.632-.837 3.217.186 4.197.14-1.073-.046-2.472 1.256-2.519.093.28.325.373.698.327-.187 1.259-.512 4.104-2.187 4.99l-.093-2.099c-1.395.28-.93 2.285-2.697 2.239-.186-1.446 1.209-2.659.186-3.824-1.442.326-1.442 2.005-1.954 3.217 3.442.98 4.745 4.29 8.559 4.85.046-4.43.511-12.73-5.721-12.358Zm-.884 3.171c1.07.373 1.442-1.539.604-1.772.094.886-.465 1.12-.604 1.772Zm.93-17.441c-.279.093-.698.047-.698.373.279-.093.698-.047.698-.373Zm1.163-4.617c-1.954.42-4.233.56-4.419 2.658 2.326 1.166 5.582-.7 4.419-2.658Zm1.209 3.078c0 .98-.558 1.492-.558 2.472 1.256.42 1.256-2.099.558-2.472Zm-3.442-6.11c2.884-1.025 3.349 1.26 5.21-.232-1.303-.98-.838-1.68-1.861-3.032-2.651-.233-5.209 1.353-3.349 3.265Zm-2.325-5.455.697-.047-.046-.7-.698.047.047.7Zm-.093 5.596c-1.861.186-3.256.792-4.093 1.912.511 1.585 3.162.886 4.186.14l-.093-2.052Zm-4.651-2.565c1.86.793 3.814-.28 3.348-2.612-.697.047-.465-.932-1.441-.653-.326 1.353-.652 2.705-1.907 3.265Zm-.047 13.244c1.954.28 4.605.56 4.419-1.959-1.814-.699-4.186.187-4.419 1.96Zm-.605-5.223c-2.372-.186-3.116 1.166-4.046 2.285 1.721.84 4.418-.093 4.046-2.285Zm-4.93-9.187c.791.7 1.675-.466 3.116-.14-.046-1.073.652-1.399.931-2.145-1.954.233-2.791 1.492-4.047 2.285Zm-1.116 5.97c1.442.279 3.535.466 4.837-.234.465-1.399.14-2.798-.139-3.498-2.791.187-4.652 1.12-4.698 3.731Zm1.116 2.051c-.465 0-.511-.42-1.07-.28-.465.886 1.256.98 1.07.28Zm-8.186-4.15c2.093 0 4.419.513 5.535-.933.372-5.456-5.628-1.959-5.535.933Zm-1.488 5.316c1.535 2.565 7.069.98 6.837-2.052-1.442-1.819-7.488-1.212-6.837 2.052Zm-9.489-10.026c2.14-.327 7.768-3.078 8.372.326-1.395.28-3.72-.28-4.511.56.279.7 2.046-.327 1.767.979 1.349-.093 1.535-1.26 3.07-1.166L118 8.488c-2.977-1.493-8 .746-9.116-1.306 2.651-.467 6.744-.653 8.651-.746-3.442-4.244-15.116-1.306-8.14 3.45Zm-3.441 1.212 1.395-.047c.186-1.399-1.535-1.072-1.395.047ZM91.349 3.078c1.488 4.477 5.581 6.016 8.418 9 1.256-.513 2.466-1.072 3.396-1.912.046-.932-1.954-1.492-1.116-2.052 1.116.42 2.511 1.912 3.86.886-2.279-4.99-8.28-7.508-14.558-5.922Zm-2.79 14.736c.046-.28-.047-.7.325-.7-.372-1.631-2.512-1.398-2.93-2.984 1.534.28 2.558 1.073 3.907 1.54 1.255-1.073 2.232-4.151 4.372-3.358-.977 1.445-2.14 2.704-3.303 4.01 1.163.187 1.768.98 2.837 1.26.698-1.26 1.814-2.1 2.977-2.939C92.465 8.767 83.442 3.451 74.465 6.25c2.14-.047 2.651 1.679 5.256 1.166-.326 1.725 1.442 1.12 1.488 2.378-2.046-1.026-4.697.047-5.907.28-.418-1.26 1.256-.606.977-1.772-1.488-.56-3.116-.98-4.605-1.539-1.116.84-2.837 1.912-1.535 3.917 6.14 2.146 12.326 6.156 18.42 7.135Zm.836 10.447c-.325-1.213.466-1.353.233-2.472-2.372-1.213-6.651-.233-8.419-2.052 3.442-.28 6.14.327 8.745.98 1.116-.187.93-1.586 2.372-1.493 1.162.513-1.442 1.679.418 1.726.93 1.072 1.814-.747 2-1.493-9.72-3.497-30.046-12.87-38.372-2.378 4.698-.84 11.023-1.866 14.977.7-2.558.372-4.093-.374-6.605-.047-.698.7-2.046 2.518-2.697 2.238-.559-1.072 1.488-2.145-.093-2.098-2 .746-1.721 3.544-4 4.01-.233-1.632 1.116-1.865.883-3.544-1.256.047-2.79.42-3.163-.56-.65 1.213-1.348 3.265-.465 4.897 11.396.56 23.721.047 34.186 1.586Zm3.721-1.912c-1.07.28-1.07-.56-2.093-.234.419 1.353-.977 1.073-.558 2.472l2.419-.093c-.326-1.12.511-1.12.232-2.145Zm7.07 10.12c-2.047-.84-4.884-2.379-8.465-2.379-4.605-.047-9.535 2.378-13.116 2.005 4.65-2.378 10.883-3.824 16.883-3.218l-.093-2.098c-1.441-1.073-2.372.56-3.441.84-.559-.234 0-1.726-1.117-1.353-4.046-.373-9.395.933-13.814 1.679-9.86 1.679-27.116 3.777-24.744 13.337 2.977-.186 5.07-2.891 7.907-2.098-2.14 1.399-4.186 2.844-7.163 3.45.14 3.498.558 6.67 2.465 8.255 12.047-8.627 27.628-15.39 44.698-18.42ZM76.837 65.101c8-4.104 13.302-8.161 19.582-12.778 3.116-2.285 7.302-4.337 8-7.695-3.396-2.89-8.884 2.192-12.093 1.633 2.697-1.959 5.581-3.778 10.232-3.964-1.628-4.944-7.767-1.912-11.535-.84-5.349 1.493-10.279 4.244-14.046 4.477-1.442 1.54-4.79 2.192-7.163 3.451-2.698 1.492-11.674 7.089-11.721 9.98-.047 3.171 4.744 5.55 4.977 9.513 3.72 1.353 9.628-1.632 13.767-3.777Zm-13.256 14.55c1.303.047 1.675-2.425.884-3.171.233 1.492-.884 1.819-.884 3.171Zm-2.65 2.239c1.534-1.026 1.58-3.405 2.185-5.317-2 1.073-1.72 4.384-2.186 5.317Zm-43.024 69.252c.093.513-.047 1.306.419 1.352-.233-.606.976-1.492-.419-1.352Zm-6.046 27.468c-.14-1.679 1.07-3.871.465-4.897-.047 1.679-1.768 4.011-.466 4.897Zm14.976 247.863c-.093-1.212-.651-1.958-1.163-2.751-.046 1.399.512 2.145 1.163 2.751Zm1.954 34.09c.372-.513-.047-2.378-1.163-2.378 0 1.166.744 1.585 1.163 2.378Zm-.558 3.171c0 1.12.093 2.099.79 2.425.419-1.072-.046-1.772-.79-2.425Zm.604-9.466c-.511-.887-.14-2.752-1.535-2.705.326 1.119.326 2.611 1.535 2.705Zm126.884-120.598c.791 2.565.326 6.716.744 8.674.186-.466.698-.699 1.349-.746-1.023-2.332-.698-6.109-2.093-7.928Zm-1.768-7.928c.605 1.912.14 5.223 2.047 6.529-.279-2.658.186-6.109-2.047-6.529Zm-2.279-11.425c.791 3.637 1.024 7.881 2.233 11.052.837-2.331-.791-6.948-1.488-9.327-.14-.559.558-2.611-.745-1.725Zm-12.418 39.266c4.791-3.264 9.767-6.389 14.511-9.746-1.441-3.871-6.186-4.198-8-7.648 3.628.606 5.721 2.984 8.559 4.476 1.209-6.668-8.233-6.482-8.186-11.798 1.674.839 2.418 2.658 4.651 2.938.837.653 2.79 3.591 3.256 2.285a48.113 48.113 0 0 1-1.721-6.902c-3.117-1.819-6.698-5.083-7.675-8.021 2.977.28 5.023 5.363 6.837 4.57.465-8.487-6.837-10.166-9.023-14.55.651 14.783-.046 30.313-3.209 44.396Zm-2.093 7.089c3.349-3.918 7.674-6.949 11.674-10.307.884 0 1.116.607 1.721-.093 6.326-4.57 14.186-11.239 18.744-15.156-5.023 3.917-11.255 8.208-17.86 12.358-4.605 2.891-13.861 8.301-14.279 13.198ZM27.116 492.369l-1.395.047c.326 1.212-.465 1.352-.233 2.471 1.117-.373.698-2.052 1.628-2.518Zm26.047-16.229c2.14.467 3.628 3.544 5.349 3.218-1.582-.933-3.163-5.316-5.35-3.218Zm38.65-6.342c-4.65.373-9.72-1.865-13.208-.42 5.395-.093 9.023 1.306 13.209.42ZM13.535 506.686c.093.093.186.14.279.233.046.047.14.093.186.14-.047-.326-.093-.606-.14-.933-.093-.699.745-.979 1.256-.652a28.69 28.69 0 0 0-.744-1.773 250.486 250.486 0 0 1-.837 2.985Z"/><path d="M77.023 54.283c-.186-.607.465-.933-.046-1.026-5.07 3.684-11.675 5.969-16.233 10.166 3.349.373 5.674-2.611 8.14-4.197 2.79-1.772 5.534-3.218 8.14-4.943Z"/></g><defs><clipPath id="a"><path fill="#fff" transform="matrix(0 -1 -1 0 260 564)" d="M0 0h564v260H0z"/></clipPath></defs></svg>