<svg width="25" height="25" fill="none" xmlns="http://www.w3.org/2000/svg"><g clip-path="url(#a)"><path d="M7.865 22.657c9.431 0 14.591-7.816 14.591-14.592 0-.22-.004-.445-.014-.664A10.416 10.416 0 0 0 25 4.745c-.935.416-1.927.688-2.944.806a5.157 5.157 0 0 0 2.255-2.836 10.31 10.31 0 0 1-3.255 1.244 5.136 5.136 0 0 0-8.744 4.677 14.567 14.567 0 0 1-10.57-5.355 5.135 5.135 0 0 0 1.588 6.844 5.136 5.136 0 0 1-2.324-.64v.064a5.127 5.127 0 0 0 4.115 5.03 5.098 5.098 0 0 1-2.314.087 5.14 5.14 0 0 0 4.79 3.565A10.286 10.286 0 0 1 0 20.353a14.55 14.55 0 0 0 7.865 2.303Z" fill="#5F6C37"/></g><defs><clipPath id="a"><path fill="#fff" d="M0 0h25v25H0z"/></clipPath></defs></svg>